<svg width="549" height="123" viewBox="0 0 549 123" fill="none" xmlns="http://www.w3.org/2000/svg">
<path d="M91.3837 44.9792C92.8884 44.9792 94.9474 44.0289 97.5608 42.1283C97.7984 42.0491 97.9568 41.8907 98.1944 41.7323V90.2779C98.1944 93.8416 100.491 96.455 105.084 97.9597H93.2052C90.9086 97.9597 89.7207 96.9302 89.7207 94.7919V77.2902C89.6415 77.211 89.4831 77.1318 89.4039 77.211C86.3945 78.2405 84.0979 78.874 82.514 78.9532C82.1973 79.1908 81.9597 79.5868 81.7221 79.9828L71.2686 97.9597H61.2902L73.5652 76.5774C68.0216 73.1721 65.2499 67.9453 65.2499 60.7387C65.2499 48.6221 70.7934 42.5242 81.9597 42.5242C84.5731 42.5242 87.424 43.3162 90.5918 44.9C90.8294 44.9792 91.1461 44.9792 91.3837 44.9792ZM73.7236 60.7387C73.7236 63.4313 74.1987 66.0447 75.1491 68.4997C77.1289 73.6473 79.9007 76.2607 83.4644 76.2607C87.5824 76.2607 89.6415 75.4687 89.6415 73.8057V47.5134C89.6415 46.0087 87.5824 45.296 83.4644 45.296C79.9799 45.296 77.2873 47.6718 75.3866 52.4234C74.2779 55.116 73.7236 57.8878 73.7236 60.7387ZM121.133 110.71V58.6005C123.35 58.5213 125.013 58.0461 126.201 57.175C127.785 56.1455 128.577 55.5911 128.656 55.5911V57.8086C131.19 56.8582 133.566 56.3831 135.704 56.3831C143.069 56.3831 148.375 60.1844 151.781 67.7078C153.127 70.7171 153.76 73.964 153.76 77.5278C153.76 81.5666 152.81 85.3679 150.989 89.09C147.425 96.1382 142.357 99.6227 135.704 99.6227C133.962 99.6227 132.457 99.3852 131.19 98.9892C129.527 98.4348 128.656 98.1973 128.577 98.1973V113.64C128.577 115.937 127.627 117.045 125.805 117.045H115.51C119.232 115.303 121.133 113.165 121.133 110.71ZM134.279 96.6134C137.763 96.6134 140.456 93.6832 142.436 87.9021C143.624 84.3384 144.257 80.9331 144.257 77.6861C144.257 74.1224 143.703 70.7963 142.673 67.7078C140.693 62.1642 137.842 59.3924 134.2 59.3924C130.477 59.3924 128.577 60.026 128.577 61.3723V94.7919C128.577 95.9798 130.477 96.6134 134.279 96.6134ZM168.215 92.0202V58.2045C170.749 57.967 172.808 57.0958 174.471 55.5911H174.709V77.9237L193.003 56.2247H196.25L185.162 69.45C184.846 69.846 184.687 70.0836 184.687 70.1628C184.687 70.3211 184.925 70.7171 185.321 71.4299L200.605 97.9597H193.24C193.161 97.9597 192.923 97.7221 192.686 97.1677L180.094 75.5479L174.709 81.725V94.6336C174.709 96.7718 173.917 97.8013 172.254 97.8013H163.384C166.631 96.455 168.215 94.4752 168.215 92.0202ZM213.06 63.8273C213.06 57.7294 217.178 54.6408 225.335 54.6408C227.473 54.6408 229.295 54.9576 230.879 55.5911C234.759 57.2542 236.739 59.5508 236.739 62.5602V91.0698C236.739 93.8416 238.798 96.1382 242.995 97.9597H232.463C231.592 97.9597 230.8 97.3261 229.928 95.9798C227.236 97.3261 224.702 98.0389 222.247 98.0389C212.664 98.0389 207.913 93.2081 207.913 83.6257C207.913 74.0432 212.664 69.2916 222.247 69.2916C224.702 69.2916 227.077 69.846 229.532 71.0339V62.3226C229.532 59.1549 228.186 57.571 225.414 57.571C222.326 57.571 220.9 60.2636 221.217 65.7279C218.683 66.0447 216.545 66.995 214.882 68.4997H214.723C213.615 68.4997 213.06 66.9158 213.06 63.8273ZM214.802 83.4673C214.802 90.5155 218.287 94.0792 225.177 94.0792C228.107 94.0792 229.532 93.5248 229.532 92.4161V74.8352C229.532 73.8057 227.949 73.2513 224.86 73.2513C218.129 73.2513 214.802 76.6566 214.802 83.4673ZM275.488 58.0461C277.151 58.0461 278.894 57.2542 280.715 55.5911H281.032V93.0497C281.032 94.8711 282.616 96.5342 285.863 97.9597H276.993C275.171 97.9597 274.3 96.9302 274.3 94.7919V82.3586C272.954 82.9129 271.608 83.3089 270.261 83.5465C269.232 83.784 268.678 83.8632 268.678 83.9424L260.521 97.9597H252.997L261.55 83.1505C261.946 82.4378 262.105 82.0418 262.105 81.8834V81.725C257.986 78.9532 255.927 75.152 255.927 70.1628C255.927 60.8971 260.204 56.2247 268.678 56.2247C270.499 56.2247 272.083 56.5415 273.588 57.175C274.775 57.7294 275.409 58.0461 275.488 58.0461ZM262.501 69.846C262.501 72.2218 262.817 74.2016 263.53 75.7855C265.114 79.666 267.173 81.5666 269.628 81.5666C272.716 81.5666 274.221 81.0123 274.221 79.9828V59.7884C274.221 58.7589 272.716 58.2045 269.628 58.2045C267.173 58.2045 265.114 60.1052 263.53 63.9065C262.817 65.5695 262.501 67.5494 262.501 69.846ZM344.116 97.9597H333.583C331.207 97.9597 330.019 96.7718 330.019 94.396V41.5739H367.161V92.4161C367.161 94.6336 368.903 96.455 372.388 97.9597H361.934C359.479 97.9597 358.212 96.7718 358.212 94.396V44.1081H338.968V92.6537C338.968 94.7128 340.71 96.455 344.116 97.9597ZM396.136 57.3334H383.07V55.4328H416.331V57.3334H403.106V93.604C403.106 95.5839 404.373 97.0094 406.828 97.9597H398.908C397.245 97.9597 396.453 97.2469 396.453 95.8215V57.571L396.136 57.3334ZM425.989 95.4255V58.2045C428.285 57.967 430.424 57.0958 432.403 55.4328V90.8323L446.975 58.3629C447.054 58.2837 447.133 58.2045 447.213 58.2045C449.984 57.4918 451.964 56.6207 453.152 55.5911H453.39V92.4161C453.39 94.7128 455.053 96.5342 458.458 97.9597H449.588C447.767 97.9597 446.896 97.0886 446.896 95.4255V65.0944L432.403 97.9597H428.602C426.86 97.9597 425.989 97.0886 425.989 95.4255ZM467.748 95.4255V58.2045C470.044 57.967 472.183 57.0958 474.163 55.4328V94C474.163 95.3463 474.638 95.9798 475.509 95.9798H488.734V58.2045C491.031 57.967 493.169 57.0958 495.149 55.4328V94C495.149 95.7423 496.653 96.6926 499.663 96.7718V97.0094C498.317 98.514 497.287 100.098 496.495 101.761C496.099 102.632 495.862 103.107 495.782 103.186V98.1181H470.361C468.619 98.1181 467.748 97.2469 467.748 95.4255ZM513.185 63.8273C513.185 57.7294 517.303 54.6408 525.46 54.6408C527.598 54.6408 529.42 54.9576 531.004 55.5911C534.884 57.2542 536.864 59.5508 536.864 62.5602V91.0698C536.864 93.8416 538.923 96.1382 543.12 97.9597H532.588C531.716 97.9597 530.924 97.3261 530.053 95.9798C527.361 97.3261 524.827 98.0389 522.372 98.0389C512.789 98.0389 508.038 93.2081 508.038 83.6257C508.038 74.0432 512.789 69.2916 522.372 69.2916C524.827 69.2916 527.202 69.846 529.657 71.0339V62.3226C529.657 59.1549 528.311 57.571 525.539 57.571C522.451 57.571 521.025 60.2636 521.342 65.7279C518.808 66.0447 516.67 66.995 515.007 68.4997H514.848C513.739 68.4997 513.185 66.9158 513.185 63.8273ZM514.927 83.4673C514.927 90.5155 518.412 94.0792 525.302 94.0792C528.232 94.0792 529.657 93.5248 529.657 92.4161V74.8352C529.657 73.8057 528.073 73.2513 524.985 73.2513C518.253 73.2513 514.927 76.6566 514.927 83.4673Z" fill="#FF0090" fill-opacity="0.3"/>
<path d="M57.3174 13.1778C56.5534 13.0918 55.8168 13.0166 55.7002 13.0012C53.9915 12.6857 52.7516 13.1703 53.4787 13.8779C53.609 13.9995 53.6101 14.201 53.4546 14.2699C53.2612 14.3562 53.0143 14.085 52.8567 13.6839C52.6087 13.0769 52.4406 12.9727 51.8195 13.0472C50.0878 13.2579 49.5571 13.4041 49.4814 13.64C49.4426 13.7916 49.0937 13.8796 48.7185 13.8225C48.2919 13.7436 48.0071 13.8924 47.9052 14.2518C47.8043 14.6782 47.6751 14.6909 47.3241 14.3762C46.948 14.0505 46.805 14.0914 46.5749 14.5977C46.3448 15.104 46.2534 15.0994 46.0705 14.6876C45.8877 14.2757 45.4873 14.342 43.8481 15.0273C42.13 15.7471 41.8851 15.9458 41.9913 16.4593C42.11 16.9447 42.0712 17.0291 41.7601 16.9657C41.5531 16.8786 41.2683 16.826 41.1128 16.7607C40.3615 16.5794 39.3044 17.2745 38.9334 18.2245C38.6518 19.0448 38.5236 19.1246 38.1863 18.8489C37.641 18.419 36.4388 18.5507 36.195 19.0852C36.092 19.3102 36.132 19.5615 36.2623 19.6159C36.4178 19.6811 36.4315 19.9216 36.3285 20.1467C36.2266 20.3717 35.9807 20.5032 35.7736 20.4162C35.5666 20.3292 35.2692 20.439 35.0633 20.6205C34.8825 20.8129 34.5085 20.8901 34.2237 20.7703C33.8349 20.607 33.6415 20.7604 33.2948 21.5199C33.052 22.0544 32.9764 22.6259 33.1193 22.7866C33.3536 23.0187 35.0958 22.1755 35.326 21.6693C35.4037 21.5677 36.4493 20.9677 37.6367 20.3942C38.8368 19.7923 40.2039 18.9592 40.6683 18.5509C41.1055 18.1316 41.6225 17.8793 41.7654 17.9727C42.0502 18.1596 45.0197 16.9941 45.1868 16.6285C45.3528 16.2628 46.659 15.9732 47.1897 16.1627C47.4229 16.2606 47.6814 16.2352 47.7329 16.1227C47.7844 16.0101 48.3004 15.825 48.831 15.746C49.3995 15.6497 49.7873 15.6787 49.7232 15.8193C49.6212 16.0443 47.7361 16.8613 47.425 16.7978C46.3511 16.5811 44.2201 17.4625 44.1581 18.1402C44.1339 18.3979 43.8365 18.5748 43.3973 18.5913C42.3885 18.5697 39.1993 19.9448 38.9555 20.4792C38.841 20.7324 38.5436 20.9093 38.2851 20.9348C38.0392 20.9321 37.7177 21.1653 37.5895 21.4466C37.3205 22.0373 36.4041 22.4902 36.2728 22.1001C36.2328 21.983 35.6402 22.4042 34.9446 23.0502C34.2752 23.7072 33.5396 24.1692 33.3841 24.1038C33.2023 24.0277 32.9312 24.2155 32.7904 24.525C32.6496 24.8344 32.4047 25.0331 32.2492 24.9678C32.0685 24.8916 31.8751 25.1793 31.7354 25.7573C31.5956 26.2681 31.3771 26.612 31.2478 26.5576C31.0923 26.4923 30.6394 26.604 30.1749 26.8109C28.2772 27.6559 29.4846 25.6161 31.5231 24.5288C32.0139 24.2656 32.1168 24.1077 31.9214 23.9254C31.7785 23.7648 31.7512 23.4183 31.8794 23.137C32.1998 22.4337 31.8226 21.9067 31.3192 22.2651C30.9714 22.4875 30.88 22.4158 30.7613 21.8633C30.6951 21.4668 30.7318 20.9125 30.8464 20.6593C30.9746 20.378 31.1017 19.8952 31.127 19.5705C31.189 19.0269 31.1889 19.0269 31.4895 19.7228C31.6597 20.0957 31.8804 20.356 32.0222 20.3153C32.4226 20.1147 32.3123 18.594 31.872 18.4762C31.6261 18.4063 31.2373 18.2431 30.9652 18.0952C30.589 17.9039 30.6016 17.8086 31.0145 17.5798C31.4275 17.3512 31.4527 17.2278 31.1795 16.9456C30.8685 16.6137 30.8811 16.5855 31.3844 16.4284C31.7333 16.3403 31.9518 16.0636 31.9897 15.7107C32.0391 15.1282 31.6618 14.8025 31.4569 15.2526C31.3928 15.3932 31.2257 15.4903 31.0954 15.4359C30.9662 15.3814 31.0429 15.0785 31.2615 14.8017C31.6219 14.3498 31.5956 14.2717 31.0261 14.2338C30.5217 14.1894 30.4565 14.0614 30.6867 13.5552C30.9557 12.9644 30.5332 10.8432 30.1182 10.6691C30.0141 10.6256 29.7819 10.7962 29.6148 11.0276C29.4225 11.3152 29.3049 11.0313 29.3143 10.1303C29.3028 7.6461 28.5336 6.21724 27.6709 7.02762C27.5027 7.19187 27.5542 7.07938 27.7864 6.77448C28.1206 6.31167 28.1059 6.07124 27.6908 5.62852C27.3913 5.33553 27.1833 4.97987 27.2474 4.83933C27.2989 4.72673 26.7787 4.10624 26.0904 3.5157C25.1037 2.63217 24.779 2.46257 24.4701 2.66768C24.1349 2.86191 24.0571 2.82922 24.0813 2.50444C24.1054 2.04527 23.4308 1.69517 23.2512 2.08906C23.1871 2.2296 22.9422 2.29407 22.6827 2.18531C22.4494 2.08734 22.3842 1.95941 22.5135 1.8795C22.6553 1.83874 22.7194 1.5638 22.6795 1.31248C22.5608 0.827076 21.4858 0.543261 21.2935 0.9652C21.2294 1.10585 21.035 1.05782 20.8795 0.858151C20.684 0.675836 20.2312 0.653236 19.8571 0.797616C19.483 0.941894 19.0301 0.919294 18.8483 0.708829C18.5877 0.465675 18.3166 0.51925 17.9561 0.90406L17.3897 1.47028L17.5032 0.747169C17.5789 0.376989 17.5778 0.041315 17.5516 0.0304185C17.2142 -0.111136 15.8965 0.273875 15.7557 0.516122C15.3449 1.28191 15.203 1.38997 14.5567 1.45353C13.9357 1.52809 13.9105 1.51719 14.4128 1.09152C14.7091 0.847457 14.9025 0.559808 14.8236 0.460024C14.5893 0.0934757 12.2135 1.03926 12.267 1.46392C12.2681 1.6653 12.0621 1.84681 11.8162 1.84409C11.5315 1.85872 11.171 2.17633 10.9661 2.62632C10.5437 3.55465 9.87118 3.8088 9.79132 3.10476C9.764 2.82528 9.60952 3.09568 9.41933 3.7862C9.11354 4.86405 9.06207 4.90945 8.60707 4.48398C8.2561 4.16919 8.08797 4.19916 7.90934 4.59305C7.76853 4.90239 7.47219 5.21364 7.20108 5.33442C6.85221 5.48959 6.78813 5.69733 6.94575 6.23268C7.19584 7.10813 7.05501 7.48467 6.63889 7.04205C6.19755 6.58843 5.57968 7.26724 5.75096 7.97582C5.84343 8.45033 5.76674 8.61902 5.22453 8.86046C4.86305 9.04378 4.38703 9.61454 4.16846 10.0928C3.84901 10.796 3.86267 11.0364 4.27669 11.2106C4.56251 11.3302 4.74431 11.5407 4.6676 11.7095C4.6035 11.8502 4.35761 11.9146 4.12433 11.8167C3.78807 11.6752 3.64619 11.8503 3.45494 12.5408C3.35406 13.0343 3.16072 13.3892 3.05774 13.3456C2.6038 13.0544 2.43567 13.1516 2.5418 13.6651C2.64688 14.0443 2.58279 14.1849 2.37578 14.0979C1.88295 13.8911 1.65387 14.8674 2.13409 15.2366C2.38103 15.4407 2.48612 15.8199 2.35792 16.1012C2.19189 16.4669 1.98488 16.5141 1.67279 16.2492C1.20623 15.8519 0.806904 16.2539 1.14526 16.7982C1.2619 16.9479 1.14739 17.3354 0.903599 17.6684C0.363483 18.3798 0.124932 20.1228 0.439124 21.1261C0.557865 21.5445 0.508497 22.0598 0.315148 22.2803C0.10919 22.5289 0.111272 23.066 0.321434 23.6231C0.556815 24.2582 0.533712 24.8516 0.251044 25.4703C-0.222871 26.5112 0.000938557 27.3757 0.697625 27.0653C1.3176 26.7894 1.44896 27.3138 0.830034 27.6568C0.494826 27.851 0.391841 28.0089 0.534751 28.2367C0.652442 28.3864 0.614622 28.605 0.472763 28.713C0.0471854 29.0369 0.351906 33.8566 0.819516 34.1867C2.01324 35.0231 2.25282 36.7323 1.27241 37.3259C1.05385 37.4684 0.96347 37.6653 1.08116 37.8149C1.15892 37.9819 1.49519 37.922 1.74003 37.7232C2.16561 37.3992 2.14038 37.5226 1.72951 38.2884C1.31865 39.0543 1.33335 39.3618 1.69693 39.7828C1.97014 40.065 2.0889 40.6175 2.02586 40.9595C1.91237 41.5484 2.39783 43.2604 2.73514 43.4018C3.04618 43.5324 3.29943 42.3657 3.03988 42.0554C2.67525 41.7016 2.82866 41.0955 3.24268 41.2696C3.89103 41.5416 4.01293 42.8999 3.4602 43.7737C2.96002 44.535 2.96106 44.8036 3.48226 45.8269C4.06967 47.0453 4.6014 47.302 4.36391 46.2641C4.14009 45.3323 4.58036 45.4502 5.05008 46.4518C5.4683 47.2973 5.46831 47.3644 4.83467 47.5343C4.38283 47.6459 4.24097 47.8211 4.34605 48.1332C4.45113 48.4452 4.58036 48.4996 4.78631 48.3182C5.25077 47.977 5.63958 48.2073 5.42207 48.6856C5.31909 48.9105 5.38529 49.2399 5.58074 49.4222C5.7888 49.6435 5.75097 49.9294 5.48091 50.2515C5.1457 50.6471 5.17304 50.7923 5.58706 50.9665C5.94959 51.1188 6.05465 51.3638 5.88757 51.7294C5.69527 52.1514 5.78671 52.2902 6.25327 52.3517C6.78288 52.407 6.80914 52.485 6.41089 52.9542C6.08934 53.3217 6.08933 53.5231 6.40037 53.6538C6.60843 53.7407 6.76501 54.1418 6.72823 54.5619C6.65363 55.4021 7.08551 56.5552 7.29042 56.1051C7.36818 55.9363 7.28936 55.7022 7.17167 55.5526C6.96466 55.3312 7.00247 55.2469 7.36395 55.0635C7.76431 54.8629 7.82946 54.9908 7.78113 55.7076C7.71808 56.184 7.64243 56.6885 7.57833 56.8291C7.32193 57.3917 8.09113 58.7534 8.73843 58.8241C9.25647 58.9074 9.39938 59.1351 9.40358 60.008C9.4225 61.524 9.80603 63.4611 10.1171 63.5916C10.2726 63.657 10.4397 63.3585 10.5416 62.932C10.7308 61.973 11.2236 62.1126 11.0723 63.0544C11.0092 63.4636 11.0901 64.2348 11.2604 64.8091C11.4443 65.3553 11.4338 65.9205 11.253 66.0458C11.0985 66.1819 11.0733 66.4396 11.2551 66.5828C11.4369 66.7933 11.3613 67.1635 11.0271 67.6935C10.591 68.3813 10.591 68.5156 11.0439 68.6053C11.3549 68.6687 11.6775 68.5026 11.7805 68.2776C12.0747 67.6306 13.0299 67.1606 13.5742 67.3891C13.9105 67.5305 13.9378 67.7428 13.6551 68.0931C13.4366 68.3699 13.3988 68.6557 13.5543 68.721C13.9683 68.8951 14.5347 68.2617 14.5841 67.545C14.644 66.5315 15.4646 64.7984 16.0195 64.4617C16.5606 64.1531 16.5606 64.1531 16.382 64.6141C16.113 65.2047 16.3337 65.3308 17.1859 65.0858C17.9477 64.8361 18.14 64.4813 17.4938 64.4778C17.1186 64.4879 17.0798 64.3708 17.3624 64.0876C17.5432 63.8953 17.7491 63.6466 17.7869 63.5623C17.8258 63.4779 17.9424 63.6276 18.0727 63.8834C18.243 64.2563 18.3723 64.3107 18.6045 64.1401C19.0301 63.8161 18.8472 63.3371 18.1074 62.859L17.498 62.5026L18.4931 62.3509C19.0616 62.2546 19.7341 62.2019 20.0189 62.1873C20.3163 62.2118 20.9351 61.7345 21.4111 61.1636C21.8746 60.621 22.3895 60.1002 22.5576 60.0701C22.7646 60.023 22.9317 59.7245 22.9432 59.4277C22.9674 59.103 23.2638 58.7917 23.703 58.641C24.5552 58.3287 25.4557 57.2997 25.0669 57.1364C24.9114 57.0712 24.8463 56.8761 24.9104 56.7355C24.9871 56.5667 25.2718 56.5522 25.5566 56.6718C25.9202 56.8242 26.1651 56.6926 26.37 56.2425C26.5371 55.8769 26.8974 55.4922 27.1685 55.3714C27.5552 55.199 27.5805 55.0084 27.2673 54.475C26.8249 53.6857 27.0151 52.928 27.611 53.1784C27.819 53.2654 28.1154 53.0885 28.2562 52.779C28.397 52.4697 28.6418 52.2709 28.7721 52.3253C28.9276 52.3906 29.1462 52.181 29.287 51.8716C29.4278 51.5621 29.763 51.3008 30.0089 51.3035C30.2674 51.278 30.5774 51.0729 30.7056 50.7917C30.9872 50.1728 31.5683 49.9813 31.6093 50.5011C31.6366 50.7806 31.8048 50.8178 32.1662 50.7016C32.5666 50.5681 32.7978 50.1961 33.0531 49.365C33.3211 48.3715 33.4367 48.2526 33.8517 48.4268C34.5505 48.7206 35.492 47.9429 35.4626 47.0591C35.4458 46.2816 35.9092 45.8732 35.9775 46.6054C36.071 47.3485 36.7687 47.0381 36.9453 46.1743C37.0472 45.6807 37.2017 45.4774 37.3572 45.6099C37.5128 45.7423 38.2609 45.3194 39.048 44.6777L40.4529 43.5588L40.0746 42.8975C39.7226 42.3142 39.7489 42.2579 40.3426 41.9711C41.1948 41.5917 41.4018 41.7459 40.8869 42.334C40.6683 42.6107 40.579 42.8748 40.7345 42.94C41.1496 43.1142 41.9083 42.0588 41.6603 41.6533C41.53 41.4647 41.5941 41.1897 41.7738 41.0644C42.0186 40.8658 42.1489 40.9201 42.3055 41.254C42.5924 41.9108 43.1209 41.429 43.0915 40.5452C43.0484 39.6896 43.9647 39.1025 45.0901 39.2738C45.8804 39.3707 46.0989 39.094 45.7983 38.3981C45.6155 37.9862 45.7437 37.7721 46.5812 37.018C47.1097 36.5361 47.6373 35.9871 47.7266 35.7902C47.8296 35.5652 47.9462 35.5806 48.0639 35.9317C48.2467 36.2765 48.4926 36.2791 49.2408 35.9234C49.886 35.5912 50.1182 35.3534 49.9491 35.182C49.6244 34.8781 50.0342 33.7765 50.3967 33.9289C50.526 33.9834 50.6048 34.2174 50.6058 34.4188C50.568 34.6375 51.0198 34.3915 51.6125 33.9033C52.2178 33.387 52.9659 32.8298 53.3011 32.7026C53.6237 32.5366 54.5915 31.8369 55.3901 31.1C56.5628 30.0845 56.8203 29.7234 56.5607 29.5475C56.1972 29.2608 56.5544 28.2718 57.0588 28.1819C57.2532 28.1628 57.3047 28.3188 57.1902 28.572C57.0746 28.8252 57.1534 29.0592 57.373 29.051C57.8259 29.0736 58.8893 26.6718 58.5384 26.357C58.3829 26.2246 58.6141 25.9868 59.1311 25.8017C59.7248 25.582 59.9055 25.3896 59.7363 25.2182C59.4116 24.9143 59.5903 24.3862 59.9276 24.5277C60.0568 24.5821 60.1493 24.9223 60.0862 25.2644C59.9854 26.0266 60.3878 26.296 60.682 25.649C60.785 25.4239 61.1329 25.0002 61.4681 24.7389C61.8033 24.4774 62.2919 23.8114 62.5997 23.2707C63.0358 22.4486 63.0348 22.18 62.6187 21.6702C62.2803 21.2601 62.2141 20.9308 62.4463 20.693C62.6397 20.4726 62.7143 19.9009 62.6081 19.3873C62.5031 18.8739 62.4999 18.2696 62.5903 18.0727C62.6796 17.8758 62.5619 17.5247 62.315 17.3206C62.0817 17.0884 62.0155 16.8261 62.1573 16.7182C62.3118 16.5821 62.3097 16.1121 62.1395 15.672C61.8779 15.0261 61.632 14.822 60.6862 14.5927C60.0389 14.4548 59.3664 14.4404 59.1731 14.5938C58.9408 14.7644 58.9146 14.6192 59.1069 14.1974C59.4274 13.4941 59.2845 13.4007 57.3174 13.1778ZM56.2865 13.951C56.3001 14.1243 56.1835 14.2432 56.0543 14.1888C55.8987 14.1234 55.8336 13.9284 55.8977 13.7877C55.9744 13.6189 56.0774 13.5282 56.1288 13.55C56.2066 13.5826 56.2854 13.7496 56.2865 13.951ZM61.1853 16.2094C61.0687 16.261 60.8229 16.1912 60.68 16.0307C60.5108 15.8593 60.6274 15.8075 60.9121 15.9272C61.2095 16.0188 61.3272 16.1685 61.1853 16.2094ZM55.6487 16.0288C55.5068 16.1368 55.2609 16.2013 55.1054 16.1359C54.9761 16.0815 54.9362 15.8974 55.0003 15.7568C55.077 15.588 55.3103 15.5517 55.5436 15.6496C55.7506 15.7367 55.8031 15.8927 55.6487 16.0288ZM16.5344 1.24549C16.1635 2.06121 15.7232 2.01046 16.0048 1.1902C16.1445 0.813659 16.3894 0.547702 16.5197 0.602185C16.6741 0.667463 16.6626 0.964193 16.5344 1.24549ZM52.4143 16.0112C51.7291 16.1592 51.3928 16.0177 51.7669 15.7391C51.9214 15.603 52.2577 15.6102 52.491 15.7081C52.8798 15.8714 52.8535 15.9277 52.4143 16.0112ZM20.8049 4.61353C22.0238 5.39364 22.6595 5.761 23.5664 6.20897C24.0203 6.43305 24.1895 6.73876 24.1275 7.14799C24.0508 7.51817 24.2337 7.86292 24.5447 7.99348C24.8558 8.12414 25.2981 8.84624 25.5345 9.61555C25.8099 10.4348 26.1619 11.0182 26.433 11.0317C26.7178 11.0172 26.8617 11.3792 26.826 12.0007C26.8018 12.5269 26.8691 12.9906 26.9721 13.034C27.3609 13.1973 27.613 14.5428 27.3955 15.2224C27.0887 16.0989 27.4039 17.2366 27.8957 17.2419C28.1153 17.2338 28.3623 17.505 28.4285 17.8344C28.5598 18.3587 28.4831 18.4604 28.0702 18.5548C27.6561 18.6492 27.6435 18.7445 27.9168 19.1609C28.2299 19.6272 27.9115 20.8004 27.5227 20.6371C27.4187 20.5936 27.3262 20.0519 27.2978 19.4369C27.2558 18.8498 27.096 17.7774 26.9248 17.0688C26.7146 16.3775 26.6085 15.7297 26.66 15.6172C26.7493 15.4203 25.9759 12.9172 25.3485 11.3803C25.0344 10.5783 24.9041 10.4568 24.5436 10.7072C23.4865 11.4696 23.8543 12.9647 25.1352 13.067C25.6659 13.1223 25.7048 13.1722 25.3055 13.3727C24.9178 13.5452 24.8673 13.7249 25.0112 14.2883C25.1163 14.6675 25.4032 15.0558 25.688 15.1755C25.9475 15.2844 26.103 15.484 26.0263 15.6526C25.9622 15.7933 25.7941 15.8905 25.6397 15.8252C25.5094 15.7707 25.3286 15.8288 25.2519 15.9976C25.1878 16.1383 25.3569 16.3769 25.6417 16.4965C25.9275 16.6163 26.083 16.8829 25.9811 17.108C25.8907 17.3049 26.0347 17.6669 26.308 17.8819C26.6579 18.1967 26.6852 18.3418 26.3489 18.536C26.0137 18.7302 26.0169 19.4017 26.3741 21.3278C26.639 22.7123 26.722 23.8863 26.5412 23.9444C26.205 24.0044 25.6313 25.8744 25.916 25.9941C26.0201 26.0377 26.2911 25.9841 26.5623 25.8633C26.7945 25.7599 27.0666 25.7734 27.1181 25.9295C27.1707 26.0856 27.0162 26.2888 26.784 26.3923C26.474 26.5302 26.372 26.8224 26.3878 27.4657C26.3931 28.607 26.2911 28.8992 25.9013 28.6017C25.7458 28.4693 25.5387 28.4493 25.461 28.5509C24.7538 29.4266 25.4673 29.8266 26.4603 29.1378C27.2852 28.6133 27.1454 29.1241 26.0904 30.4235C25.6144 30.9943 25.4736 31.3708 25.5913 31.5876C25.7079 31.7374 25.606 32.1639 25.3875 32.5077C25.1185 32.9641 24.8862 33.0677 24.5489 32.859C24.1979 32.6113 24.0697 32.6912 23.9815 33.2238C23.9048 33.594 23.455 34.2428 23.0042 34.6901C22.1152 35.4896 21.6109 35.3781 22.2792 34.5197C22.5103 34.2148 22.5356 33.9571 22.3286 33.8701C22.0953 33.7721 22.172 33.6705 22.5723 33.5371C23.1282 33.4018 25.5345 30.5588 25.4168 30.2077C25.4032 30.1016 25.1836 30.0427 24.9377 30.0399C24.6655 30.0264 24.4217 30.3594 24.2431 30.9546C24.0004 31.7577 23.91 31.8202 23.599 31.4883C23.2743 31.1844 23.1839 31.2469 23.0316 31.9202C22.9559 32.3575 22.7625 32.7123 22.5818 32.7032C21.8315 32.6562 20.0272 37.2937 20.292 38.6111C20.332 38.9295 20.229 39.0874 19.9317 39.063C19.6858 39.0603 19.3001 39.5013 19.0048 40.1483C18.492 41.2063 18.4794 41.2344 19.3999 41.5872C19.982 41.7985 20.3068 42.1024 20.2826 42.36C20.1817 43.0551 20.705 44.2798 21.0403 44.2199C21.6224 44.0955 21.6203 43.6926 21.0739 42.9941C20.5022 42.2847 20.5779 41.8474 21.6707 40.3293C22.1719 39.6352 22.3401 39.538 22.4578 39.8891C22.5629 40.2012 22.731 40.3055 23.0925 40.1893C23.4676 40.045 23.5327 40.1057 23.3783 40.4433C23.2763 40.6683 23.0053 40.8562 22.8109 40.8752C22.6039 40.8554 22.4756 41.0024 22.5156 41.1865C22.5807 41.3816 22.9811 41.3153 23.4718 41.0521C24.1422 40.6637 24.2452 40.5058 24.076 40.1329C23.8795 39.7492 24.3524 38.4399 25.3927 36.5642C25.752 35.911 26.3595 35.9317 26.0526 36.6068C25.77 37.2256 26.288 37.309 26.764 36.7382C27.0478 36.388 27.0582 35.957 26.7703 35.233C26.3521 34.2532 26.3521 34.2532 26.9616 34.4754C27.4534 34.6822 27.5826 34.6024 27.6582 34.0979C27.7454 33.431 28.2498 33.4082 28.3045 34.0342C28.3591 34.5931 28.9402 34.3344 29.2859 33.575C29.6064 32.8717 29.3195 32.4835 28.8435 32.9871C28.6628 33.1795 28.6113 33.0906 28.7521 32.7811C28.8414 32.5171 29.1252 32.3683 29.3322 32.4553C29.7987 32.6513 30.0562 32.223 29.7178 31.8129C29.4972 31.6197 29.5875 31.49 30.0005 31.3283C30.9178 31.0097 32.1936 29.9707 32.1662 29.624C32.1389 29.4118 31.9833 29.2794 31.8152 29.3094C30.963 29.4873 31.9172 28.8829 33.608 28.1522C35.4679 27.3916 36.2791 26.5595 35.7715 25.9779C35.6286 25.8174 35.7327 25.8609 36.0311 26.0868C36.4462 26.3952 36.6658 26.387 36.9747 25.9805C37.2059 25.6756 37.477 25.4877 37.5548 25.5204C37.9436 25.6836 40.1997 23.8496 40.2879 23.317C40.351 22.9078 40.4792 22.8279 40.8039 22.9975C41.1538 23.178 41.3082 23.0419 41.4995 22.4857C41.6781 21.9576 41.7822 21.8669 41.8999 22.218C42.109 22.8422 42.8466 22.783 43.1409 22.1361C43.2691 21.8548 43.4877 21.6452 43.6432 21.7105C43.7735 21.7649 44.0961 21.5317 44.3661 21.2096C44.6225 20.8484 45.0229 20.5807 45.2688 20.5833C45.5147 20.5861 45.7847 20.3982 45.9003 20.1451C46.1178 19.6668 46.597 19.7675 46.5214 20.272C46.4972 20.5297 46.6789 20.6058 47.2211 20.4987C47.7255 20.4088 47.9956 20.1537 48.0839 19.6883C48.1984 19.1666 48.418 18.9569 48.9991 18.8997C49.6843 18.8188 49.7105 18.8297 49.1683 19.1383C48.7165 19.3842 48.6271 19.5812 48.7322 19.8932C48.8499 20.2443 49.3543 20.1544 50.8254 19.432C51.8962 18.9101 52.9428 18.5788 53.1761 18.6767C53.4094 18.7747 53.6553 18.7102 53.7194 18.5696C53.7961 18.4008 53.9768 18.3427 54.106 18.3972C54.2616 18.4624 54.2763 18.7029 54.1607 18.956C54.0199 19.2655 54.1103 19.4042 54.4465 19.4115C54.7187 19.425 55.0938 19.4821 55.3019 19.5692C55.5089 19.6562 55.7537 19.5247 55.8567 19.2996C55.9586 19.0746 56.1783 18.9321 56.3075 18.9865C56.463 19.0518 56.5156 19.2078 56.4389 19.3766C56.3748 19.5173 56.5439 19.7558 56.8035 19.8647C57.5023 20.1586 57.9962 20.701 57.8428 21.0386C57.7787 21.1792 57.6368 21.1529 57.5065 20.9642C57.3888 20.7474 57.2732 20.8662 57.1712 21.2927C57.0956 21.73 56.9159 21.9224 56.6049 21.8589C56.2035 21.7909 56.1783 21.8472 56.4 22.4433C56.5576 22.9786 56.5072 23.2253 56.069 23.5775C55.4637 24.0938 55.1527 24.0975 55.6287 23.5939C55.7968 23.4297 55.7821 23.122 55.614 22.9506C55.3922 22.6902 55.1989 22.7765 55.0319 23.1421C54.9037 23.4234 54.2984 24.007 53.7183 24.3999C53.1383 24.7928 52.3659 25.6078 51.9929 26.1549C51.6335 26.7411 51.1176 27.1948 50.8591 27.2202C50.5869 27.2067 50.2402 27.5633 50.0216 28.0415C49.7526 28.6322 49.2755 29.0015 48.3455 29.3483C47.0026 29.8566 46.3721 30.5635 47.0457 30.8465C47.2537 30.9335 47.384 31.1222 47.3063 31.291C47.2422 31.4317 46.9973 31.4961 46.7903 31.4091C46.5571 31.3111 46.2334 31.4101 46.0537 31.6024C45.8478 31.7839 45.5504 31.8938 45.3949 31.8285C45.2131 31.7523 44.6845 32.0327 44.2326 32.413C43.743 32.8104 42.8025 33.5882 42.0932 34.1281C41.1391 34.8668 40.6252 35.5219 40.0483 36.7206C39.1888 38.4709 38.2861 39.03 37.4812 38.3569C37.1954 38.1029 37.0661 38.1156 37.0546 38.4123C37.0041 38.6591 37.1471 38.8868 37.3541 38.9067C37.5222 38.9439 37.5747 39.0999 37.4076 39.2642C37.2658 39.4393 36.9684 39.482 36.7614 39.3278C36.3589 39.0584 35.0297 39.8072 35.0833 40.2989C35.0969 40.4722 34.6461 40.8524 34.1039 41.0939C32.865 41.7129 31.913 42.9216 32.4836 43.161C32.8461 43.3134 33.1161 43.0584 33.3851 42.2663C33.4356 42.0866 33.6678 41.9831 33.9011 42.081C34.2122 42.2117 34.1869 42.4022 33.7887 42.9384C33.1067 43.825 32.41 44.1354 31.7617 43.8633C31.1396 43.6021 30.5722 43.8998 29.865 44.8426C29.5171 45.2665 29.4415 45.5694 29.6222 45.6456C29.9858 45.798 29.5371 46.7825 28.8667 47.3723C28.48 47.6791 28.1952 47.6937 27.7927 47.3571C27.4554 47.0813 27.1707 47.0288 27.0814 47.2257C27.0047 47.3944 27.0698 47.5895 27.1991 47.6439C27.6141 47.8181 27.1265 48.6184 26.6085 48.6021C26.35 48.6275 26.0021 48.9171 25.8224 49.3109C25.566 49.8735 25.4242 49.9142 25.0733 49.5996C24.7748 49.3065 24.5815 49.3256 24.4396 49.635C24.3251 49.8881 24.3387 50.1285 24.4942 50.1939C24.6235 50.2483 24.5857 50.4669 24.406 50.6593C24.199 50.8409 23.9026 50.9507 23.6956 50.8637C23.2806 50.6895 22.9979 51.1069 23.2711 51.5233C23.5191 51.9288 22.8351 52.4797 22.4977 52.1367C22.2897 51.9154 22.1089 52.0407 21.8788 52.547C21.6991 52.9408 21.3513 53.2302 21.0928 53.2556C20.5106 53.2458 20.1649 54.0053 20.6062 54.3246C20.8395 54.4897 20.8143 54.6802 20.518 54.8571C20.1828 55.1186 20.0787 55.075 19.8696 54.6522C19.7393 54.3293 19.5702 54.2249 19.4935 54.3937C19.4168 54.5625 19.483 54.8246 19.6385 54.9571C19.8077 55.1285 19.5492 55.3555 18.8777 55.6096C17.6514 56.0662 16.6226 57.4437 17.1291 57.958C17.5841 58.4506 18.4101 58.1274 18.7821 57.3117C18.9744 56.8897 19.2454 56.7019 19.4787 56.7999C19.6857 56.8869 19.7772 57.16 19.6616 57.4132C19.3421 58.1164 17.6251 59.1048 17.3141 58.7727C17.1449 58.6012 16.6794 58.7411 16.2034 59.1104C15.7515 59.4906 15.2219 59.704 15.0664 59.6386C14.8857 59.5624 14.6272 59.655 14.4727 59.7912C14.3182 59.9945 14.1501 59.9572 14.0839 59.7622C14.0187 59.5672 14.1217 59.4093 14.355 59.44C14.872 59.4563 15.1662 58.6751 14.6997 58.4791C14.4927 58.3922 14.4002 58.119 14.5032 57.8941C14.6061 57.669 14.5914 57.4285 14.4359 57.3632C14.0997 57.2218 13.9326 57.5874 14.0776 58.0837C14.169 58.2896 13.9378 58.6616 13.5375 58.9965C12.867 59.5192 12.8807 59.4911 13.4818 58.102C14.0713 56.808 14.0702 56.5394 13.6121 55.3083C13.3115 54.5454 12.9858 53.9058 12.8555 53.8513C12.7525 53.8078 12.66 53.4004 12.6579 52.9305C12.6558 52.3933 12.4341 51.9987 12.0579 51.8745C11.6176 51.6895 11.5651 51.5334 11.8352 51.2112C12.1441 50.8719 12.0401 50.627 11.3518 50.0364C10.8463 49.6564 10.198 49.3172 9.88695 49.3208C9.48659 49.32 9.43407 49.231 9.71779 48.9479C9.92375 48.6993 9.90796 48.1232 9.63265 47.371C8.88657 45.2817 8.83301 44.9242 9.33739 44.8342C10.074 44.708 9.6684 43.633 8.76155 43.252C8.1132 42.98 8.07432 42.863 8.42214 42.4391C9.00113 41.7776 8.64804 40.8586 7.79373 40.7009C7.18531 40.6129 7.17167 40.574 7.71494 40.4668C8.50305 40.2952 8.66907 39.8624 8.02177 39.5903C7.73595 39.4706 7.58044 39.2038 7.66975 39.007C7.91354 38.4726 6.75765 34.5024 6.39617 34.6186C6.22804 34.7157 6.19126 35.0686 6.29634 35.4479C6.5065 36.2063 6.45606 36.5873 6.1198 36.4459C5.9895 36.3915 5.89704 35.8498 5.90755 35.2174C5.92856 34.1541 5.96637 34.0697 6.47076 34.0469C6.88478 34.0197 6.85852 33.9416 6.30054 33.5397C5.67846 33.0771 5.65116 32.932 6.12612 31.9584C6.60004 30.9848 6.57375 30.9067 5.97899 30.7907C5.61646 30.7055 5.35691 30.5296 5.42101 30.3889C5.49772 30.2201 5.45674 29.7002 5.36322 29.1586C5.21821 28.528 5.28126 28.186 5.54081 28.1606C6.16079 28.0189 6.42663 26.6896 5.85604 26.4502C5.57127 26.3305 5.3895 26.0529 5.40106 25.8234C5.42628 25.6328 5.58074 25.4967 5.76148 25.5728C5.94327 25.649 6.01999 25.4131 5.94013 24.9105C5.86027 24.475 5.89702 23.9206 5.98634 23.7238C6.34571 22.9362 6.4834 18.9731 6.19443 17.9805C5.91912 16.9598 6.124 16.5097 6.7713 16.7819C6.95309 16.858 7.19793 16.7265 7.30091 16.5015C7.42911 16.2873 7.63508 15.9715 7.7244 15.8417C8.21408 15.2428 9.07151 13.2239 8.88972 13.1478C8.78674 13.1043 8.59342 13.2576 8.49044 13.4826C8.38851 13.7077 8.19515 13.8611 8.03963 13.7957C7.57307 13.5999 8.08693 12.9447 9.02951 12.5026C9.62322 12.2159 10.3703 11.4573 11.1669 10.2504C11.874 9.24043 12.8397 8.13786 13.3294 7.80753C14.5935 6.93086 16.1046 6.3255 16.5838 6.49329C17.4255 6.74623 18.5246 6.70526 19.0405 6.38573C19.3758 6.19161 19.505 6.1788 19.4283 6.41479C19.236 6.83663 20.1439 7.2847 20.5569 6.98888C21.0203 6.64765 21.2809 6.89081 21.1537 7.57487C21.0276 8.19184 21.7411 8.79327 21.9849 8.25883C22.2287 7.72439 22.6575 8.20616 22.5829 8.97911C22.5335 9.56167 22.6638 9.75034 23.2207 9.88363C23.9069 10.0042 24.6676 9.5531 24.4207 9.1476C23.0399 7.02661 21.987 5.88086 21.1064 5.57798C20.5369 5.40565 20.0178 5.12083 19.9138 4.94305C19.6269 4.48761 17.7376 4.16314 17.2079 4.44352C16.9505 4.60324 16.4587 4.59789 16.1214 4.45644C15.8114 4.32588 15.3963 4.28603 15.2419 4.42213C15.1 4.53009 14.8289 4.58366 14.6734 4.51838C14.1291 4.28986 15.4079 3.85501 16.236 4.00191C16.7025 4.06346 17.1291 4.00806 17.1932 3.86742C17.2573 3.72677 17.5411 3.71224 17.8269 3.8319C18.1379 3.96256 18.4342 3.85269 18.5498 3.59955C18.7033 3.26195 18.8976 3.24288 19.2864 3.54042C19.547 3.78357 20.2343 4.23982 20.8049 4.61353ZM45.0544 15.9027C44.8747 16.2965 44.2925 16.3537 44.0582 15.9872C43.9027 15.7876 43.9931 15.6579 44.3031 15.5871C44.9104 15.4736 45.1952 15.5932 45.0544 15.9027ZM17.8342 5.51047C17.8479 5.68371 17.7312 5.80257 17.602 5.74818C17.4465 5.68291 17.3813 5.48788 17.4454 5.34723C17.5221 5.17844 17.6251 5.08763 17.6766 5.10942C17.7543 5.14211 17.8332 5.30899 17.8342 5.51047ZM47.4387 19.8862C47.0509 20.0587 46.8797 19.1486 47.2527 18.8701C47.5238 18.6822 47.6152 18.7538 47.6425 19.1676C47.6698 19.5142 47.5679 19.8064 47.4387 19.8862ZM12.5297 5.29355C12.4656 5.4342 12.2975 5.53136 12.142 5.46598C12.0127 5.4116 11.9476 5.21657 12.0117 5.07593C12.0884 4.90713 12.2691 4.84902 12.3984 4.9035C12.5539 4.96878 12.6065 5.12476 12.5297 5.29355ZM30.2821 12.7486C30.2958 12.9219 30.1802 13.0408 30.051 12.9863C29.8954 12.921 29.8292 12.726 29.8933 12.5854C29.97 12.4166 30.073 12.3259 30.1255 12.3477C30.2033 12.3802 30.281 12.5472 30.2821 12.7486ZM54.7817 25.0475C54.7176 25.1881 54.5243 25.2744 54.3687 25.2091C54.2395 25.1546 54.2511 24.9923 54.3929 24.8842C54.5474 24.7481 54.7281 24.69 54.8059 24.7227C54.8584 24.7445 54.8584 24.8788 54.7817 25.0475ZM10.4681 7.10854C10.404 7.24918 10.2358 7.34624 10.0803 7.28097C9.95107 7.22658 9.88589 7.03146 9.94999 6.89081C10.0267 6.72211 10.2075 6.664 10.3367 6.71838C10.4922 6.78366 10.5448 6.93974 10.4681 7.10854ZM53.5701 26.0802C53.3778 26.3007 53.1845 26.5213 53.1582 26.5776C53.133 26.6338 52.926 26.6139 52.719 26.5268C52.3817 26.3852 52.4069 26.2619 52.8451 25.9097C53.4892 25.3762 54.0987 25.5312 53.5701 26.0802ZM53.8265 31.4822C52.9502 32.1194 52.4447 32.075 53.0248 31.4134C53.5775 30.8081 54.6882 30.2691 54.6378 30.6501C54.6252 30.8126 54.2647 31.1973 53.8265 31.4822ZM48.2604 30.5523C48.1585 30.7774 48.0029 30.8463 47.8863 30.6967C47.7949 30.5578 47.7549 30.3065 47.8317 30.1377C47.8958 29.9971 48.0765 29.939 48.2068 29.9934C48.3623 30.0587 48.376 30.2991 48.2604 30.5523ZM28.9907 25.1407C28.7332 25.4347 28.5525 25.4257 28.46 25.1526C28.3948 24.9576 28.4968 24.5982 28.729 24.3605C28.9865 24.0665 29.1672 24.0756 29.2586 24.3486C29.3248 24.5437 29.2229 24.903 28.9907 25.1407ZM28.6596 26.4764C28.6733 26.6496 28.5577 26.7685 28.4285 26.7141C28.273 26.6488 28.2078 26.4538 28.2708 26.3131C28.3486 26.1443 28.4516 26.0536 28.5031 26.0753C28.5808 26.108 28.6596 26.275 28.6596 26.4764ZM28.8078 27.8455C28.7437 27.986 28.4085 28.0461 28.0586 27.9999C27.4113 27.9291 27.4113 27.9291 28.0575 27.7313C28.8719 27.5034 28.9623 27.5079 28.8078 27.8455ZM5.98214 19.6672C5.90543 19.836 5.78881 19.8206 5.67217 19.6709C5.58075 19.5321 5.55342 19.2526 5.61752 19.112C5.69423 18.9432 5.83713 18.9695 5.92855 19.1084C6.04519 19.258 6.04624 19.5266 5.98214 19.6672ZM30.6173 30.3139C30.631 30.4872 30.5144 30.606 30.3851 30.5517C30.2296 30.4864 30.1644 30.2913 30.2285 30.1506C30.3053 29.9819 30.4082 29.8911 30.4597 29.9129C30.5375 29.9456 30.6163 30.1125 30.6173 30.3139ZM1.92811 18.4004C1.89028 18.4847 1.72217 18.5819 1.52777 18.601C1.35964 18.6309 1.25667 18.5203 1.31972 18.3796C1.39748 18.2108 1.5908 18.1247 1.72005 18.179C1.87557 18.2443 1.95333 18.3441 1.92811 18.4004ZM1.39328 20.2532C1.18837 20.7032 0.734406 20.6135 0.693424 20.0936C0.653493 19.6409 1.20728 19.237 1.429 19.5645C1.50676 19.7315 1.49521 20.0281 1.39328 20.2532ZM27.385 30.632C27.3987 30.8053 27.2305 30.9024 27.0235 30.8153C26.7902 30.7173 26.6726 30.5005 26.7367 30.3599C26.8134 30.1912 26.9689 30.1222 27.0982 30.1765C27.2537 30.2419 27.3839 30.4306 27.385 30.632ZM5.56602 22.2068C5.47775 22.6052 5.37583 23.0316 5.29912 23.2003C5.08055 23.6114 4.86724 22.1144 5.05954 21.6925C5.34115 21.0737 5.69212 21.4556 5.56602 22.2068ZM42.1878 37.9206C41.9167 38.0413 41.7738 38.015 41.8505 37.8462C42.0302 37.4524 42.4946 37.2455 42.5871 37.5186C42.5997 37.6247 42.42 37.8171 42.1878 37.9206ZM40.1765 39.4888C40.1377 39.5731 39.9706 39.6703 39.7762 39.6893C39.6081 39.7193 39.504 39.6086 39.5681 39.468C39.6449 39.2992 39.8392 39.213 39.9685 39.2674C40.124 39.3327 40.2018 39.4325 40.1765 39.4888ZM39.4704 43.7495C39.4063 43.8902 39.2907 44.0091 39.2382 43.9873C39.1604 43.9546 39.0953 43.7596 39.0816 43.5863C39.0806 43.3849 39.1835 43.2942 39.3138 43.3486C39.4694 43.4138 39.5471 43.5808 39.4704 43.7495ZM21.4606 36.5214C21.3965 36.662 21.2799 36.7809 21.2284 36.7592C21.1506 36.7265 21.0854 36.5315 21.0717 36.3581C21.0707 36.1567 21.1737 36.0659 21.303 36.1204C21.4585 36.1857 21.5373 36.3526 21.4606 36.5214ZM34.6093 44.1877C33.9893 44.4636 33.4461 44.5708 33.3935 44.4147C33.3158 44.2478 33.651 43.9864 34.1155 43.8466C34.5547 43.6959 35.0065 43.3829 35.0959 43.1859C35.4037 42.5108 35.8567 42.4663 35.781 43.1051C35.7316 43.4862 35.3449 43.86 34.6093 44.1877ZM3.46758 33.3216C3.40348 33.4623 3.23533 33.5593 3.07981 33.494C2.95056 33.4397 2.88436 33.2446 2.94846 33.104C3.02622 32.9352 3.20698 32.8771 3.33622 32.9315C3.49174 32.9968 3.54429 33.1528 3.46758 33.3216ZM32.0832 46.2767C31.1942 47.1433 30.7161 47.3784 30.9725 46.8158C31.0881 46.5626 31.3582 46.3077 31.5263 46.2777C31.7207 46.2586 31.9781 45.9646 32.1189 45.6552C32.2597 45.3458 32.4531 45.1924 32.5571 45.3703C32.6748 45.5199 32.4825 45.8747 32.0832 46.2767ZM29.9165 47.7795C29.8524 47.9202 29.659 48.0064 29.5035 47.9412C29.3732 47.8867 29.3857 47.7243 29.5276 47.6163C29.6821 47.4802 29.8628 47.4221 29.9406 47.4547C29.9921 47.4765 29.9932 47.6108 29.9165 47.7795ZM28.2414 49.4221C27.9451 49.6661 27.675 49.854 27.6225 49.8322C27.571 49.8105 27.6866 49.5574 27.9052 49.2805C28.1238 49.0038 28.3948 48.8159 28.5504 48.8813C28.6796 48.9357 28.5388 49.1779 28.2414 49.4221ZM4.90821 40.5281C4.7012 40.5081 4.39018 40.3775 4.25988 40.256C4.11697 40.0954 4.27249 40.0935 4.63502 40.246C4.9986 40.3983 5.10261 40.509 4.90821 40.5281ZM27.4827 50.4102C27.406 50.579 27.2127 50.7324 27.0194 50.7515C26.8512 50.7814 26.5675 51.0645 26.4393 51.3458C26.3111 51.6271 26.0274 51.9102 25.8603 51.9402C25.4589 52.0065 25.9727 51.0828 26.7325 50.3632C27.1707 49.9439 27.6877 49.9601 27.4827 50.4102ZM4.86408 42.1847C4.70856 42.2538 4.56565 42.0932 4.53833 41.8138C4.44481 40.9364 4.70226 40.7096 4.93764 41.4118C5.05639 41.7629 5.01855 42.1158 4.86408 42.1847ZM5.84132 44.0365C5.96007 44.4547 5.94851 44.7514 5.81926 44.6969C5.52083 44.5382 4.99859 43.5148 5.11418 43.2617C5.2676 42.9242 5.63116 43.2779 5.84132 44.0365ZM24.7654 52.9883C24.6235 53.2977 24.3661 53.4574 24.2358 53.336C24.0676 53.2316 23.7713 53.4086 23.5654 53.7243C23.3468 54.0682 23.0631 54.2843 22.9338 54.2298C22.6228 54.0992 22.6742 53.9867 23.7177 53.0511C24.7096 52.1608 25.1626 52.1163 24.7654 52.9883ZM6.7503 47.8025C6.67359 47.9712 6.55693 47.9559 6.44029 47.8062C6.34887 47.6673 6.32155 47.388 6.38565 47.2473C6.46236 47.0785 6.60529 47.1048 6.69671 47.2436C6.81335 47.3933 6.8144 47.6619 6.7503 47.8025ZM21.5541 55.3597C21.0003 55.7635 20.6514 55.9186 20.7407 55.7218C20.933 55.2999 22.3643 54.2589 22.4431 54.493C22.4694 54.571 22.0701 54.9731 21.5541 55.3597ZM7.32403 48.8476C7.29986 49.1053 7.44276 49.4001 7.67604 49.4981C7.88305 49.5851 7.97554 49.8582 7.85995 50.1114C7.68026 50.5052 7.61617 50.5115 7.38079 50.0108C6.71563 48.6254 6.63574 48.0557 7.12751 48.2624C7.25676 48.3169 7.32298 48.579 7.32403 48.8476ZM8.29287 51.6002C8.11318 51.7926 8.10162 52.1564 8.29707 52.4059C8.46625 52.6444 8.50618 52.8958 8.35066 52.9648C8.10582 53.0963 7.52998 51.5141 7.70862 51.1203C7.76011 51.0078 7.9934 50.9715 8.22668 51.0695C8.48518 51.1782 8.51249 51.3905 8.29287 51.6002ZM8.73211 54.3647C8.74787 55.0751 8.73525 55.1032 8.51353 54.5743C8.3433 54.2685 8.29079 53.9111 8.35489 53.7704C8.54614 53.3485 8.71529 53.5871 8.73211 54.3647ZM13.2716 57.2092C13.2075 57.3498 13.0394 57.447 12.8839 57.3816C12.7546 57.3272 12.6895 57.1322 12.7536 56.9916C12.8303 56.8228 13.011 56.7646 13.1403 56.8191C13.2958 56.8844 13.3483 57.0404 13.2716 57.2092ZM9.94791 57.3214C10.0551 58.3049 9.91533 58.8157 9.52653 58.6525C9.39728 58.598 9.34472 58.3748 9.44665 58.1498C9.54963 57.9248 9.44455 57.5456 9.19761 57.3415C8.75627 56.955 8.7542 56.6192 9.2197 56.4123C9.65789 56.1945 9.84073 56.4049 9.94791 57.3214ZM20.0031 61.4769C19.4998 61.7011 19.2907 61.2783 19.7425 60.9653C19.897 60.8292 20.1292 60.8599 20.2469 61.0097C20.3509 61.1874 20.2742 61.3562 20.0031 61.4769ZM12.9753 66.5345C12.8082 66.6988 12.4846 66.7976 12.2261 66.756C11.8898 66.6816 11.8499 66.5646 12.0947 66.2987C12.5192 65.8405 13.362 66.0935 12.9753 66.5345Z" fill="#FF0090" fill-opacity="0.3"/>
</svg>
