<svg width="27" height="27" viewBox="0 0 27 27" fill="none" xmlns="http://www.w3.org/2000/svg">
<path d="M24.8906 8.85938H2.10938C1.77371 8.85938 1.45179 8.72603 1.21444 8.48868C0.977092 8.25133 0.84375 7.92941 0.84375 7.59375C0.84375 7.25809 0.977092 6.93617 1.21444 6.69882C1.45179 6.46147 1.77371 6.32813 2.10938 6.32812H24.8906C25.2263 6.32812 25.5482 6.46147 25.7856 6.69882C26.0229 6.93617 26.1562 7.25809 26.1562 7.59375C26.1562 7.92941 26.0229 8.25133 25.7856 8.48868C25.5482 8.72603 25.2263 8.85938 24.8906 8.85938Z" fill="#FF0090"/>
<path d="M20.6719 14.7656H6.32812C5.99246 14.7656 5.67054 14.6323 5.43319 14.3949C5.19584 14.1576 5.0625 13.8357 5.0625 13.5C5.0625 13.1643 5.19584 12.8424 5.43319 12.6051C5.67054 12.3677 5.99246 12.2344 6.32812 12.2344H20.6719C21.0075 12.2344 21.3295 12.3677 21.5668 12.6051C21.8042 12.8424 21.9375 13.1643 21.9375 13.5C21.9375 13.8357 21.8042 14.1576 21.5668 14.3949C21.3295 14.6323 21.0075 14.7656 20.6719 14.7656Z" fill="#FF0090"/>
<path d="M15.6094 20.6719H11.3906C11.055 20.6719 10.733 20.5385 10.4957 20.3012C10.2583 20.0638 10.125 19.7419 10.125 19.4062C10.125 19.0706 10.2583 18.7487 10.4957 18.5113C10.733 18.274 11.055 18.1406 11.3906 18.1406H15.6094C15.945 18.1406 16.267 18.274 16.5043 18.5113C16.7417 18.7487 16.875 19.0706 16.875 19.4062C16.875 19.7419 16.7417 20.0638 16.5043 20.3012C16.267 20.5385 15.945 20.6719 15.6094 20.6719Z" fill="#FF0090"/>
</svg>
