<svg width="246" height="56" viewBox="0 0 246 56" fill="none" xmlns="http://www.w3.org/2000/svg">
<path d="M37.3146 20.808C37.9986 20.808 38.9346 20.376 40.1226 19.512C40.2306 19.476 40.3026 19.404 40.4106 19.332V41.4C40.4106 43.02 41.4546 44.208 43.5426 44.892H38.1426C37.0986 44.892 36.5586 44.424 36.5586 43.452V35.496C36.5226 35.46 36.4506 35.424 36.4146 35.46C35.0466 35.928 34.0026 36.216 33.2826 36.252C33.1386 36.36 33.0306 36.54 32.9226 36.72L28.1706 44.892H23.6346L29.2146 35.172C26.6946 33.624 25.4346 31.248 25.4346 27.972C25.4346 22.464 27.9546 19.692 33.0306 19.692C34.2186 19.692 35.5146 20.052 36.9546 20.772C37.0626 20.808 37.2066 20.808 37.3146 20.808ZM29.2866 27.972C29.2866 29.196 29.5026 30.384 29.9346 31.5C30.8346 33.84 32.0946 35.028 33.7146 35.028C35.5866 35.028 36.5226 34.668 36.5226 33.912V21.96C36.5226 21.276 35.5866 20.952 33.7146 20.952C32.1306 20.952 30.9066 22.032 30.0426 24.192C29.5386 25.416 29.2866 26.676 29.2866 27.972ZM50.838 50.688V27C51.846 26.964 52.602 26.748 53.142 26.352C53.862 25.884 54.222 25.632 54.258 25.632V26.64C55.41 26.208 56.49 25.992 57.462 25.992C60.81 25.992 63.222 27.72 64.77 31.14C65.382 32.508 65.67 33.984 65.67 35.604C65.67 37.44 65.238 39.168 64.41 40.86C62.79 44.064 60.486 45.648 57.462 45.648C56.67 45.648 55.986 45.54 55.41 45.36C54.654 45.108 54.258 45 54.222 45V52.02C54.222 53.064 53.79 53.568 52.962 53.568H48.282C49.974 52.776 50.838 51.804 50.838 50.688ZM56.814 44.28C58.398 44.28 59.622 42.948 60.522 40.32C61.062 38.7 61.35 37.152 61.35 35.676C61.35 34.056 61.098 32.544 60.63 31.14C59.73 28.62 58.434 27.36 56.778 27.36C55.086 27.36 54.222 27.648 54.222 28.26V43.452C54.222 43.992 55.086 44.28 56.814 44.28ZM72.2408 42.192V26.82C73.3928 26.712 74.3288 26.316 75.0848 25.632H75.1928V35.784L83.5088 25.92H84.9848L79.9448 31.932C79.8008 32.112 79.7288 32.22 79.7288 32.256C79.7288 32.328 79.8368 32.508 80.0168 32.832L86.9648 44.892H83.6168C83.5808 44.892 83.4728 44.784 83.3648 44.532L77.6408 34.704L75.1928 37.512V43.38C75.1928 44.352 74.8328 44.82 74.0768 44.82H70.0448C71.5208 44.208 72.2408 43.308 72.2408 42.192ZM92.6266 29.376C92.6266 26.604 94.4986 25.2 98.2066 25.2C99.1786 25.2 100.007 25.344 100.727 25.632C102.491 26.388 103.391 27.432 103.391 28.8V41.76C103.391 43.02 104.327 44.064 106.235 44.892H101.447C101.051 44.892 100.691 44.604 100.295 43.992C99.0706 44.604 97.9186 44.928 96.8026 44.928C92.4466 44.928 90.2866 42.732 90.2866 38.376C90.2866 34.02 92.4466 31.86 96.8026 31.86C97.9186 31.86 98.9986 32.112 100.115 32.652V28.692C100.115 27.252 99.5026 26.532 98.2426 26.532C96.8386 26.532 96.1906 27.756 96.3346 30.24C95.1826 30.384 94.2106 30.816 93.4546 31.5H93.3826C92.8786 31.5 92.6266 30.78 92.6266 29.376ZM93.4186 38.304C93.4186 41.508 95.0026 43.128 98.1346 43.128C99.4666 43.128 100.115 42.876 100.115 42.372V34.38C100.115 33.912 99.3946 33.66 97.9906 33.66C94.9306 33.66 93.4186 35.208 93.4186 38.304ZM121.005 26.748C121.761 26.748 122.553 26.388 123.381 25.632H123.525V42.66C123.525 43.488 124.245 44.244 125.721 44.892H121.689C120.861 44.892 120.465 44.424 120.465 43.452V37.8C119.853 38.052 119.241 38.232 118.629 38.34C118.161 38.448 117.909 38.484 117.909 38.52L114.201 44.892H110.781L114.669 38.16C114.849 37.836 114.921 37.656 114.921 37.584V37.512C113.049 36.252 112.113 34.524 112.113 32.256C112.113 28.044 114.057 25.92 117.909 25.92C118.737 25.92 119.457 26.064 120.141 26.352C120.681 26.604 120.969 26.748 121.005 26.748ZM115.101 32.112C115.101 33.192 115.245 34.092 115.569 34.812C116.289 36.576 117.225 37.44 118.341 37.44C119.745 37.44 120.429 37.188 120.429 36.72V27.54C120.429 27.072 119.745 26.82 118.341 26.82C117.225 26.82 116.289 27.684 115.569 29.412C115.245 30.168 115.101 31.068 115.101 32.112ZM152.202 44.892H147.414C146.334 44.892 145.794 44.352 145.794 43.272V19.26H162.678V42.372C162.678 43.38 163.47 44.208 165.054 44.892H160.302C159.186 44.892 158.61 44.352 158.61 43.272V20.412H149.862V42.48C149.862 43.416 150.654 44.208 152.202 44.892ZM175.85 26.424H169.91V25.56H185.03V26.424H179.018V42.912C179.018 43.812 179.594 44.46 180.71 44.892H177.11C176.354 44.892 175.994 44.568 175.994 43.92V26.532L175.85 26.424ZM189.42 43.74V26.82C190.464 26.712 191.436 26.316 192.336 25.56V41.652L198.96 26.892C198.996 26.856 199.032 26.82 199.068 26.82C200.328 26.496 201.228 26.1 201.768 25.632H201.876V42.372C201.876 43.416 202.632 44.244 204.18 44.892H200.148C199.32 44.892 198.924 44.496 198.924 43.74V29.952L192.336 44.892H190.608C189.816 44.892 189.42 44.496 189.42 43.74ZM208.403 43.74V26.82C209.447 26.712 210.419 26.316 211.319 25.56V43.092C211.319 43.704 211.535 43.992 211.931 43.992H217.943V26.82C218.987 26.712 219.959 26.316 220.859 25.56V43.092C220.859 43.884 221.543 44.316 222.911 44.352V44.46C222.299 45.144 221.831 45.864 221.471 46.62C221.291 47.016 221.183 47.232 221.147 47.268V44.964H209.591C208.799 44.964 208.403 44.568 208.403 43.74ZM229.058 29.376C229.058 26.604 230.93 25.2 234.638 25.2C235.61 25.2 236.438 25.344 237.158 25.632C238.922 26.388 239.822 27.432 239.822 28.8V41.76C239.822 43.02 240.758 44.064 242.666 44.892H237.878C237.482 44.892 237.122 44.604 236.726 43.992C235.502 44.604 234.35 44.928 233.234 44.928C228.878 44.928 226.718 42.732 226.718 38.376C226.718 34.02 228.878 31.86 233.234 31.86C234.35 31.86 235.43 32.112 236.546 32.652V28.692C236.546 27.252 235.934 26.532 234.674 26.532C233.27 26.532 232.622 27.756 232.766 30.24C231.614 30.384 230.642 30.816 229.886 31.5H229.814C229.31 31.5 229.058 30.78 229.058 29.376ZM229.85 38.304C229.85 41.508 231.434 43.128 234.566 43.128C235.898 43.128 236.546 42.876 236.546 42.372V34.38C236.546 33.912 235.826 33.66 234.422 33.66C231.362 33.66 229.85 35.208 229.85 38.304Z" fill="#280000"/>
<path d="M25.0246 5.99041C24.6911 5.95128 24.3695 5.91711 24.3186 5.9101C23.5726 5.76668 23.0312 5.98701 23.3487 6.30866C23.4056 6.36393 23.4061 6.45552 23.3382 6.48684C23.2537 6.52606 23.1459 6.40278 23.0771 6.22046C22.9688 5.94454 22.8954 5.89716 22.6243 5.93101C21.8682 6.02682 21.6365 6.09328 21.6035 6.20051C21.5865 6.2694 21.4342 6.30944 21.2704 6.28348C21.0842 6.24762 20.9598 6.31527 20.9153 6.47864C20.8713 6.67246 20.8149 6.67824 20.6616 6.53519C20.4974 6.38714 20.435 6.40571 20.3345 6.63586C20.234 6.86601 20.1941 6.86394 20.1143 6.67672C20.0345 6.48951 19.8597 6.51964 19.144 6.83115C18.3939 7.15835 18.287 7.2487 18.3333 7.48211C18.3852 7.70276 18.3682 7.74115 18.2324 7.7123C18.142 7.67272 18.0177 7.64883 17.9498 7.61911C17.6217 7.53669 17.1602 7.8527 16.9983 8.28456C16.8753 8.65744 16.8193 8.69372 16.6721 8.56837C16.434 8.37294 15.9091 8.43284 15.8027 8.67578C15.7577 8.77806 15.7752 8.89231 15.8321 8.91703C15.9 8.9467 15.9059 9.056 15.8609 9.15832C15.8164 9.2606 15.7091 9.32041 15.6187 9.28083C15.5283 9.24129 15.3985 9.29119 15.3086 9.3737C15.2296 9.46117 15.0663 9.49626 14.942 9.44181C14.7723 9.36761 14.6878 9.43732 14.5364 9.78259C14.4305 10.0255 14.3974 10.2854 14.4598 10.3584C14.5621 10.4639 15.3228 10.0806 15.4233 9.85047C15.4572 9.80428 15.9137 9.53157 16.4321 9.27083C16.9561 8.99725 17.5529 8.61854 17.7557 8.43293C17.9466 8.24231 18.1723 8.12761 18.2347 8.17008C18.359 8.25502 19.6555 7.72524 19.7285 7.55902C19.801 7.39276 20.3712 7.26113 20.6029 7.34727C20.7048 7.3918 20.8176 7.38024 20.8401 7.3291C20.8626 7.27792 21.0878 7.19376 21.3195 7.15785C21.5677 7.11409 21.737 7.12725 21.709 7.19119C21.6645 7.29347 20.8415 7.66483 20.7057 7.63598C20.2368 7.53747 19.3064 7.93814 19.2793 8.24621C19.2688 8.36335 19.1389 8.4438 18.9472 8.45127C18.5067 8.44146 17.1143 9.06655 17.0079 9.30949C16.9579 9.42457 16.8281 9.50502 16.7152 9.51657C16.6078 9.51538 16.4675 9.62138 16.4115 9.74925C16.294 10.0178 15.894 10.2237 15.8366 10.0463C15.8192 9.99311 15.5604 10.1845 15.2567 10.4782C14.9645 10.7769 14.6433 10.9869 14.5754 10.9572C14.4961 10.9226 14.3777 11.008 14.3162 11.1486C14.2548 11.2893 14.1479 11.3796 14.08 11.3499C14.001 11.3153 13.9166 11.4461 13.8556 11.7088C13.7946 11.941 13.6992 12.0973 13.6427 12.0726C13.5748 12.0429 13.3771 12.0937 13.1743 12.1878C12.3458 12.5719 12.8729 11.6446 13.7629 11.1504C13.9772 11.0307 14.0221 10.9589 13.9368 10.876C13.8744 10.8031 13.8625 10.6455 13.9185 10.5177C14.0584 10.198 13.8937 9.95839 13.6739 10.1213C13.5221 10.2224 13.4822 10.1898 13.4303 9.93867C13.4014 9.75842 13.4175 9.50644 13.4675 9.39136C13.5234 9.26349 13.579 9.04403 13.59 8.89639C13.617 8.64932 13.617 8.64932 13.7482 8.96565C13.8226 9.13516 13.9189 9.25349 13.9809 9.23497C14.1556 9.14379 14.1075 8.45251 13.9152 8.39894C13.8079 8.36721 13.6382 8.293 13.5193 8.22576C13.3551 8.1388 13.3606 8.09546 13.5409 7.99148C13.7212 7.88755 13.7322 7.83146 13.6129 7.70318C13.4771 7.55228 13.4826 7.53949 13.7024 7.46807C13.8547 7.42803 13.9501 7.30223 13.9666 7.14179C13.9882 6.87702 13.8235 6.72896 13.734 6.93357C13.706 6.9975 13.6331 7.04162 13.5762 7.0169C13.5198 6.99214 13.5533 6.8544 13.6487 6.7286C13.8061 6.52317 13.7946 6.48767 13.5459 6.47042C13.3257 6.45024 13.2973 6.39209 13.3977 6.16194C13.5152 5.8934 13.3308 4.92914 13.1495 4.84998C13.1041 4.83021 13.0027 4.90777 12.9298 5.01294C12.8458 5.1437 12.7945 5.01464 12.7986 4.60506C12.7935 3.47578 12.4577 2.82625 12.081 3.19463C12.0076 3.2693 12.0301 3.21816 12.1315 3.07956C12.2774 2.86918 12.271 2.75988 12.0898 2.55863C11.959 2.42544 11.8682 2.26376 11.8961 2.19987C11.9186 2.14869 11.6915 1.86662 11.391 1.59818C10.9602 1.19654 10.8185 1.11944 10.6836 1.21268C10.5372 1.30097 10.5033 1.28611 10.5138 1.13848C10.5244 0.929745 10.2299 0.770595 10.1514 0.94965C10.1234 1.01354 10.0165 1.04285 9.9032 0.993404C9.80135 0.94887 9.7729 0.890715 9.82933 0.85439C9.89127 0.83586 9.91926 0.710878 9.90183 0.596629C9.84999 0.375974 9.38064 0.246957 9.29668 0.438763C9.2687 0.502698 9.18383 0.480867 9.11593 0.390101C9.0306 0.307223 8.83288 0.29695 8.66956 0.362582C8.50623 0.428169 8.30849 0.417895 8.22912 0.322222C8.11534 0.211688 7.99697 0.236042 7.83961 0.41097L7.59233 0.668362L7.64188 0.33965C7.67491 0.171373 7.67445 0.0187811 7.66298 0.0138277C7.51571 -0.0505204 6.9404 0.124499 6.87893 0.23462C6.69954 0.582733 6.6376 0.631854 6.35545 0.660749C6.08431 0.694643 6.0733 0.689689 6.2926 0.496186C6.42197 0.385239 6.50638 0.254479 6.47198 0.209119C6.36967 0.0424924 5.33237 0.472428 5.35577 0.665473C5.35623 0.757018 5.2663 0.839528 5.15894 0.83829C5.03461 0.84494 4.87726 0.989324 4.78779 1.19388C4.60336 1.61588 4.30974 1.73141 4.27487 1.41137C4.26294 1.28432 4.1955 1.40724 4.11246 1.72114C3.97896 2.21111 3.95648 2.23175 3.75783 2.03834C3.6046 1.89524 3.53119 1.90886 3.4532 2.08792C3.39172 2.22854 3.26234 2.37003 3.14398 2.42493C2.99166 2.49547 2.96369 2.58991 3.0325 2.83327C3.14169 3.23123 3.0802 3.4024 2.89853 3.20119C2.70584 2.99498 2.43608 3.30356 2.51086 3.62567C2.55123 3.84137 2.51775 3.91806 2.28102 4.02781C2.1232 4.11115 1.91537 4.3706 1.81994 4.588C1.68047 4.90768 1.68643 5.01697 1.86719 5.09614C1.99198 5.15053 2.07136 5.24621 2.03786 5.32294C2.00988 5.38687 1.90252 5.41618 1.80068 5.37165C1.65387 5.30734 1.59192 5.38692 1.50842 5.70082C1.46438 5.92519 1.37997 6.08649 1.33501 6.06668C1.13681 5.93431 1.06341 5.97848 1.10975 6.21193C1.15562 6.38429 1.12764 6.44823 1.03726 6.40865C0.822094 6.31467 0.722075 6.75845 0.931738 6.92627C1.03955 7.01906 1.08544 7.19146 1.02946 7.31933C0.956977 7.48555 0.866593 7.50701 0.730335 7.38662C0.526636 7.206 0.352293 7.38873 0.50002 7.63617C0.550945 7.70423 0.500947 7.88035 0.39451 8.03175C0.158696 8.35514 0.0545449 9.14746 0.191721 9.60358C0.243563 9.79373 0.222009 10.028 0.137593 10.1282C0.047672 10.2412 0.048581 10.4854 0.140337 10.7386C0.243104 11.0274 0.233017 11.2971 0.109605 11.5784C-0.0973051 12.0515 0.000409772 12.4445 0.304582 12.3034C0.575263 12.178 0.632614 12.4164 0.362391 12.5723C0.21604 12.6606 0.171077 12.7324 0.233471 12.8359C0.284855 12.904 0.268343 13.0033 0.206408 13.0524C0.0206011 13.1997 0.153642 15.3906 0.357799 15.5407C0.878975 15.9209 0.983577 16.6979 0.555534 16.9677C0.460107 17.0325 0.420649 17.122 0.472032 17.19C0.505982 17.2659 0.652799 17.2387 0.759695 17.1483C0.945501 17.001 0.934486 17.0571 0.755103 17.4053C0.575719 17.7534 0.582139 17.8932 0.740878 18.0846C0.860161 18.2128 0.912012 18.464 0.884485 18.6195C0.834936 18.8872 1.04689 19.6654 1.19416 19.7297C1.32996 19.7891 1.44053 19.2587 1.32721 19.1177C1.16801 18.9568 1.23499 18.6813 1.41575 18.7605C1.69882 18.8841 1.75204 19.5015 1.51072 19.8988C1.29234 20.2448 1.29279 20.3669 1.52035 20.8321C1.77681 21.386 2.00896 21.5027 1.90528 21.0309C1.80756 20.6073 1.99978 20.6609 2.20485 21.1162C2.38745 21.5006 2.38745 21.5311 2.11081 21.6082C1.91353 21.659 1.8516 21.7386 1.89748 21.8805C1.94336 22.0224 1.99977 22.0471 2.0897 21.9646C2.29248 21.8095 2.46223 21.9142 2.36726 22.1316C2.3223 22.2339 2.35121 22.3836 2.43654 22.4665C2.52738 22.5671 2.51086 22.697 2.39296 22.8435C2.2466 23.0233 2.25854 23.0893 2.4393 23.1685C2.59758 23.2377 2.64345 23.3491 2.5705 23.5153C2.48654 23.7071 2.52647 23.7702 2.73017 23.7982C2.96139 23.8233 2.97286 23.8588 2.79898 24.072C2.65859 24.2391 2.65859 24.3307 2.79439 24.3901C2.88523 24.4296 2.95359 24.6119 2.93753 24.8029C2.90496 25.1848 3.09352 25.709 3.18298 25.5044C3.21693 25.4277 3.18252 25.3213 3.13114 25.2532C3.04076 25.1526 3.05727 25.1143 3.21509 25.0309C3.38988 24.9397 3.41833 24.9979 3.39723 25.3237C3.3697 25.5403 3.33667 25.7696 3.30868 25.8335C3.19674 26.0893 3.53257 26.7083 3.81518 26.7404C4.04136 26.7783 4.10375 26.8818 4.10559 27.2786C4.11384 27.9677 4.28129 28.8483 4.41709 28.9077C4.48499 28.9374 4.55795 28.8017 4.60245 28.6078C4.68503 28.1718 4.9002 28.2353 4.83414 28.6634C4.80661 28.8494 4.84193 29.2 4.91625 29.4611C4.99654 29.7094 4.99196 29.9663 4.91305 30.0233C4.84561 30.0851 4.83459 30.2023 4.91396 30.2674C4.99333 30.3631 4.9603 30.5314 4.81441 30.7723C4.62402 31.0849 4.62401 31.146 4.82175 31.1868C4.95755 31.2156 5.09839 31.1401 5.14335 31.0378C5.27181 30.7437 5.68884 30.53 5.92649 30.6339C6.0733 30.6982 6.08522 30.7947 5.96181 30.9539C5.86638 31.0798 5.84988 31.2097 5.91778 31.2394C6.09854 31.3185 6.34581 31.0306 6.36738 30.7048C6.39353 30.2441 6.75183 29.4562 6.99407 29.3032C7.23034 29.1629 7.23034 29.1629 7.15235 29.3724C7.0349 29.6409 7.13125 29.6983 7.50332 29.5869C7.83594 29.4733 7.9199 29.3121 7.63775 29.3105C7.47396 29.3151 7.45699 29.2619 7.5804 29.1331C7.65931 29.0457 7.74923 28.9326 7.76574 28.8943C7.78272 28.856 7.83363 28.924 7.89052 29.0403C7.96484 29.2098 8.02129 29.2345 8.12268 29.157C8.30849 29.0097 8.22865 28.7919 7.90567 28.5746L7.63958 28.4126L8.07404 28.3437C8.32224 28.2999 8.61588 28.2759 8.7402 28.2693C8.87004 28.2804 9.14024 28.0634 9.34807 27.8039C9.55039 27.5573 9.7752 27.3205 9.8486 27.3068C9.93898 27.2854 10.0119 27.1497 10.017 27.0148C10.0275 26.8672 10.1569 26.7257 10.3487 26.6572C10.7208 26.5152 11.1139 26.0474 10.9442 25.9732C10.8763 25.9436 10.8478 25.8549 10.8758 25.791C10.9093 25.7142 11.0336 25.7076 11.158 25.762C11.3167 25.8313 11.4236 25.7715 11.5131 25.5669C11.586 25.4007 11.7434 25.2258 11.8617 25.1709C12.0306 25.0925 12.0416 25.0058 11.9049 24.7634C11.7117 24.4046 11.7948 24.0602 12.0549 24.174C12.1457 24.2135 12.2751 24.1331 12.3366 23.9924C12.3981 23.8518 12.5049 23.7614 12.5618 23.7862C12.6297 23.8158 12.7252 23.7206 12.7867 23.5799C12.8481 23.4393 12.9945 23.3205 13.1018 23.3217C13.2147 23.3101 13.35 23.2169 13.406 23.089C13.529 22.8077 13.7827 22.7206 13.8005 22.9569C13.8125 23.084 13.8859 23.1009 14.0437 23.0481C14.2185 22.9874 14.3194 22.8183 14.4309 22.4405C14.5479 21.9888 14.5984 21.9348 14.7796 22.014C15.0847 22.1475 15.4957 21.794 15.4829 21.3923C15.4756 21.0388 15.6779 20.8532 15.7077 21.186C15.7485 21.5238 16.0532 21.3827 16.1302 20.99C16.1747 20.7657 16.2422 20.6732 16.3101 20.7335C16.378 20.7936 16.7047 20.6014 17.0483 20.3097L17.6617 19.8011L17.4965 19.5004C17.3428 19.2353 17.3543 19.2097 17.6135 19.0793C17.9856 18.9069 18.076 18.9769 17.8511 19.2443C17.7557 19.3701 17.7167 19.4901 17.7846 19.5198C17.9658 19.599 18.2971 19.1192 18.1888 18.9349C18.1319 18.8491 18.1599 18.7241 18.2384 18.6672C18.3453 18.5769 18.4021 18.6016 18.4705 18.7534C18.5957 19.0519 18.8265 18.8329 18.8137 18.4312C18.7948 18.0422 19.1949 17.7753 19.6863 17.8532C20.0313 17.8972 20.1267 17.7714 19.9955 17.4551C19.9156 17.2679 19.9716 17.1706 20.3373 16.8277C20.568 16.6087 20.7983 16.3591 20.8373 16.2696C20.8823 16.1673 20.9332 16.1743 20.9846 16.3339C21.0644 16.4907 21.1718 16.4919 21.4984 16.3301C21.7801 16.1791 21.8815 16.071 21.8077 15.9931C21.6659 15.855 21.8448 15.3542 22.0031 15.4235C22.0595 15.4483 22.0939 15.5547 22.0944 15.6462C22.0779 15.7456 22.2752 15.6338 22.5339 15.4118C22.7982 15.1771 23.1248 14.9238 23.2712 14.866C23.412 14.7906 23.8345 14.4725 24.1832 14.1375C24.6952 13.6759 24.8076 13.5118 24.6943 13.4318C24.5356 13.3015 24.6916 12.8519 24.9118 12.811C24.9966 12.8023 25.0191 12.8732 24.9691 12.9883C24.9187 13.1034 24.9531 13.2098 25.049 13.2061C25.2467 13.2163 25.711 12.1245 25.5577 11.9814C25.4898 11.9213 25.5908 11.8132 25.8165 11.729C26.0757 11.6291 26.1546 11.5417 26.0808 11.4638C25.939 11.3256 26.017 11.0856 26.1643 11.1499C26.2207 11.1746 26.2611 11.3292 26.2335 11.4848C26.1895 11.8312 26.3652 11.9537 26.4936 11.6596C26.5386 11.5573 26.6905 11.3646 26.8368 11.2459C26.9832 11.127 27.1965 10.8243 27.3309 10.5784C27.5213 10.2047 27.5209 10.0826 27.3392 9.85088C27.1915 9.66449 27.1626 9.51478 27.264 9.40668C27.3484 9.30647 27.3809 9.0466 27.3346 8.81315C27.2887 8.57974 27.2874 8.30506 27.3268 8.21553C27.3658 8.12605 27.3144 7.96644 27.2066 7.87366C27.1048 7.76807 27.0758 7.64887 27.1378 7.5998C27.2052 7.53793 27.2043 7.32429 27.13 7.12423C27.0158 6.8306 26.9084 6.73782 26.4955 6.63357C26.2129 6.57091 25.9193 6.56436 25.8349 6.63407C25.7335 6.71163 25.722 6.64563 25.806 6.45387C25.9459 6.13419 25.8835 6.09172 25.0246 5.99041ZM24.5746 6.34187C24.5805 6.42066 24.5296 6.47469 24.4732 6.44997C24.4053 6.42025 24.3768 6.33159 24.4048 6.26766C24.4383 6.19093 24.4833 6.14969 24.5057 6.1596C24.5397 6.17441 24.5741 6.25032 24.5746 6.34187ZM26.7134 7.3685C26.6625 7.39199 26.5551 7.36025 26.4928 7.28728C26.4189 7.20935 26.4698 7.18582 26.5941 7.24022C26.724 7.28186 26.7753 7.34993 26.7134 7.3685ZM24.2961 7.2864C24.2342 7.33553 24.1268 7.36483 24.0589 7.33511C24.0025 7.31039 23.985 7.22669 24.013 7.16275C24.0465 7.08602 24.1484 7.06951 24.2502 7.11404C24.3406 7.15363 24.3635 7.22453 24.2961 7.2864ZM7.21888 0.566176C7.05693 0.936992 6.8647 0.913922 6.98766 0.541042C7.04867 0.369875 7.15557 0.248976 7.21246 0.273743C7.2799 0.303417 7.27485 0.438305 7.21888 0.566176ZM22.884 7.27842C22.5848 7.34571 22.438 7.28136 22.6013 7.15473C22.6688 7.09285 22.8156 7.09611 22.9175 7.14065C23.0872 7.21485 23.0757 7.24045 22.884 7.27842ZM9.08337 2.09723C9.61555 2.45185 9.89311 2.61885 10.289 2.82249C10.4872 2.92435 10.5611 3.06332 10.534 3.24935C10.5005 3.41763 10.5804 3.57435 10.7162 3.6337C10.852 3.69309 11.0451 4.02134 11.1483 4.37106C11.2685 4.74348 11.4222 5.00867 11.5406 5.01482C11.6649 5.00821 11.7278 5.17278 11.7122 5.4553C11.7016 5.69453 11.731 5.90528 11.776 5.92505C11.9457 5.99926 12.0558 6.61091 11.9608 6.91985C11.8269 7.31828 11.9645 7.83545 12.1792 7.83788C12.2751 7.83417 12.3829 7.95745 12.4118 8.1072C12.4692 8.34556 12.4357 8.39179 12.2554 8.43467C12.0746 8.4776 12.0691 8.52094 12.1884 8.71023C12.3251 8.92217 12.1861 9.45548 12.0164 9.38127C11.9709 9.36151 11.9306 9.11526 11.9182 8.83567C11.8998 8.56878 11.8301 8.08128 11.7553 7.75918C11.6635 7.44491 11.6172 7.15046 11.6397 7.09932C11.6787 7.00979 11.341 5.87194 11.0671 5.17328C10.9299 4.8087 10.8731 4.75348 10.7157 4.86732C10.2542 5.21387 10.4147 5.89354 10.974 5.94005C11.2057 5.96518 11.2227 5.98784 11.0483 6.07902C10.879 6.1574 10.857 6.23908 10.9199 6.49519C10.9657 6.6676 11.091 6.84409 11.2153 6.89853C11.3286 6.94801 11.3965 7.03874 11.363 7.11542C11.3351 7.17936 11.2617 7.22352 11.1942 7.19385C11.1373 7.16908 11.0584 7.1955 11.0249 7.27223C10.9969 7.33617 11.0708 7.44464 11.1951 7.49903C11.3199 7.55347 11.3878 7.67469 11.3433 7.77702C11.3039 7.8665 11.3667 8.03106 11.486 8.1288C11.6388 8.2719 11.6507 8.33785 11.5039 8.42614C11.3575 8.51443 11.3589 8.81966 11.5149 9.69526C11.6305 10.3246 11.6668 10.8583 11.5878 10.8847C11.441 10.912 11.1906 11.7621 11.3149 11.8165C11.3603 11.8363 11.4787 11.8119 11.597 11.757C11.6984 11.71 11.8172 11.7162 11.8397 11.7871C11.8627 11.8581 11.7952 11.9504 11.6938 11.9975C11.5585 12.0602 11.514 12.193 11.5209 12.4854C11.5232 13.0043 11.4787 13.1371 11.3084 13.0018C11.2405 12.9417 11.1502 12.9326 11.1162 12.9788C10.8075 13.3768 11.119 13.5587 11.5525 13.2456C11.9127 13.0071 11.8516 13.2393 11.391 13.83C11.1832 14.0895 11.1217 14.2606 11.1731 14.3592C11.224 14.4273 11.1795 14.6211 11.0841 14.7774C10.9667 14.9849 10.8653 15.032 10.718 14.9371C10.5648 14.8245 10.5088 14.8609 10.4703 15.103C10.4368 15.2713 10.2404 15.5662 10.0436 15.7695C9.65548 16.133 9.43526 16.0823 9.72704 15.6921C9.82798 15.5535 9.83899 15.4363 9.74861 15.3967C9.64676 15.3522 9.68024 15.306 9.85504 15.2454C10.0977 15.1839 11.1483 13.8915 11.0969 13.7319C11.091 13.6837 10.9951 13.6569 10.8877 13.6556C10.7689 13.6495 10.6625 13.8008 10.5845 14.0714C10.4785 14.4365 10.4391 14.4649 10.3033 14.314C10.1615 14.1759 10.1221 14.2043 10.0555 14.5104C10.0225 14.7091 9.93807 14.8704 9.85916 14.8663C9.53159 14.8449 8.74385 16.9531 8.85946 17.5519C8.8769 17.6967 8.83196 17.7685 8.70212 17.7574C8.59477 17.7561 8.42639 17.9566 8.29747 18.2507C8.07358 18.7317 8.06807 18.7445 8.46996 18.9048C8.72412 19.0009 8.8659 19.139 8.85535 19.2561C8.81131 19.5721 9.03978 20.1288 9.18613 20.1016C9.4403 20.045 9.43937 19.8619 9.20081 19.5444C8.95123 19.2219 8.98426 19.0231 9.46139 18.333C9.68023 18.0175 9.75365 17.9733 9.80503 18.1329C9.85091 18.2748 9.92431 18.3222 10.0821 18.2693C10.2459 18.2038 10.2744 18.2314 10.2069 18.3848C10.1624 18.4871 10.0441 18.5725 9.95918 18.5812C9.8688 18.5721 9.81283 18.639 9.83026 18.7227C9.8587 18.8114 10.0335 18.7812 10.2477 18.6616C10.5404 18.485 10.5854 18.4132 10.5115 18.2437C10.4257 18.0693 10.6322 17.4741 11.0864 16.6215C11.2433 16.3245 11.5085 16.3339 11.3745 16.6408C11.2511 16.9221 11.4773 16.96 11.6851 16.7005C11.809 16.5413 11.8136 16.3454 11.6879 16.0163C11.5053 15.5709 11.5053 15.5709 11.7714 15.6719C11.9861 15.7659 12.0425 15.7296 12.0755 15.5003C12.1136 15.1971 12.3338 15.1868 12.3577 15.4714C12.3815 15.7254 12.6352 15.6078 12.7862 15.2626C12.9261 14.9429 12.8009 14.7664 12.593 14.9954C12.5141 15.0828 12.4916 15.0424 12.5531 14.9017C12.5921 14.7817 12.716 14.714 12.8064 14.7536C13.0101 14.8427 13.1225 14.648 12.9747 14.4616C12.8784 14.3738 12.9179 14.3148 13.0982 14.2413C13.4987 14.0965 14.0556 13.6242 14.0437 13.4666C14.0318 13.3701 13.9639 13.3099 13.8905 13.3235C13.5184 13.4044 13.935 13.1297 14.6732 12.7975C15.4852 12.4517 15.8394 12.0735 15.6178 11.8091C15.5554 11.7361 15.6008 11.7559 15.7311 11.8586C15.9123 11.9988 16.0082 11.9951 16.1431 11.8103C16.244 11.6717 16.3624 11.5863 16.3963 11.6011C16.5661 11.6753 17.5511 10.8416 17.5896 10.5995C17.6172 10.4135 17.6731 10.3772 17.8149 10.4543C17.9677 10.5363 18.0351 10.4745 18.1186 10.2216C18.1966 9.98155 18.242 9.94032 18.2934 10.0999C18.3847 10.3836 18.7068 10.3568 18.8352 10.0627C18.8912 9.93481 18.9866 9.83955 19.0545 9.86923C19.1114 9.89395 19.2523 9.78795 19.3702 9.64151C19.4821 9.47731 19.6569 9.35563 19.7643 9.35683C19.8716 9.35806 19.9895 9.27267 20.04 9.15759C20.135 8.94019 20.3442 8.98597 20.3111 9.21529C20.3006 9.33243 20.3799 9.36705 20.6167 9.31835C20.8369 9.27748 20.9548 9.16153 20.9933 8.94996C21.0433 8.71279 21.1392 8.61749 21.3929 8.59148C21.6921 8.5547 21.7035 8.55965 21.4668 8.69995C21.2695 8.81173 21.2305 8.90125 21.2764 9.04311C21.3278 9.20272 21.548 9.16186 22.1903 8.83347C22.6578 8.59621 23.1147 8.44559 23.2166 8.49012C23.3184 8.53466 23.4258 8.50535 23.4538 8.44141C23.4873 8.36468 23.5662 8.33827 23.6226 8.36303C23.6905 8.39271 23.6969 8.502 23.6465 8.61707C23.585 8.75774 23.6244 8.82081 23.7713 8.82411C23.8901 8.83025 24.0539 8.85621 24.1447 8.89579C24.2351 8.93538 24.342 8.87557 24.3869 8.77324C24.4314 8.67097 24.5273 8.60621 24.5838 8.63093C24.6517 8.6606 24.6746 8.73155 24.6411 8.80829C24.6131 8.87222 24.687 8.98064 24.8003 9.03013C25.1054 9.16374 25.321 9.41031 25.254 9.56377C25.2261 9.6277 25.1641 9.61573 25.1072 9.52997C25.0558 9.4314 25.0054 9.48543 24.9609 9.6793C24.9278 9.87808 24.8494 9.96554 24.7136 9.93669C24.5383 9.90578 24.5273 9.93137 24.6241 10.2023C24.693 10.4457 24.6709 10.5578 24.4796 10.7179C24.2154 10.9526 24.0796 10.9543 24.2874 10.7254C24.3608 10.6507 24.3544 10.5109 24.2809 10.433C24.1841 10.3146 24.0997 10.3538 24.0268 10.52C23.9708 10.6479 23.7066 10.9132 23.4533 11.0917C23.2001 11.2704 22.8629 11.6408 22.7 11.8896C22.5431 12.156 22.3178 12.3623 22.205 12.3739C22.0862 12.3677 21.9348 12.5298 21.8393 12.7472C21.7219 13.0157 21.5136 13.1836 21.1076 13.3412C20.5212 13.5723 20.246 13.8936 20.54 14.0223C20.6309 14.0619 20.6878 14.1476 20.6538 14.2244C20.6258 14.2883 20.519 14.3176 20.4286 14.278C20.3267 14.2335 20.1854 14.2785 20.107 14.3659C20.0171 14.4484 19.8872 14.4983 19.8193 14.4687C19.7399 14.434 19.5092 14.5615 19.3119 14.7344C19.0981 14.915 18.6875 15.2686 18.3778 15.514C17.9612 15.8498 17.7369 16.1476 17.485 16.6926C17.1097 17.4882 16.7157 17.7424 16.3642 17.4364C16.2394 17.3209 16.183 17.3267 16.178 17.4616C16.1559 17.5738 16.2183 17.6773 16.3087 17.6863C16.3821 17.7032 16.4051 17.7741 16.3321 17.8488C16.2702 17.9284 16.1403 17.9478 16.05 17.8777C15.8742 17.7553 15.2939 18.0957 15.3173 18.3192C15.3233 18.3979 15.1264 18.5708 14.8897 18.6806C14.3488 18.9619 13.9332 19.5114 14.1823 19.6202C14.3405 19.6895 14.4584 19.5736 14.5759 19.2135C14.5979 19.1318 14.6993 19.0848 14.8012 19.1293C14.937 19.1887 14.926 19.2753 14.7521 19.5191C14.4543 19.9221 14.1501 20.0632 13.8671 19.9395C13.5955 19.8208 13.3477 19.9561 13.039 20.3847C12.8871 20.5773 12.8541 20.7151 12.933 20.7497C13.0917 20.819 12.8958 21.2665 12.6031 21.5346C12.4343 21.6741 12.31 21.6807 12.1342 21.5277C11.987 21.4024 11.8627 21.3785 11.8237 21.468C11.7902 21.5447 11.8186 21.6334 11.8751 21.6581C12.0563 21.7373 11.8434 22.1011 11.6172 22.0937C11.5044 22.1052 11.3525 22.2369 11.274 22.4159C11.1621 22.6716 11.1002 22.6901 10.9469 22.5471C10.8166 22.4139 10.7322 22.4226 10.6703 22.5632C10.6203 22.6783 10.6262 22.7876 10.6941 22.8173C10.7506 22.842 10.7341 22.9414 10.6556 23.0289C10.5652 23.1114 10.4358 23.1613 10.3455 23.1217C10.1642 23.0426 10.0408 23.2323 10.1601 23.4216C10.2684 23.6059 9.96974 23.8563 9.82247 23.7005C9.73164 23.5998 9.6527 23.6568 9.55223 23.8869C9.47378 24.0659 9.32193 24.1975 9.20907 24.2091C8.9549 24.2046 8.80396 24.5499 8.99664 24.695C9.09849 24.7701 9.08749 24.8567 8.95811 24.9371C8.81176 25.0559 8.76634 25.0361 8.67505 24.8439C8.61816 24.6971 8.5443 24.6497 8.51081 24.7264C8.47732 24.8032 8.50623 24.9223 8.57413 24.9825C8.64799 25.0605 8.53513 25.1636 8.24197 25.2792C7.70657 25.4867 7.25741 26.1129 7.47854 26.3467C7.67719 26.5706 8.03781 26.4237 8.20022 26.0529C8.28417 25.8611 8.40252 25.7757 8.50437 25.8202C8.59475 25.8598 8.63467 25.984 8.58421 26.099C8.44474 26.4187 7.69508 26.868 7.55929 26.7171C7.48542 26.6391 7.28219 26.7027 7.07436 26.8706C6.87709 27.0434 6.64586 27.1404 6.57796 27.1107C6.49905 27.076 6.38619 27.1181 6.31875 27.18C6.25131 27.2724 6.17791 27.2555 6.149 27.1669C6.12056 27.0782 6.16552 27.0064 6.26737 27.0204C6.49309 27.0278 6.62155 26.6727 6.41785 26.5836C6.32747 26.5441 6.28709 26.4199 6.33205 26.3176C6.37701 26.2153 6.37059 26.106 6.30269 26.0763C6.15588 26.012 6.08293 26.1782 6.14625 26.4039C6.18616 26.4975 6.08522 26.6666 5.91043 26.8188C5.61773 27.0564 5.6237 27.0436 5.88612 26.4122C6.1435 25.8239 6.14304 25.7018 5.94301 25.1422C5.8118 24.7954 5.66957 24.5046 5.61269 24.4799C5.56772 24.4601 5.52734 24.2749 5.52643 24.0613C5.52551 23.8171 5.42871 23.6377 5.26447 23.5812C5.07224 23.4971 5.0493 23.4262 5.1672 23.2797C5.30209 23.1255 5.25667 23.0141 4.95617 22.7457C4.7355 22.5729 4.45242 22.4187 4.31662 22.4204C4.14183 22.42 4.1189 22.3795 4.24277 22.2509C4.33269 22.1378 4.3258 21.876 4.2056 21.534C3.87986 20.5843 3.85647 20.4218 4.07669 20.3809C4.39829 20.3235 4.2212 19.8348 3.82527 19.6616C3.54221 19.538 3.52523 19.4848 3.67709 19.2921C3.92988 18.9914 3.77572 18.5736 3.40273 18.5019C3.13709 18.4619 3.13114 18.4442 3.36833 18.3955C3.71241 18.3175 3.7849 18.1207 3.50229 17.997C3.3775 17.9426 3.3096 17.8214 3.3486 17.7319C3.45504 17.489 2.95038 15.6842 2.79255 15.737C2.71915 15.7811 2.70309 15.9416 2.74897 16.114C2.84073 16.4587 2.81871 16.632 2.6719 16.5677C2.61501 16.5429 2.57464 16.2967 2.57922 16.0092C2.5884 15.5259 2.60491 15.4875 2.82512 15.4771C3.00588 15.4648 2.99442 15.4293 2.7508 15.2466C2.47921 15.0363 2.46728 14.9703 2.67465 14.5277C2.88156 14.0852 2.87009 14.0497 2.61042 13.9969C2.45214 13.9582 2.33882 13.8782 2.3668 13.8143C2.40029 13.7375 2.3824 13.5012 2.34157 13.255C2.27826 12.9683 2.30579 12.8129 2.41911 12.8013C2.68979 12.7369 2.80586 12.1326 2.55674 12.0238C2.43241 11.9694 2.35305 11.8432 2.35809 11.7389C2.3691 11.6522 2.43654 11.5903 2.51545 11.625C2.59482 11.6596 2.62832 11.5524 2.59345 11.3239C2.55858 11.1259 2.57463 10.8739 2.61362 10.7844C2.77053 10.4264 2.83064 8.62483 2.70448 8.17361C2.58427 7.70964 2.67373 7.50504 2.95634 7.62874C3.03571 7.66337 3.1426 7.60356 3.18756 7.50128C3.24353 7.40391 3.33346 7.26035 3.37246 7.20137C3.58625 6.92912 3.96061 6.01137 3.88124 5.97674C3.83628 5.95697 3.75187 6.02668 3.70691 6.12896C3.66241 6.23129 3.57799 6.301 3.51009 6.27128C3.30639 6.18226 3.53074 5.88441 3.94227 5.68348C4.20148 5.55313 4.52767 5.20828 4.87543 4.65964C5.18419 4.20054 5.6058 3.69933 5.81959 3.54917C6.3715 3.15065 7.03124 2.87546 7.24044 2.95173C7.60793 3.06672 8.0878 3.0481 8.31307 2.90284C8.45942 2.8146 8.51586 2.80877 8.48236 2.91605C8.39841 3.10781 8.79478 3.3115 8.97508 3.17702C9.17741 3.02191 9.29118 3.13244 9.23567 3.4434C9.18061 3.72387 9.49213 3.99727 9.59857 3.75432C9.70501 3.51138 9.89221 3.73038 9.85963 4.08175C9.83807 4.34657 9.89496 4.43234 10.1381 4.49292C10.4377 4.54773 10.7698 4.34267 10.662 4.15834C10.0592 3.19417 9.59949 2.67334 9.21503 2.53565C8.96637 2.45731 8.73973 2.32784 8.69431 2.24702C8.56906 2.03999 7.74418 1.89249 7.51296 2.01995C7.40056 2.09255 7.18585 2.09012 7.03858 2.02582C6.90324 1.96647 6.72202 1.94835 6.65458 2.01023C6.59264 2.0593 6.47427 2.08365 6.40637 2.05398C6.16872 1.9501 6.72707 1.75242 7.08859 1.8192C7.29229 1.84718 7.47854 1.822 7.50653 1.75806C7.53452 1.69413 7.6584 1.68752 7.78319 1.74192C7.91899 1.80131 8.04836 1.75136 8.09882 1.63629C8.16581 1.48283 8.25068 1.47416 8.42042 1.60941C8.5342 1.71995 8.83425 1.92735 9.08337 2.09723ZM19.6706 7.22907C19.5922 7.40808 19.338 7.43409 19.2357 7.26751C19.1678 7.17679 19.2073 7.11781 19.3426 7.08561C19.6078 7.03401 19.7321 7.08841 19.6706 7.22907ZM7.78638 2.50497C7.79234 2.58372 7.74143 2.63775 7.685 2.61302C7.6171 2.58335 7.58865 2.49469 7.61663 2.43076C7.65012 2.35403 7.69509 2.31275 7.71757 2.32265C7.75152 2.33751 7.78592 2.41337 7.78638 2.50497ZM20.7116 9.0399C20.5424 9.11833 20.4676 8.70463 20.6304 8.578C20.7488 8.4926 20.7887 8.52516 20.8006 8.71325C20.8126 8.8708 20.7681 9.00362 20.7116 9.0399ZM5.47046 2.40636C5.44248 2.47029 5.36906 2.51446 5.30117 2.48474C5.24473 2.46002 5.21629 2.37136 5.24428 2.30743C5.27777 2.2307 5.35669 2.20428 5.41312 2.22905C5.48102 2.25872 5.50395 2.32963 5.47046 2.40636ZM13.2211 5.7953C13.2271 5.87409 13.1766 5.92812 13.1202 5.90336C13.0523 5.87368 13.0234 5.78502 13.0514 5.72109C13.0849 5.64436 13.1298 5.60312 13.1528 5.61303C13.1867 5.62784 13.2206 5.70375 13.2211 5.7953ZM23.9176 11.3862C23.8896 11.4501 23.8052 11.4893 23.7373 11.4596C23.6809 11.4349 23.6859 11.3611 23.7478 11.3119C23.8153 11.2501 23.8942 11.2237 23.9282 11.2385C23.9511 11.2484 23.9511 11.3095 23.9176 11.3862ZM4.57033 3.23142C4.54235 3.29535 4.46895 3.33947 4.40105 3.3098C4.34462 3.28508 4.31616 3.19638 4.34415 3.13244C4.37764 3.05576 4.45655 3.02934 4.51298 3.05406C4.58088 3.08373 4.60382 3.15469 4.57033 3.23142ZM23.3886 11.8556C23.3047 11.9558 23.2203 12.0561 23.2088 12.0817C23.1978 12.1072 23.1074 12.0982 23.017 12.0586C22.8697 11.9943 22.8807 11.9382 23.0721 11.7781C23.3533 11.5356 23.6194 11.606 23.3886 11.8556ZM23.5006 14.3113C23.1179 14.6009 22.8973 14.5807 23.1505 14.28C23.3918 14.0048 23.8768 13.7598 23.8548 13.933C23.8493 14.0069 23.6919 14.1817 23.5006 14.3113ZM21.0704 13.8885C21.0259 13.9909 20.958 14.0222 20.9071 13.9542C20.8672 13.8911 20.8497 13.7768 20.8832 13.7001C20.9112 13.6361 20.9901 13.6098 21.047 13.6345C21.1149 13.6642 21.1209 13.7735 21.0704 13.8885ZM12.6573 11.4285C12.5449 11.5622 12.4659 11.5581 12.4256 11.4339C12.3971 11.3453 12.4417 11.1819 12.543 11.0739C12.6554 10.9402 12.7343 10.9443 12.7743 11.0684C12.8032 11.1572 12.7587 11.3205 12.6573 11.4285ZM12.5127 12.0357C12.5187 12.1144 12.4683 12.1685 12.4118 12.1437C12.3439 12.1141 12.3155 12.0254 12.343 11.9615C12.3769 11.8847 12.4219 11.8435 12.4444 11.8534C12.4783 11.8682 12.5127 11.9441 12.5127 12.0357ZM12.5774 12.6581C12.5494 12.722 12.4031 12.7493 12.2503 12.7282C11.9677 12.6961 11.9677 12.6961 12.2499 12.6062C12.6054 12.5025 12.6449 12.5046 12.5774 12.6581ZM2.61179 8.94038C2.5783 9.01711 2.52738 9.01009 2.47646 8.94203C2.43654 8.87896 2.42461 8.75192 2.4526 8.68798C2.48609 8.61125 2.54848 8.62322 2.58839 8.68633C2.63932 8.75435 2.63978 8.87644 2.61179 8.94038ZM13.3675 13.7802C13.3734 13.8589 13.3225 13.913 13.2661 13.8883C13.1982 13.8586 13.1697 13.7699 13.1977 13.7059C13.2312 13.6293 13.2762 13.588 13.2986 13.5979C13.3326 13.6127 13.367 13.6886 13.3675 13.7802ZM0.84181 8.3645C0.825294 8.40284 0.751897 8.44701 0.667023 8.45568C0.593618 8.4693 0.548658 8.41899 0.576185 8.35505C0.610135 8.27832 0.694542 8.23915 0.750972 8.26387C0.818872 8.29355 0.852821 8.33891 0.84181 8.3645ZM0.608303 9.20676C0.518841 9.41131 0.32064 9.37054 0.302748 9.1342C0.285314 8.92841 0.527097 8.74481 0.6239 8.89369C0.65785 8.96959 0.652805 9.10443 0.608303 9.20676ZM11.9562 13.9248C11.9622 14.0036 11.8888 14.0477 11.7984 14.0081C11.6966 13.9636 11.6452 13.865 11.6732 13.8011C11.7067 13.7244 11.7746 13.693 11.831 13.7177C11.8989 13.7475 11.9558 13.8332 11.9562 13.9248ZM2.43011 10.0948C2.39158 10.2759 2.34708 10.4698 2.31358 10.5465C2.21816 10.7333 2.12503 10.0528 2.20898 9.86102C2.33194 9.57973 2.48517 9.75333 2.43011 10.0948ZM18.4191 17.238C18.3007 17.2929 18.2384 17.281 18.2718 17.2042C18.3503 17.0252 18.5531 16.9311 18.5934 17.0553C18.599 17.1036 18.5205 17.191 18.4191 17.238ZM17.541 17.9509C17.524 17.9892 17.4511 18.0334 17.3662 18.0421C17.2928 18.0557 17.2474 18.0054 17.2754 17.9415C17.3089 17.8647 17.3937 17.8256 17.4502 17.8503C17.5181 17.8799 17.552 17.9253 17.541 17.9509ZM17.2327 19.8878C17.2047 19.9517 17.1542 20.0058 17.1313 19.9959C17.0974 19.981 17.0689 19.8924 17.063 19.8136C17.0625 19.722 17.1075 19.6808 17.1643 19.7055C17.2322 19.7352 17.2662 19.8111 17.2327 19.8878ZM9.36966 16.602C9.34167 16.6659 9.29074 16.7199 9.26826 16.7101C9.23431 16.6952 9.20585 16.6066 9.19988 16.5278C9.19942 16.4362 9.2444 16.3949 9.30083 16.4197C9.36873 16.4494 9.40315 16.5252 9.36966 16.602ZM15.1104 20.087C14.8397 20.2124 14.6025 20.2611 14.5796 20.1902C14.5456 20.1143 14.692 19.9955 14.8947 19.9319C15.0865 19.8634 15.2838 19.7211 15.3228 19.6316C15.4572 19.3247 15.655 19.3045 15.6219 19.5948C15.6004 19.7681 15.4315 19.938 15.1104 20.087ZM1.51394 15.1474C1.48595 15.2114 1.41254 15.2555 1.34464 15.2258C1.28821 15.2011 1.25931 15.1124 1.28729 15.0485C1.32124 14.9718 1.40016 14.9453 1.45659 14.9701C1.52449 14.9998 1.54743 15.0707 1.51394 15.1474ZM14.0075 21.0366C13.6193 21.4305 13.4106 21.5374 13.5225 21.2816C13.573 21.1666 13.6909 21.0507 13.7643 21.037C13.8492 21.0284 13.9616 20.8947 14.0231 20.7541C14.0845 20.6134 14.169 20.5437 14.2144 20.6245C14.2658 20.6926 14.1818 20.8539 14.0075 21.0366ZM13.0615 21.7197C13.0335 21.7837 12.9491 21.8229 12.8812 21.7932C12.8243 21.7684 12.8298 21.6947 12.8917 21.6455C12.9591 21.5837 13.038 21.5572 13.072 21.5721C13.0945 21.582 13.095 21.6431 13.0615 21.7197ZM12.3301 22.4664C12.2008 22.5774 12.0829 22.6628 12.0599 22.6529C12.0374 22.643 12.0879 22.5279 12.1834 22.4021C12.2788 22.2763 12.3971 22.1909 12.465 22.2206C12.5215 22.2453 12.46 22.3554 12.3301 22.4664ZM2.14291 18.4234C2.05253 18.4143 1.91675 18.3549 1.85986 18.2997C1.79746 18.2267 1.86536 18.2258 2.02364 18.2951C2.18238 18.3644 2.22779 18.4147 2.14291 18.4234ZM11.9989 22.9156C11.9654 22.9923 11.881 23.0621 11.7966 23.0707C11.7232 23.0844 11.5993 23.213 11.5434 23.3409C11.4874 23.4688 11.3635 23.5975 11.2906 23.6111C11.1153 23.6412 11.3396 23.2213 11.6713 22.8942C11.8627 22.7036 12.0884 22.711 11.9989 22.9156ZM2.12365 19.1765C2.05575 19.2078 1.99336 19.1349 1.98143 19.0078C1.9406 18.609 2.053 18.5059 2.15577 18.8251C2.20761 18.9847 2.19109 19.1451 2.12365 19.1765ZM2.55031 20.0182C2.60215 20.2083 2.59711 20.3432 2.54068 20.3184C2.41038 20.2463 2.18238 19.7811 2.23284 19.666C2.29982 19.5126 2.45856 19.6734 2.55031 20.0182ZM10.8125 24.0875C10.7506 24.2282 10.6382 24.3008 10.5813 24.2456C10.5079 24.1982 10.3785 24.2786 10.2886 24.4221C10.1932 24.5785 10.0693 24.6767 10.0129 24.6519C9.87706 24.5926 9.89953 24.5414 10.3551 24.1161C10.7882 23.7114 10.9859 23.6912 10.8125 24.0875ZM2.94717 21.7302C2.91368 21.8069 2.86274 21.7999 2.81182 21.7318C2.77191 21.6687 2.75998 21.5417 2.78796 21.4778C2.82145 21.4011 2.88386 21.413 2.92377 21.4761C2.9747 21.5442 2.97515 21.6663 2.94717 21.7302ZM9.41048 25.1656C9.16871 25.3491 9.01637 25.4196 9.05536 25.3302C9.13932 25.1384 9.76421 24.6652 9.79862 24.7716C9.81009 24.807 9.63575 24.9898 9.41048 25.1656ZM3.19766 22.2053C3.1871 22.3224 3.2495 22.4564 3.35134 22.501C3.44172 22.5405 3.48211 22.6647 3.43164 22.7798C3.35319 22.9588 3.32521 22.9617 3.22244 22.734C2.93203 22.1043 2.89715 21.8453 3.11186 21.9392C3.16829 21.964 3.1972 22.0832 3.19766 22.2053ZM3.62065 23.4565C3.5422 23.544 3.53715 23.7094 3.62249 23.8228C3.69635 23.9312 3.71378 24.0455 3.64588 24.0769C3.53899 24.1367 3.28758 23.4174 3.36557 23.2384C3.38805 23.1873 3.4899 23.1708 3.59175 23.2153C3.70461 23.2647 3.71654 23.3612 3.62065 23.4565ZM3.81242 24.7132C3.8193 25.0362 3.81379 25.049 3.71699 24.8085C3.64267 24.6695 3.61974 24.507 3.64773 24.4431C3.73123 24.2513 3.80508 24.3598 3.81242 24.7132ZM5.79436 26.0063C5.76638 26.0702 5.69298 26.1144 5.62508 26.0847C5.56865 26.06 5.54019 25.9713 5.56818 25.9074C5.60167 25.8306 5.68058 25.8042 5.73701 25.829C5.80491 25.8587 5.82785 25.9296 5.79436 26.0063ZM4.34324 26.0573C4.39003 26.5044 4.32902 26.7366 4.15927 26.6624C4.10284 26.6376 4.07989 26.5362 4.12439 26.4339C4.16935 26.3316 4.12347 26.1592 4.01566 26.0664C3.82297 25.8908 3.82207 25.7381 4.02531 25.6441C4.21662 25.545 4.29644 25.6407 4.34324 26.0573ZM8.73332 27.9463C8.51356 28.0482 8.42227 27.8561 8.61954 27.7137C8.68699 27.6519 8.78837 27.6659 8.83975 27.7339C8.88517 27.8147 8.85168 27.8915 8.73332 27.9463ZM5.66498 30.2454C5.59203 30.3201 5.45074 30.365 5.33788 30.3461C5.19107 30.3123 5.17363 30.2591 5.28053 30.1382C5.46588 29.9299 5.83381 30.045 5.66498 30.2454Z" fill="#FF0090"/>
</svg>
