<svg width="34" height="40" viewBox="0 0 34 40" fill="none" xmlns="http://www.w3.org/2000/svg">
<path d="M30.9682 7.66708C30.5554 7.61701 30.1574 7.57327 30.0944 7.56429C29.1713 7.38073 28.5013 7.66273 28.8942 8.07441C28.9646 8.14515 28.9651 8.26237 28.8811 8.30247C28.7767 8.35266 28.6433 8.19487 28.5581 7.96153C28.4241 7.60838 28.3333 7.54774 27.9977 7.59106C27.0621 7.71369 26.7754 7.79875 26.7345 7.93599C26.7135 8.02416 26.525 8.07541 26.3223 8.04218C26.0918 7.99628 25.9379 8.08286 25.8829 8.29196C25.8284 8.54003 25.7585 8.54743 25.5689 8.36434C25.3657 8.17485 25.2884 8.19862 25.1641 8.49319C25.0398 8.78776 24.9904 8.78512 24.8916 8.54549C24.7928 8.30587 24.5765 8.34444 23.6908 8.74314C22.7626 9.16192 22.6303 9.27757 22.6876 9.5763C22.7517 9.85871 22.7308 9.90785 22.5627 9.87092C22.4509 9.82026 22.297 9.78968 22.213 9.75164C21.807 9.64615 21.2359 10.0506 21.0355 10.6033C20.8833 11.0806 20.8141 11.127 20.6318 10.9666C20.3371 10.7165 19.6876 10.7931 19.5559 11.1041C19.5003 11.235 19.5219 11.3812 19.5923 11.4128C19.6763 11.4508 19.6837 11.5907 19.628 11.7217C19.573 11.8526 19.4401 11.9291 19.3283 11.8785C19.2164 11.8279 19.0557 11.8917 18.9444 11.9973C18.8468 12.1093 18.6447 12.1542 18.4908 12.0845C18.2808 11.9895 18.1763 12.0788 17.9889 12.5207C17.8578 12.8316 17.8169 13.1642 17.8941 13.2576C18.0207 13.3927 18.962 12.9021 19.0864 12.6075C19.1284 12.5484 19.6933 12.1994 20.3349 11.8657C20.9832 11.5155 21.7219 11.0308 21.9728 10.7932C22.209 10.5493 22.4883 10.4025 22.5655 10.4568C22.7194 10.5655 24.3238 9.88748 24.4141 9.67474C24.5038 9.46195 25.2095 9.29347 25.4962 9.40371C25.6223 9.46071 25.7619 9.44592 25.7897 9.38047C25.8176 9.31496 26.0964 9.20724 26.3831 9.16128C26.6902 9.10528 26.8997 9.12212 26.8651 9.20395C26.81 9.33486 25.7915 9.81017 25.6234 9.77324C25.0432 9.64715 23.8918 10.16 23.8583 10.5543C23.8452 10.7042 23.6846 10.8072 23.4472 10.8167C22.9022 10.8042 21.1791 11.6042 21.0474 11.9152C20.9855 12.0624 20.8248 12.1654 20.6852 12.1802C20.5523 12.1787 20.3786 12.3143 20.3093 12.478C20.164 12.8217 19.6689 13.0852 19.5979 12.8582C19.5763 12.7901 19.2561 13.0351 18.8803 13.411C18.5186 13.7933 18.1212 14.0621 18.0372 14.024C17.939 13.9797 17.7925 14.089 17.7164 14.269C17.6404 14.4491 17.5081 14.5647 17.424 14.5267C17.3264 14.4824 17.2219 14.6497 17.1464 14.986C17.0709 15.2832 16.9528 15.4833 16.883 15.4517C16.7989 15.4137 16.5542 15.4787 16.3033 15.5991C15.278 16.0907 15.9303 14.9039 17.0317 14.2713C17.2969 14.1181 17.3525 14.0263 17.2469 13.9202C17.1697 13.8268 17.1549 13.6251 17.2242 13.4615C17.3974 13.0523 17.1935 12.7457 16.9216 12.9542C16.7336 13.0836 16.6842 13.0419 16.6201 12.7204C16.5843 12.4897 16.6042 12.1672 16.6661 12.0199C16.7353 11.8563 16.8041 11.5754 16.8177 11.3864C16.8512 11.0702 16.8512 11.0702 17.0135 11.4751C17.1055 11.692 17.2248 11.8435 17.3014 11.8198C17.5177 11.7031 17.4581 10.8183 17.2202 10.7498C17.0874 10.7091 16.8773 10.6141 16.7303 10.5281C16.527 10.4168 16.5338 10.3613 16.7569 10.2282C16.9801 10.0952 16.9937 10.0234 16.8461 9.85924C16.678 9.66611 16.6848 9.64973 16.9568 9.55834C17.1453 9.50709 17.2634 9.34607 17.2838 9.14073C17.3105 8.80184 17.1066 8.61235 16.9959 8.87422C16.9613 8.95605 16.871 9.01253 16.8006 8.98089C16.7308 8.94919 16.7723 8.7729 16.8903 8.61189C17.0851 8.34896 17.0709 8.30352 16.7632 8.28145C16.4907 8.25562 16.4555 8.18119 16.5798 7.88662C16.7251 7.54292 16.4969 6.30878 16.2726 6.20746C16.2164 6.18216 16.091 6.28142 16.0007 6.41602C15.8968 6.58338 15.8332 6.4182 15.8383 5.89399C15.8321 4.44863 15.4165 3.6173 14.9504 4.08879C14.8595 4.18436 14.8873 4.1189 15.0128 3.94151C15.1934 3.67224 15.1854 3.53235 14.9611 3.27477C14.7993 3.1043 14.6869 2.89738 14.7216 2.8156C14.7494 2.75009 14.4683 2.38908 14.0965 2.0455C13.5634 1.53144 13.3879 1.43276 13.221 1.5521C13.0399 1.66511 12.9979 1.64609 13.0109 1.45713C13.024 1.18997 12.6595 0.986279 12.5624 1.21545C12.5278 1.29722 12.3955 1.33473 12.2553 1.27145C12.1292 1.21445 12.094 1.14002 12.1639 1.09353C12.2405 1.06981 12.2752 0.909848 12.2536 0.763622C12.1894 0.481207 11.6086 0.316079 11.5047 0.56157C11.4701 0.6434 11.3651 0.615458 11.281 0.499287C11.1754 0.393213 10.9307 0.380064 10.7286 0.464066C10.5265 0.54801 10.2818 0.534861 10.1836 0.412409C10.0428 0.270938 9.89631 0.302109 9.70157 0.525998L9.39556 0.855432L9.45687 0.434716C9.49775 0.219339 9.49718 0.0240378 9.48298 0.017698C9.30074 -0.0646607 8.58879 0.159345 8.51272 0.300289C8.29073 0.745836 8.21407 0.808705 7.86491 0.845688C7.52937 0.889068 7.51575 0.882728 7.78713 0.635065C7.94723 0.493065 8.05169 0.325706 8.00911 0.26765C7.88251 0.0543857 6.59884 0.604658 6.6278 0.851734C6.62837 0.968903 6.51708 1.07451 6.38423 1.07292C6.23037 1.08143 6.03564 1.26623 5.92493 1.52804C5.69669 2.06815 5.33333 2.21602 5.29018 1.8064C5.27542 1.6438 5.19196 1.80112 5.0892 2.20287C4.92398 2.82999 4.89618 2.8564 4.65034 2.60886C4.46072 2.42571 4.36988 2.44314 4.27336 2.67231C4.19728 2.85229 4.03717 3.03339 3.89069 3.10365C3.7022 3.19394 3.66758 3.31481 3.75274 3.62628C3.88786 4.13563 3.81177 4.35471 3.58695 4.09718C3.34849 3.83326 3.01466 4.22821 3.1072 4.64047C3.15716 4.91654 3.11573 5.01469 2.82277 5.15517C2.62747 5.26183 2.37028 5.59391 2.25219 5.87215C2.07959 6.2813 2.08697 6.42119 2.31066 6.52251C2.46509 6.59213 2.56332 6.71458 2.52187 6.81279C2.48724 6.89462 2.35439 6.93213 2.22835 6.87513C2.04667 6.79283 1.97001 6.89468 1.86668 7.29644C1.81218 7.58361 1.70772 7.79006 1.65208 7.7647C1.40681 7.59529 1.31597 7.65182 1.37332 7.95061C1.43009 8.17121 1.39547 8.25304 1.28362 8.20238C1.01735 8.0821 0.893572 8.6501 1.15303 8.86489C1.28645 8.98364 1.34323 9.2043 1.27397 9.36797C1.18427 9.5807 1.07241 9.60817 0.903794 9.45408C0.651716 9.22291 0.435964 9.45678 0.618778 9.77348C0.681798 9.86059 0.619925 10.086 0.488208 10.2798C0.196387 10.6937 0.0674997 11.7078 0.237255 12.2916C0.301411 12.5349 0.274737 12.8348 0.170272 12.963C0.0589944 13.1077 0.0601193 13.4202 0.173668 13.7443C0.300843 14.1138 0.288361 14.4591 0.135637 14.8191C-0.120416 15.4246 0.000507096 15.9277 0.376922 15.747C0.711891 15.5865 0.782864 15.8916 0.448462 16.0912C0.267351 16.2042 0.211709 16.2961 0.288922 16.4286C0.35251 16.5157 0.332076 16.6429 0.255431 16.7057C0.0254939 16.8942 0.190132 19.6983 0.442779 19.8904C1.08774 20.377 1.21718 21.3715 0.687477 21.7168C0.569386 21.7997 0.520556 21.9143 0.584143 22.0014C0.626156 22.0985 0.807843 22.0637 0.940127 21.948C1.17006 21.7595 1.15643 21.8313 0.934444 22.2769C0.712456 22.7225 0.720401 22.9014 0.916841 23.1463C1.06445 23.3105 1.12862 23.6319 1.09456 23.8309C1.03324 24.1736 1.29553 25.1696 1.47778 25.2519C1.64583 25.3279 1.78266 24.6491 1.64243 24.4685C1.44542 24.2627 1.52831 23.9101 1.752 24.0114C2.1023 24.1696 2.16816 24.9599 1.86952 25.4683C1.59928 25.9112 1.59984 26.0675 1.88144 26.6629C2.19881 27.3718 2.4861 27.5211 2.35779 26.9172C2.23686 26.3751 2.47474 26.4437 2.72852 27.0264C2.95448 27.5184 2.95449 27.5574 2.61214 27.6562C2.36801 27.7212 2.29137 27.8231 2.34814 28.0047C2.40492 28.1863 2.47473 28.2179 2.58601 28.1124C2.83696 27.9138 3.04703 28.0478 2.9295 28.3261C2.87387 28.457 2.90963 28.6486 3.01523 28.7547C3.12765 28.8835 3.10721 29.0498 2.9613 29.2372C2.78019 29.4674 2.79496 29.5518 3.01865 29.6532C3.21452 29.7418 3.27128 29.8843 3.18101 30.0971C3.07711 30.3426 3.12652 30.4233 3.3786 30.4591C3.66474 30.4913 3.67893 30.5367 3.46376 30.8096C3.29003 31.0235 3.29002 31.1407 3.45807 31.2167C3.57049 31.2673 3.65509 31.5006 3.63522 31.7451C3.59491 32.2339 3.82825 32.9048 3.93896 32.6429C3.98098 32.5447 3.93839 32.4085 3.8748 32.3215C3.76296 32.1927 3.78339 32.1436 3.97869 32.0369C4.195 31.9202 4.23021 31.9946 4.20409 32.4116C4.17002 32.6888 4.12915 32.9823 4.09452 33.0641C3.95599 33.3915 4.37158 34.1837 4.72131 34.2249C5.00121 34.2733 5.07842 34.4058 5.08069 34.9137C5.09091 35.7957 5.29813 36.9227 5.46618 36.9987C5.55021 37.0367 5.64049 36.863 5.69556 36.6149C5.79776 36.0569 6.06403 36.1382 5.98228 36.6861C5.94821 36.9242 5.99192 37.3729 6.08389 37.7071C6.18325 38.0248 6.17758 38.3537 6.07993 38.4266C5.99647 38.5058 5.98283 38.6557 6.08105 38.739C6.17927 38.8615 6.13841 39.0769 5.95786 39.3852C5.72225 39.7854 5.72224 39.8635 5.96694 39.9157C6.135 39.9526 6.30929 39.856 6.36493 39.725C6.52389 39.3487 7.03997 39.0752 7.33407 39.2081C7.51575 39.2904 7.5305 39.4139 7.37778 39.6177C7.25969 39.7788 7.23926 39.9451 7.32329 39.983C7.54698 40.0844 7.85298 39.7158 7.87967 39.2988C7.91203 38.7092 8.35544 37.7008 8.65521 37.5049C8.9476 37.3254 8.9476 37.3254 8.85108 37.5936C8.70574 37.9372 8.82497 38.0106 9.28541 37.868C9.69703 37.7227 9.80092 37.5163 9.45176 37.5143C9.24908 37.5201 9.22807 37.4521 9.38079 37.2873C9.47845 37.1754 9.58972 37.0307 9.61016 36.9816C9.63116 36.9325 9.69417 37.0196 9.76457 37.1685C9.85654 37.3854 9.9264 37.4171 10.0519 37.3178C10.2818 37.1293 10.183 36.8506 9.78332 36.5725L9.45403 36.3651L9.99168 36.2768C10.2988 36.2208 10.6622 36.1901 10.8161 36.1816C10.9767 36.1959 11.3111 35.9182 11.5683 35.586C11.8187 35.2703 12.0969 34.9673 12.1877 34.9498C12.2996 34.9224 12.3898 34.7487 12.3961 34.5761C12.4091 34.3871 12.5692 34.206 12.8066 34.1183C13.267 33.9366 13.7535 33.3379 13.5435 33.243C13.4595 33.205 13.4243 33.0915 13.4589 33.0097C13.5003 32.9115 13.6542 32.903 13.8081 32.9726C14.0045 33.0613 14.1368 32.9847 14.2475 32.7229C14.3378 32.5101 14.5325 32.2863 14.679 32.216C14.8879 32.1157 14.9015 32.0048 14.7323 31.6945C14.4933 31.2352 14.5961 30.7944 14.918 30.9401C15.0304 30.9907 15.1905 30.8878 15.2666 30.7077C15.3427 30.5278 15.475 30.4121 15.5454 30.4438C15.6294 30.4817 15.7475 30.3598 15.8236 30.1798C15.8997 29.9997 16.0807 29.8477 16.2136 29.8493C16.3533 29.8344 16.5208 29.7151 16.59 29.5515C16.7422 29.1914 17.0561 29.08 17.0783 29.3824C17.093 29.545 17.1839 29.5667 17.3792 29.4991C17.5955 29.4214 17.7204 29.205 17.8584 28.7214C18.0031 28.1433 18.0656 28.0742 18.2899 28.1755C18.6674 28.3465 19.1761 27.894 19.1602 27.3798C19.1511 26.9274 19.4015 26.6898 19.4384 27.1158C19.4889 27.5482 19.8659 27.3675 19.9613 26.865C20.0164 26.5778 20.0998 26.4595 20.1839 26.5366C20.2679 26.6136 20.6721 26.3676 21.0974 25.9943L21.8564 25.3433L21.652 24.9585C21.4618 24.6191 21.476 24.5864 21.7968 24.4195C22.2573 24.1988 22.3691 24.2885 22.0909 24.6306C21.9728 24.7916 21.9246 24.9453 22.0086 24.9832C22.2328 25.0846 22.6427 24.4705 22.5088 24.2346C22.4384 24.1249 22.473 23.9649 22.5701 23.892C22.7024 23.7764 22.7728 23.808 22.8574 24.0023C23.0124 24.3844 23.2979 24.1041 23.282 23.5899C23.2587 23.0921 23.7538 22.7505 24.3619 22.8501C24.7888 22.9066 24.9069 22.7455 24.7445 22.3407C24.6457 22.101 24.715 21.9765 25.1675 21.5377C25.4531 21.2573 25.7381 20.9379 25.7863 20.8233C25.842 20.6924 25.905 20.7014 25.9686 20.9057C26.0674 21.1063 26.2002 21.1078 26.6045 20.9008C26.9531 20.7076 27.0785 20.5692 26.9871 20.4695C26.8117 20.2927 27.0331 19.6518 27.229 19.7404C27.2988 19.7721 27.3414 19.9083 27.342 20.0255C27.3215 20.1527 27.5657 20.0096 27.8859 19.7255C28.2129 19.4251 28.6171 19.1009 28.7982 19.0269C28.9725 18.9303 29.4954 18.5232 29.9269 18.0945C30.5605 17.5037 30.6996 17.2936 30.5594 17.1912C30.3629 17.0245 30.556 16.449 30.8285 16.3967C30.9335 16.3856 30.9613 16.4764 30.8994 16.6237C30.837 16.771 30.8796 16.9072 30.9982 16.9024C31.2429 16.9155 31.8175 15.5181 31.6279 15.335C31.5439 15.2579 31.6688 15.1196 31.9481 15.0119C32.2689 14.8841 32.3665 14.7721 32.2751 14.6724C32.0997 14.4956 32.1962 14.1883 32.3784 14.2706C32.4483 14.3023 32.4982 14.5002 32.4642 14.6993C32.4097 15.1427 32.6271 15.2994 32.7861 14.923C32.8417 14.7921 33.0297 14.5455 33.2108 14.3935C33.3919 14.2414 33.6559 13.8539 33.8222 13.5393C34.0578 13.061 34.0573 12.9047 33.8324 12.6081C33.6496 12.3695 33.6138 12.1779 33.7393 12.0395C33.8438 11.9113 33.8841 11.5787 33.8267 11.2799C33.77 10.9812 33.7683 10.6296 33.8171 10.515C33.8654 10.4005 33.8018 10.1962 33.6684 10.0774C33.5423 9.9423 33.5065 9.78974 33.5832 9.72693C33.6666 9.64774 33.6655 9.37431 33.5735 9.11825C33.4322 8.74244 33.2993 8.62368 32.7884 8.49026C32.4386 8.41007 32.0753 8.40167 31.9708 8.4909C31.8453 8.59017 31.8311 8.50569 31.935 8.26026C32.1082 7.85111 32.031 7.79675 30.9682 7.66708ZM30.4112 8.11691C30.4186 8.21776 30.3556 8.28691 30.2857 8.25527C30.2017 8.21723 30.1665 8.10376 30.2011 8.02193C30.2426 7.92372 30.2982 7.87095 30.326 7.88363C30.368 7.90259 30.4106 7.99974 30.4112 8.11691ZM33.058 9.43089C32.995 9.46095 32.8622 9.42033 32.785 9.32693C32.6936 9.2272 32.7565 9.19708 32.9104 9.2667C33.0711 9.32001 33.1347 9.40712 33.058 9.43089ZM30.0666 9.32582C29.9899 9.38869 29.8571 9.4262 29.773 9.38816C29.7032 9.35652 29.6816 9.24939 29.7163 9.16756C29.7577 9.06935 29.8838 9.04822 30.0098 9.10522C30.1217 9.15588 30.15 9.24663 30.0666 9.32582ZM8.93341 0.724645C8.733 1.19925 8.49512 1.16972 8.64727 0.692476C8.72278 0.473401 8.85506 0.318662 8.92546 0.350361C9.00892 0.388342 9.00268 0.560984 8.93341 0.724645ZM28.3191 9.3156C27.9489 9.40172 27.7672 9.31936 27.9693 9.15728C28.0528 9.07809 28.2345 9.08226 28.3605 9.13926C28.5706 9.23424 28.5564 9.267 28.3191 9.3156ZM11.2407 2.68423C11.8993 3.13811 12.2428 3.35185 12.7328 3.61248C12.978 3.74286 13.0694 3.92073 13.0359 4.15882C12.9945 4.3742 13.0933 4.57478 13.2613 4.65074C13.4294 4.72676 13.6684 5.14689 13.7961 5.59449C13.9449 6.07115 14.1351 6.41057 14.2816 6.41843C14.4354 6.40998 14.5132 6.6206 14.4939 6.9822C14.4808 7.28839 14.5172 7.55813 14.5728 7.58343C14.7829 7.67841 14.9191 8.46126 14.8016 8.85667C14.6358 9.36661 14.8062 10.0285 15.0719 10.0316C15.1905 10.0269 15.324 10.1847 15.3597 10.3763C15.4307 10.6814 15.3892 10.7406 15.1661 10.7955C14.9424 10.8504 14.9356 10.9059 15.0832 11.1482C15.2524 11.4194 15.0804 12.102 14.8703 12.007C14.8141 11.9817 14.7642 11.6666 14.7488 11.3087C14.7261 10.9671 14.6398 10.3432 14.5473 9.93092C14.4337 9.52869 14.3764 9.15182 14.4042 9.08637C14.4525 8.97179 14.0346 7.51545 13.6956 6.62125C13.5259 6.15463 13.4555 6.08395 13.2608 6.22965C12.6896 6.6732 12.8883 7.5431 13.5804 7.60262C13.8671 7.63479 13.8881 7.66379 13.6724 7.78049C13.4629 7.88081 13.4356 7.98536 13.5134 8.31315C13.5702 8.53381 13.7252 8.7597 13.879 8.82938C14.0193 8.89272 14.1033 9.00883 14.0618 9.10698C14.0272 9.18881 13.9364 9.24534 13.8529 9.20736C13.7825 9.17566 13.6849 9.20947 13.6434 9.30768C13.6088 9.38951 13.7002 9.52834 13.854 9.59796C14.0085 9.66764 14.0925 9.82279 14.0374 9.95375C13.9886 10.0683 14.0664 10.2789 14.214 10.404C14.4031 10.5871 14.4178 10.6716 14.2361 10.7846C14.055 10.8976 14.0567 11.2882 14.2498 12.4089C14.3928 13.2144 14.4377 13.8975 14.34 13.9313C14.1584 13.9661 13.8484 15.0542 14.0022 15.1238C14.0585 15.1492 14.2049 15.118 14.3514 15.0477C14.4769 14.9876 14.6239 14.9954 14.6517 15.0862C14.6801 15.177 14.5967 15.2953 14.4712 15.3555C14.3037 15.4357 14.2486 15.6057 14.2571 15.98C14.26 16.6441 14.2049 16.8141 13.9943 16.641C13.9102 16.5639 13.7984 16.5523 13.7564 16.6114C13.3743 17.1209 13.7598 17.3537 14.2963 16.9529C14.742 16.6477 14.6665 16.9449 14.0965 17.7009C13.8393 18.033 13.7632 18.2521 13.8268 18.3782C13.8898 18.4653 13.8348 18.7135 13.7167 18.9135C13.5713 19.1791 13.4458 19.2393 13.2636 19.1179C13.074 18.9738 13.0047 19.0203 12.957 19.3302C12.9156 19.5456 12.6726 19.923 12.429 20.1833C11.9487 20.6485 11.6762 20.5836 12.0373 20.0842C12.1622 19.9068 12.1758 19.7568 12.064 19.7062C11.9379 19.6492 11.9794 19.5901 12.1957 19.5125C12.496 19.4338 13.7961 17.7796 13.7325 17.5754C13.7252 17.5136 13.6065 17.4793 13.4737 17.4777C13.3266 17.4699 13.1949 17.6636 13.0984 18.0099C12.9672 18.4771 12.9184 18.5135 12.7504 18.3204C12.5749 18.1436 12.5261 18.18 12.4438 18.5717C12.4029 18.8261 12.2984 19.0326 12.2008 19.0273C11.7954 18.9999 10.8206 21.6981 10.9636 22.4646C10.9852 22.6499 10.9296 22.7417 10.7689 22.7275C10.6361 22.7259 10.4277 22.9825 10.2682 23.359C9.99111 23.9745 9.98429 23.9909 10.4816 24.1961C10.7962 24.3191 10.9716 24.4959 10.9586 24.6458C10.904 25.0502 11.1868 25.7628 11.3679 25.7279C11.6824 25.6555 11.6813 25.4211 11.3861 25.0147C11.0772 24.602 11.1181 24.3475 11.7085 23.4643C11.9793 23.0604 12.0702 23.0039 12.1338 23.2082C12.1906 23.3897 12.2814 23.4504 12.4767 23.3828C12.6794 23.2989 12.7146 23.3342 12.6311 23.5306C12.576 23.6615 12.4296 23.7708 12.3245 23.7819C12.2127 23.7703 12.1434 23.8559 12.165 23.963C12.2002 24.0765 12.4165 24.038 12.6816 23.8848C13.0439 23.6588 13.0995 23.567 13.0081 23.35C12.9019 23.1267 13.1574 22.365 13.7195 21.2737C13.9137 20.8936 14.2418 20.9057 14.0761 21.2985C13.9233 21.6585 14.2032 21.707 14.4604 21.3749C14.6137 21.1712 14.6194 20.9204 14.4638 20.4992C14.2379 19.9291 14.2379 19.9291 14.5671 20.0584C14.8329 20.1787 14.9027 20.1322 14.9435 19.8387C14.9907 19.4507 15.2632 19.4375 15.2927 19.8017C15.3222 20.1268 15.6362 19.9763 15.823 19.5345C15.9961 19.1253 15.8411 18.8994 15.584 19.1925C15.4863 19.3044 15.4585 19.2527 15.5346 19.0726C15.5828 18.919 15.7361 18.8324 15.848 18.8831C16.1 18.9971 16.2391 18.7479 16.0563 18.5093C15.9371 18.3969 15.9859 18.3214 16.209 18.2274C16.7047 18.042 17.394 17.4375 17.3792 17.2358C17.3644 17.1123 17.2804 17.0353 17.1895 17.0527C16.7291 17.1562 17.2446 16.8046 18.1581 16.3794C19.163 15.9369 19.6013 15.4528 19.3271 15.1144C19.2499 15.021 19.3061 15.0463 19.4673 15.1777C19.6916 15.3572 19.8103 15.3524 19.9772 15.1159C20.1021 14.9385 20.2486 14.8292 20.2906 14.8482C20.5006 14.9432 21.7196 13.8761 21.7673 13.5662C21.8014 13.3282 21.8706 13.2817 22.046 13.3804C22.2351 13.4854 22.3185 13.4062 22.4219 13.0826C22.5184 12.7753 22.5746 12.7225 22.6382 12.9268C22.7512 13.29 23.1497 13.2556 23.3087 12.8792C23.378 12.7155 23.4961 12.5936 23.5801 12.6316C23.6505 12.6632 23.8248 12.5275 23.9707 12.3401C24.1092 12.1299 24.3255 11.9742 24.4584 11.9757C24.5913 11.9773 24.7372 11.868 24.7996 11.7207C24.9171 11.4425 25.176 11.5011 25.1352 11.7946C25.1221 11.9445 25.2203 11.9888 25.5133 11.9265C25.7858 11.8742 25.9317 11.7258 25.9794 11.455C26.0413 11.1514 26.1599 11.0295 26.4739 10.9962C26.8441 10.9491 26.8583 10.9554 26.5653 11.135C26.3212 11.2781 26.2729 11.3927 26.3297 11.5742C26.3933 11.7785 26.6658 11.7262 27.4606 11.3059C28.0391 11.0022 28.6046 10.8094 28.7307 10.8664C28.8567 10.9234 28.9896 10.8859 29.0242 10.8041C29.0656 10.7059 29.1633 10.6721 29.2331 10.7038C29.3171 10.7418 29.3251 10.8817 29.2626 11.0289C29.1866 11.209 29.2354 11.2897 29.4171 11.2939C29.5641 11.3018 29.7668 11.335 29.8792 11.3857C29.9911 11.4363 30.1234 11.3598 30.179 11.2288C30.2341 11.0979 30.3527 11.015 30.4226 11.0467C30.5066 11.0846 30.535 11.1755 30.4935 11.2737C30.4589 11.3555 30.5503 11.4943 30.6905 11.5576C31.0681 11.7286 31.3349 12.0442 31.252 12.2406C31.2174 12.3224 31.1408 12.3071 31.0704 12.1973C31.0068 12.0712 30.9443 12.1403 30.8892 12.3885C30.8483 12.6429 30.7513 12.7548 30.5832 12.7179C30.3663 12.6783 30.3527 12.7111 30.4725 13.0579C30.5577 13.3693 30.5304 13.5129 30.2937 13.7178C29.9667 14.0182 29.7986 14.0203 30.0558 13.7273C30.1466 13.6318 30.1387 13.4528 30.0478 13.3531C29.928 13.2016 29.8236 13.2517 29.7333 13.4645C29.6641 13.6281 29.337 13.9677 29.0236 14.1963C28.7103 14.4249 28.2929 14.899 28.0914 15.2174C27.8972 15.5584 27.6185 15.8224 27.4788 15.8372C27.3318 15.8293 27.1444 16.0368 27.0263 16.315C26.881 16.6587 26.6232 16.8736 26.1207 17.0753C25.3952 17.3711 25.0545 17.7823 25.4184 17.947C25.5309 17.9977 25.6012 18.1074 25.5592 18.2056C25.5246 18.2875 25.3923 18.325 25.2805 18.2743C25.1545 18.2173 24.9796 18.2749 24.8825 18.3868C24.7712 18.4924 24.6106 18.5563 24.5265 18.5184C24.4283 18.474 24.1427 18.6372 23.8986 18.8584C23.634 19.0896 23.1259 19.5422 22.7427 19.8563C22.2271 20.2861 21.9495 20.6673 21.6378 21.3647C21.1734 22.3831 20.6857 22.7083 20.2508 22.3167C20.0964 22.1689 20.0266 22.1763 20.0203 22.3489C19.9931 22.4925 20.0703 22.625 20.1822 22.6366C20.273 22.6582 20.3014 22.749 20.2111 22.8446C20.1344 22.9465 19.9738 22.9713 19.8619 22.8816C19.6445 22.7249 18.9263 23.1605 18.9553 23.4466C18.9626 23.5474 18.7191 23.7687 18.4261 23.9091C17.7567 24.2693 17.2424 24.9725 17.5507 25.1118C17.7465 25.2004 17.8924 25.0521 18.0378 24.5912C18.065 24.4867 18.1905 24.4265 18.3165 24.4835C18.4846 24.5595 18.471 24.6703 18.2558 24.9823C17.8873 25.4981 17.5109 25.6787 17.1606 25.5204C16.8245 25.3685 16.5179 25.5417 16.1358 26.0902C15.9479 26.3368 15.907 26.5131 16.0047 26.5574C16.2011 26.646 15.9587 27.2188 15.5965 27.562C15.3875 27.7405 15.2337 27.749 15.0162 27.5532C14.834 27.3927 14.6801 27.3621 14.6319 27.4767C14.5904 27.5749 14.6256 27.6884 14.6955 27.72C14.9197 27.8214 14.6563 28.287 14.3764 28.2775C14.2367 28.2923 14.0488 28.4608 13.9517 28.6899C13.8132 29.0172 13.7365 29.041 13.5469 28.8579C13.3857 28.6873 13.2812 28.6985 13.2045 28.8785C13.1427 29.0258 13.15 29.1656 13.2341 29.2037C13.3039 29.2353 13.2835 29.3625 13.1864 29.4745C13.0745 29.5801 12.9144 29.644 12.8026 29.5933C12.5783 29.492 12.4256 29.7349 12.5732 29.9771C12.7072 30.2131 12.3376 30.5336 12.1554 30.334C12.043 30.2053 11.9453 30.2782 11.8209 30.5727C11.7239 30.8018 11.5359 30.9703 11.3963 30.985C11.0817 30.9793 10.895 31.4212 11.1334 31.607C11.2594 31.703 11.2458 31.8139 11.0857 31.9168C10.9046 32.0689 10.8484 32.0436 10.7354 31.7976C10.665 31.6097 10.5736 31.549 10.5322 31.6472C10.4907 31.7454 10.5265 31.8979 10.6105 31.975C10.7019 32.0747 10.5623 32.2068 10.1995 32.3546C9.53693 32.6202 8.98109 33.4217 9.25475 33.721C9.50058 34.0075 9.94684 33.8195 10.1478 33.3449C10.2517 33.0994 10.3982 32.9901 10.5242 33.0471C10.6361 33.0978 10.6855 33.2567 10.623 33.404C10.4504 33.8131 9.52272 34.3882 9.35467 34.195C9.26326 34.0952 9.01176 34.1765 8.75457 34.3915C8.51044 34.6126 8.2243 34.7368 8.14027 34.6988C8.04262 34.6544 7.90295 34.7083 7.81949 34.7875C7.73604 34.9058 7.6452 34.8841 7.60943 34.7707C7.57423 34.6572 7.62987 34.5653 7.75591 34.5832C8.03524 34.5927 8.19421 34.1382 7.94213 34.0242C7.83028 33.9736 7.78032 33.8147 7.83595 33.6837C7.89159 33.5528 7.88365 33.4129 7.79962 33.3749C7.61794 33.2926 7.52767 33.5054 7.60602 33.7941C7.65541 33.9139 7.5305 34.1303 7.31419 34.3252C6.95197 34.6293 6.95936 34.6129 7.28412 33.8047C7.60262 33.0519 7.60205 32.8956 7.35451 32.1793C7.19214 31.7354 7.01613 31.3633 6.94573 31.3316C6.8901 31.3063 6.84012 31.0693 6.83899 30.7958C6.83785 30.4833 6.71807 30.2537 6.51481 30.1815C6.27693 30.0738 6.24854 29.983 6.39445 29.7956C6.56137 29.5982 6.50516 29.4556 6.13329 29.112C5.86021 28.8909 5.5099 28.6936 5.34185 28.6957C5.12554 28.6952 5.09716 28.6434 5.25045 28.4787C5.36173 28.3341 5.3532 27.9989 5.20445 27.5613C4.80135 26.3457 4.77241 26.1377 5.04493 26.0853C5.44292 26.0119 5.22377 25.3864 4.7338 25.1648C4.3835 25.0065 4.3625 24.9384 4.55042 24.6918C4.86325 24.3069 4.67247 23.7722 4.2109 23.6805C3.88217 23.6293 3.8748 23.6066 4.16833 23.5443C4.59414 23.4444 4.68384 23.1926 4.3341 23.0343C4.17968 22.9647 4.09566 22.8095 4.14392 22.6949C4.27563 22.384 3.65111 20.0741 3.45581 20.1417C3.36497 20.1982 3.34509 20.4035 3.40187 20.6242C3.51542 21.0654 3.48817 21.2871 3.30649 21.2048C3.23609 21.1732 3.18613 20.858 3.19181 20.4901C3.20316 19.8714 3.22359 19.8224 3.49611 19.8091C3.7198 19.7932 3.70561 19.7478 3.40414 19.514C3.06803 19.2449 3.05328 19.1604 3.3099 18.594C3.56595 18.0275 3.55175 17.9821 3.23041 17.9145C3.03454 17.865 2.8943 17.7626 2.92893 17.6808C2.97038 17.5826 2.94824 17.2801 2.89771 16.965C2.81936 16.5981 2.85343 16.3991 2.99366 16.3843C3.32863 16.3019 3.47227 15.5285 3.16398 15.3892C3.01012 15.3195 2.91191 15.158 2.91816 15.0245C2.93178 14.9136 3.01523 14.8344 3.11288 14.8787C3.2111 14.923 3.25256 14.7858 3.20941 14.4933C3.16626 14.24 3.18612 13.9174 3.23438 13.8029C3.42854 13.3447 3.50294 11.0389 3.34681 10.4613C3.19806 9.86752 3.30876 9.60565 3.65849 9.76397C3.75671 9.80829 3.88899 9.73174 3.94463 9.60084C4.01389 9.47621 4.12518 9.29247 4.17344 9.21698C4.43801 8.86853 4.90128 7.69391 4.80306 7.64959C4.74742 7.62429 4.64297 7.71351 4.58733 7.84442C4.53226 7.97538 4.42778 8.06461 4.34376 8.02657C4.09168 7.91263 4.36931 7.53142 4.87858 7.27425C5.19936 7.10742 5.60302 6.66604 6.03337 5.96384C6.41546 5.37624 6.93721 4.73475 7.20178 4.54256C7.88478 4.0325 8.7012 3.68028 8.9601 3.7779C9.41486 3.92507 10.0087 3.90124 10.2875 3.71533C10.4686 3.60239 10.5384 3.59493 10.497 3.73223C10.3931 3.97767 10.8836 4.23836 11.1067 4.06625C11.3571 3.86772 11.4979 4.00919 11.4292 4.40719C11.3611 4.76615 11.7466 5.11607 11.8783 4.80513C12.01 4.49418 12.2417 4.77449 12.2014 5.2242C12.1747 5.56314 12.2451 5.67292 12.546 5.75046C12.9167 5.82061 13.3277 5.55815 13.1943 5.32223C12.4483 4.0882 11.8794 3.42158 11.4037 3.24536C11.0959 3.1451 10.8155 2.97938 10.7593 2.87595C10.6043 2.61097 9.58348 2.42218 9.29733 2.58532C9.15824 2.67824 8.89253 2.67513 8.71029 2.59283C8.5428 2.51687 8.31854 2.49368 8.23508 2.57287C8.15844 2.63568 8.01195 2.66685 7.92792 2.62887C7.63383 2.49591 8.32479 2.24291 8.77218 2.32838C9.02425 2.36419 9.25475 2.33196 9.28938 2.25013C9.32401 2.1683 9.47732 2.15985 9.63175 2.22947C9.7998 2.30548 9.9599 2.24156 10.0223 2.09428C10.1052 1.89786 10.2103 1.88676 10.4203 2.05988C10.5611 2.20135 10.9324 2.4668 11.2407 2.68423ZM24.3426 9.25244C24.2455 9.48155 23.9309 9.51484 23.8043 9.30163C23.7203 9.18552 23.7692 9.11003 23.9366 9.06882C24.2648 9.00278 24.4186 9.0724 24.3426 9.25244ZM9.6357 3.20609C9.64308 3.30688 9.58007 3.37603 9.51024 3.34439C9.42621 3.30641 9.391 3.19294 9.42563 3.11111C9.46708 3.0129 9.52272 2.96007 9.55054 2.97275C9.59255 2.99177 9.63513 3.08886 9.6357 3.20609ZM25.6308 11.5701C25.4213 11.6705 25.3288 11.141 25.5303 10.9789C25.6768 10.8696 25.7262 10.9113 25.7409 11.152C25.7557 11.3537 25.7006 11.5237 25.6308 11.5701ZM6.76973 3.07988C6.7351 3.16171 6.64425 3.21824 6.56023 3.1802C6.49039 3.14856 6.4552 3.03509 6.48983 2.95326C6.53128 2.85505 6.62893 2.82124 6.69877 2.85294C6.78279 2.89092 6.81118 2.98167 6.76973 3.07988ZM16.3612 7.41736C16.3686 7.51821 16.3062 7.58736 16.2363 7.55566C16.1523 7.51768 16.1165 7.40421 16.1511 7.32238C16.1926 7.22417 16.2482 7.1714 16.2766 7.18408C16.3186 7.20304 16.3606 7.30019 16.3612 7.41736ZM29.5982 14.5731C29.5635 14.6549 29.4591 14.7051 29.3751 14.6671C29.3052 14.6354 29.3115 14.541 29.3881 14.4781C29.4716 14.3989 29.5692 14.3651 29.6112 14.3841C29.6396 14.3968 29.6396 14.4749 29.5982 14.5731ZM5.65582 4.13587C5.62118 4.2177 5.53035 4.27417 5.44633 4.23619C5.37649 4.20455 5.34128 4.09102 5.37591 4.00919C5.41736 3.91104 5.51502 3.87723 5.58485 3.90887C5.66887 3.94685 5.69726 4.03766 5.65582 4.13587ZM28.9436 15.1739C28.8397 15.3022 28.7352 15.4305 28.721 15.4633C28.7074 15.496 28.5955 15.4844 28.4837 15.4337C28.3014 15.3514 28.3151 15.2796 28.5518 15.0747C28.8998 14.7643 29.2291 14.8545 28.9436 15.1739ZM29.0821 18.3169C28.6086 18.6876 28.3355 18.6618 28.6489 18.2769C28.9475 17.9247 29.5477 17.6111 29.5204 17.8328C29.5136 17.9273 29.3189 18.1511 29.0821 18.3169ZM26.0748 17.7758C26.0197 17.9068 25.9357 17.9469 25.8726 17.8598C25.8232 17.7791 25.8017 17.6328 25.8431 17.5346C25.8777 17.4528 25.9754 17.419 26.0458 17.4507C26.1298 17.4887 26.1372 17.6286 26.0748 17.7758ZM15.6634 14.6273C15.5243 14.7984 15.4267 14.7931 15.3767 14.6342C15.3415 14.5208 15.3966 14.3117 15.5221 14.1734C15.6612 14.0023 15.7588 14.0076 15.8082 14.1664C15.844 14.28 15.7889 14.489 15.6634 14.6273ZM15.4846 15.4044C15.492 15.5052 15.4296 15.5744 15.3597 15.5427C15.2757 15.5047 15.2405 15.3912 15.2745 15.3094C15.3166 15.2112 15.3722 15.1584 15.4 15.1711C15.442 15.1901 15.4846 15.2872 15.4846 15.4044ZM15.5647 16.201C15.53 16.2828 15.3489 16.3177 15.1599 16.2908C14.8101 16.2496 14.8101 16.2496 15.1593 16.1345C15.5993 16.0019 15.6481 16.0046 15.5647 16.201ZM3.23211 11.4427C3.19066 11.5409 3.12765 11.532 3.06463 11.4448C3.01524 11.3641 3.00048 11.2015 3.03511 11.1197C3.07655 11.0215 3.15376 11.0368 3.20315 11.1176C3.26617 11.2046 3.26674 11.3609 3.23211 11.4427ZM16.5423 17.6371C16.5497 17.738 16.4867 17.8071 16.4169 17.7755C16.3328 17.7375 16.2976 17.624 16.3323 17.5421C16.3737 17.444 16.4293 17.3912 16.4572 17.4038C16.4992 17.4229 16.5418 17.52 16.5423 17.6371ZM1.04175 10.7057C1.02131 10.7547 0.930478 10.8113 0.825445 10.8224C0.734606 10.8398 0.678968 10.7754 0.713033 10.6936C0.755046 10.5954 0.859501 10.5452 0.929333 10.5769C1.01336 10.6149 1.05537 10.6729 1.04175 10.7057ZM0.752779 11.7837C0.642069 12.0455 0.396794 11.9933 0.374652 11.6908C0.353078 11.4274 0.652286 11.1924 0.772081 11.383C0.814094 11.4801 0.80785 11.6527 0.752779 11.7837ZM14.7959 17.8222C14.8033 17.9231 14.7125 17.9795 14.6006 17.9289C14.4746 17.8719 14.411 17.7457 14.4457 17.6639C14.4871 17.5657 14.5711 17.5256 14.641 17.5572C14.725 17.5953 14.7954 17.705 14.7959 17.8222ZM3.00728 12.9203C2.95959 13.1521 2.90452 13.4002 2.86308 13.4983C2.74498 13.7375 2.62973 12.8665 2.73363 12.621C2.88579 12.261 3.07541 12.4832 3.00728 12.9203ZM22.7938 22.0628C22.6473 22.1331 22.5701 22.1178 22.6115 22.0196C22.7086 21.7905 22.9596 21.6701 23.0095 21.829C23.0163 21.8907 22.9192 22.0027 22.7938 22.0628ZM21.7071 22.9752C21.6861 23.0243 21.5958 23.0808 21.4908 23.0919C21.4 23.1094 21.3438 23.045 21.3784 22.9631C21.4198 22.8649 21.5249 22.8148 21.5947 22.8464C21.6787 22.8844 21.7207 22.9425 21.7071 22.9752ZM21.3256 25.4542C21.2909 25.536 21.2285 25.6053 21.2001 25.5926C21.1581 25.5736 21.1229 25.4601 21.1155 25.3592C21.115 25.2421 21.1706 25.1893 21.241 25.2209C21.325 25.2589 21.367 25.3561 21.3256 25.4542ZM11.595 21.2488C11.5604 21.3306 11.4974 21.3997 11.4695 21.3871C11.4275 21.3681 11.3923 21.2546 11.3849 21.1538C11.3843 21.0366 11.44 20.9838 11.5098 21.0155C11.5939 21.0535 11.6365 21.1505 11.595 21.2488ZM18.6992 25.7092C18.3642 25.8697 18.0707 25.932 18.0423 25.8412C18.0003 25.7441 18.1814 25.592 18.4323 25.5107C18.6697 25.423 18.9138 25.2409 18.962 25.1263C19.1284 24.7335 19.3731 24.7076 19.3322 25.0793C19.3056 25.301 19.0966 25.5185 18.6992 25.7092ZM1.87351 19.3871C1.83887 19.4689 1.74802 19.5254 1.664 19.4874C1.59417 19.4558 1.5584 19.3423 1.59303 19.2605C1.63504 19.1623 1.73271 19.1284 1.80254 19.1601C1.88657 19.1981 1.91495 19.2889 1.87351 19.3871ZM17.3343 26.9246C16.854 27.4288 16.5957 27.5655 16.7342 27.2382C16.7967 27.0909 16.9426 26.9426 17.0334 26.9252C17.1385 26.9141 17.2775 26.743 17.3536 26.563C17.4297 26.3829 17.5342 26.2937 17.5904 26.3972C17.654 26.4843 17.5501 26.6907 17.3343 26.9246ZM16.1637 27.7989C16.129 27.8808 16.0246 27.931 15.9405 27.893C15.8701 27.8613 15.8769 27.7668 15.9536 27.704C16.037 27.6248 16.1347 27.591 16.1767 27.61C16.2045 27.6227 16.2051 27.7008 16.1637 27.7989ZM15.2586 28.7546C15.0985 28.8966 14.9526 29.0059 14.9242 28.9932C14.8964 28.9806 14.9589 28.8333 15.077 28.6723C15.1951 28.5112 15.3415 28.4019 15.4256 28.44C15.4954 28.4716 15.4193 28.6125 15.2586 28.7546ZM2.65187 23.5799C2.54002 23.5683 2.37199 23.4923 2.30159 23.4216C2.22437 23.3282 2.3084 23.3271 2.50427 23.4158C2.70071 23.5044 2.7569 23.5688 2.65187 23.5799ZM14.8487 29.3295C14.8073 29.4277 14.7028 29.517 14.5984 29.5281C14.5075 29.5455 14.3542 29.7102 14.285 29.8739C14.2157 30.0375 14.0624 30.2023 13.9721 30.2197C13.7553 30.2583 14.0329 29.7208 14.4434 29.3022C14.6801 29.0582 14.9594 29.0677 14.8487 29.3295ZM2.62803 24.5438C2.544 24.584 2.46679 24.4906 2.45203 24.328C2.4015 23.8175 2.5406 23.6855 2.66777 24.0941C2.73193 24.2984 2.71149 24.5037 2.62803 24.5438ZM3.15603 25.6212C3.22018 25.8645 3.21394 26.0371 3.14411 26.0054C2.98287 25.9131 2.7007 25.3177 2.76316 25.1704C2.84605 24.974 3.04248 25.1798 3.15603 25.6212ZM13.3805 30.8295C13.3039 31.0095 13.1648 31.1024 13.0944 31.0318C13.0036 30.9711 12.8435 31.074 12.7322 31.2577C12.6141 31.4578 12.4608 31.5835 12.391 31.5518C12.2229 31.4759 12.2507 31.4104 12.8145 30.8661C13.3505 30.3481 13.5952 30.3222 13.3805 30.8295ZM3.64714 27.8123C3.60569 27.9105 3.54267 27.9016 3.47965 27.8144C3.43025 27.7337 3.41549 27.5711 3.45012 27.4893C3.49157 27.3911 3.56879 27.4064 3.61819 27.4871C3.68121 27.5742 3.68177 27.7305 3.64714 27.8123ZM11.6455 32.2092C11.3463 32.4441 11.1578 32.5344 11.2061 32.4199C11.31 32.1744 12.0833 31.5688 12.1259 31.705C12.14 31.7503 11.9243 31.9843 11.6455 32.2092ZM3.95712 28.4204C3.94406 28.5703 4.02127 28.7418 4.14731 28.7988C4.25916 28.8495 4.30913 29.0084 4.24668 29.1557C4.14959 29.3848 4.11496 29.3885 3.98779 29.0971C3.62841 28.2911 3.58524 27.9596 3.85095 28.0799C3.92078 28.1116 3.95655 28.2641 3.95712 28.4204ZM4.48058 30.0219C4.3835 30.1338 4.37725 30.3455 4.48285 30.4907C4.57426 30.6294 4.59583 30.7757 4.5118 30.8158C4.37952 30.8924 4.0684 29.9718 4.16491 29.7427C4.19273 29.6772 4.31878 29.6561 4.44482 29.7131C4.58448 29.7764 4.59924 29.8999 4.48058 30.0219ZM4.7179 31.6303C4.72641 32.0436 4.7196 32.06 4.5998 31.7523C4.50783 31.5744 4.47946 31.3664 4.51409 31.2845C4.61742 31.039 4.70881 31.1779 4.7179 31.6303ZM7.17056 33.2853C7.13593 33.3671 7.04509 33.4236 6.96107 33.3856C6.89124 33.354 6.85602 33.2405 6.89065 33.1587C6.9321 33.0605 7.02976 33.0266 7.09959 33.0583C7.18362 33.0963 7.212 33.1871 7.17056 33.2853ZM5.37479 33.3506C5.4327 33.9228 5.35718 34.22 5.14712 34.125C5.07729 34.0933 5.04889 33.9635 5.10396 33.8326C5.1596 33.7017 5.10282 33.481 4.9694 33.3622C4.73095 33.1374 4.72983 32.942 4.98134 32.8216C5.21809 32.6949 5.31688 32.8174 5.37479 33.3506ZM10.8075 35.7683C10.5356 35.8987 10.4226 35.6528 10.6667 35.4706C10.7502 35.3914 10.8757 35.4093 10.9392 35.4965C10.9955 35.5999 10.954 35.6981 10.8075 35.7683ZM7.01045 38.7109C6.92018 38.8065 6.74532 38.864 6.60566 38.8398C6.42398 38.7965 6.4024 38.7284 6.53469 38.5737C6.76406 38.3071 7.21938 38.4543 7.01045 38.7109Z" fill="#FF0090" fill-opacity="0.3"/>
</svg>
