<svg width="74" height="49" viewBox="0 0 74 49" fill="none" xmlns="http://www.w3.org/2000/svg">
<path d="M70.4736 15.8412C68.2805 13.5792 65.163 12.3431 61.3568 12.3431C56.6261 12.3431 52.9939 14.2644 50.9023 17.864V0H39.933V48.952H50.9023V31.7405C50.9023 27.7313 51.7251 25.1611 52.9613 23.6531C54.1575 22.1451 55.8395 21.5615 57.6556 21.5615C59.2688 21.5615 60.5339 22.0763 61.4256 23.0006C62.3174 23.9613 62.8321 25.4366 62.8321 27.492V48.9158H73.8014V25.3315C73.8014 21.3223 72.6341 18.0634 70.4773 15.834L70.4736 15.8412ZM21.4238 12.3431C16.6931 12.3431 13.0572 14.2644 10.9693 17.864V0H0V48.952H10.9693V31.7405C10.9693 27.7313 11.7885 25.1611 13.0246 23.6531C14.2209 22.1451 15.9029 21.5615 17.7226 21.5615C19.3321 21.5615 20.6009 22.0763 21.4926 23.0006C22.3808 23.9613 22.8955 25.4366 22.8955 27.492V48.9158H33.8647V25.3315C33.8647 21.3223 32.7011 18.0634 30.508 15.8014C28.3475 13.5394 25.2264 12.3395 21.4237 12.3395L21.4238 12.3431Z" fill="white"/>
</svg>
