<svg width="85" height="75" viewBox="0 0 85 75" fill="none" xmlns="http://www.w3.org/2000/svg">
<path d="M10.6504 22.5032C16.9272 9.97012 28.8823 1.5 42.6022 1.5C56.3375 1.5 68.2926 9.97012 74.554 22.5032" stroke="#280000" stroke-width="3" stroke-miterlimit="10" stroke-linecap="round"/>
<path d="M10.6504 51.6865C16.9272 64.2196 28.8823 72.6897 42.6022 72.6897C56.3221 72.6897 68.2926 64.2196 74.554 51.6865" stroke="#280000" stroke-width="3" stroke-miterlimit="10" stroke-linecap="round"/>
<path d="M8.69986 38.1251V35.7656L14.3684 43.4258H10.0185L6.48699 38.3412H8.24516L4.68335 43.4258H0.40918L6.10807 35.7656V38.1251L0.712313 30.9634H5.12289L8.32094 35.533H6.56277L9.70019 30.9634H14.0501L8.69986 38.1251ZM18.074 41.1826V38.0919H25.8645V41.1826H18.074ZM24.364 30.9634L29.4567 43.4258H25.6827L21.5601 32.6417H22.5149L18.3771 43.4258H14.6183L19.6957 30.9634H24.364ZM30.8746 43.4258V30.9634H34.3606V41.3487L33.4209 41.1161L39.3775 30.9634H43.9851V43.4258H40.4991V32.8079L41.4236 33.0405L35.3458 43.4258H30.8746ZM33.3148 27.0918H36.0582C36.1897 27.4241 36.3664 27.6789 36.5887 27.8562C36.8211 28.0223 37.094 28.1054 37.4071 28.1054C37.7305 28.1054 38.0033 28.0223 38.2256 27.8562C38.458 27.6789 38.6348 27.4241 38.7561 27.0918H41.5146C41.2721 28.1996 40.7871 28.9972 40.0595 29.4846C39.332 29.972 38.448 30.2157 37.4071 30.2157C36.3867 30.2157 35.5076 29.972 34.7699 29.4846C34.0424 28.9972 33.5573 28.1996 33.3148 27.0918ZM49.9435 32.6417H53.475V43.4258H49.9435V32.6417ZM45.73 30.9634H57.6885V34.403H45.73V30.9634ZM69.3608 35.8321V38.5572H60.9185V35.8321H69.3608ZM63.3284 37.1946V38.5572L62.6161 42.0134L61.2368 40.3351H69.8913V43.4258H59.1149V40.3102V37.1946V30.9634H69.8155V34.0541H61.2368L62.6161 32.3758L63.3284 35.8321V37.1946ZM72.0546 43.4258V30.9634H75.5557V40.385L74.6463 39.5708L80.6938 30.9634H84.392L75.2526 43.4258H72.0546ZM77.4958 37.5934L80.0876 35.3003L84.5588 43.4258H80.5574L77.4958 37.5934Z" fill="#280000"/>
<path d="M30.8486 47.6416V53.5807H29.5531V48.093L29.897 48.1167L27.3379 53.5807H25.9384L23.3794 48.1326L23.7153 48.1009V53.5807H22.4277V47.6416H24.515L26.9301 52.9314H26.3463L28.7614 47.6416H30.8486ZM37.4306 50.0965V51.1259H33.1362V50.0965H37.4306ZM34.0479 50.6112L33.648 53.1294L33.0562 52.4642H37.6785V53.5807H32.2805L32.7443 50.6112L32.2805 47.6416H37.6385V48.7582H33.0562L33.648 48.093L34.0479 50.6112ZM38.5853 54.7923V52.3929H39.7049L40.2807 52.4087H44.599L44.9269 52.3929H46.5423V54.7923H45.2708V53.5807H39.8568V54.7923H38.5853ZM39.8728 47.6416H45.4947V53.1531H44.1433V48.2118L44.751 48.8136H40.6006L41.1684 48.3781C41.2004 48.642 41.2217 48.9033 41.2323 49.162C41.243 49.4207 41.2483 49.6636 41.2483 49.8906C41.2483 50.5346 41.1977 51.081 41.0964 51.5298C40.9951 51.9732 40.8431 52.3111 40.6406 52.5434C40.438 52.7704 40.1874 52.8839 39.8888 52.8839L39.329 52.4167C39.5529 52.1633 39.7182 51.8069 39.8248 51.3476C39.9368 50.8831 39.9928 50.305 39.9928 49.6134C39.9928 49.3072 39.9821 48.9878 39.9608 48.6552C39.9395 48.3226 39.9102 47.9848 39.8728 47.6416ZM47.7745 53.5807V47.6416H49.1022V52.8997L48.6942 52.8205L52.4848 47.6416H54.2522V53.5807H52.9247V48.2514L53.3325 48.3305L49.494 53.5807H47.7745ZM56.8663 52.3296V51.2368H61.0247V52.3296H56.8663ZM59.849 47.6416L62.6561 53.5807H61.2086L58.7535 48.188H59.2012L56.7462 53.5807H55.2988L58.1056 47.6416H59.849Z" fill="#280000"/>
<mask id="mask0_225_262" style="mask-type:luminance" maskUnits="userSpaceOnUse" x="22" y="47" width="41" height="9">
<path d="M62.9475 47.4961H22.1885V55.0003H62.9475V47.4961Z" fill="white"/>
<path d="M30.8486 47.6416V53.5807H29.5531V48.093L29.897 48.1167L27.3379 53.5807H25.9384L23.3794 48.1326L23.7153 48.1009V53.5807H22.4277V47.6416H24.515L26.9301 52.9314H26.3463L28.7614 47.6416H30.8486ZM37.4306 50.0965V51.1259H33.1362V50.0965H37.4306ZM33.648 51.1259V53.1294L33.0562 52.4642H37.6785V53.5807H32.2805L32.7443 50.6112L32.2805 47.6416H37.6385V48.7582H33.0562L33.648 48.093V50.0965V51.1259ZM38.5853 54.7923V52.3929H39.7049L40.2807 52.4087H44.599L44.9269 52.3929H46.5423V54.7923H45.2708V53.5807H39.8568V54.7923H38.5853ZM39.8728 47.6416H45.4947V53.1531H44.1433V48.2118L44.751 48.8136H40.6006L41.1684 48.3781C41.2004 48.642 41.2217 48.9033 41.2323 49.162C41.243 49.4207 41.2483 49.6636 41.2483 49.8906C41.2483 50.5346 41.1977 51.081 41.0964 51.5298C40.9951 51.9732 40.8431 52.3111 40.6406 52.5434C40.438 52.7704 40.1874 52.8839 39.8888 52.8839L39.329 52.4167C39.5529 52.1633 39.7182 51.8069 39.8248 51.3476C39.9368 50.8831 39.9928 50.305 39.9928 49.6134C39.9928 49.3072 39.9821 48.9878 39.9608 48.6552C39.9395 48.3226 39.9102 47.9848 39.8728 47.6416ZM47.7745 53.5807V47.6416H49.1022V52.8997L48.6942 52.8205L52.4848 47.6416H54.2522V53.5807H52.9247V48.2514L53.3325 48.3305L49.494 53.5807H47.7745ZM56.8663 52.3296V51.2368H61.0247V52.3296H56.8663ZM59.849 47.6416L62.6561 53.5807H61.2086L58.7535 48.188H59.2012L56.7462 53.5807H55.2988L58.1056 47.6416H59.849Z" fill="black"/>
</mask>
<g mask="url(#mask0_225_262)">
<path d="M30.8485 47.6414H30.9509V47.54H30.8485V47.6414ZM30.8485 53.5806V53.682H30.9509V53.5806H30.8485ZM29.553 53.5806H29.4506V53.682H29.553V53.5806ZM29.553 48.0928L29.5601 47.9917L29.4506 47.9841V48.0928H29.553ZM29.8968 48.1166L29.9897 48.1592L30.0523 48.0257L29.904 48.0154L29.8968 48.1166ZM27.3378 53.5806V53.682H27.4032L27.4307 53.6233L27.3378 53.5806ZM25.9383 53.5806L25.8455 53.6234L25.873 53.682H25.9383V53.5806ZM23.3792 48.1324L23.3695 48.0315L23.2253 48.0451L23.2864 48.1752L23.3792 48.1324ZM23.7151 48.1007H23.8175V47.9892L23.7054 47.9998L23.7151 48.1007ZM23.7151 53.5806V53.682H23.8175V53.5806H23.7151ZM22.4276 53.5806H22.3252V53.682H22.4276V53.5806ZM22.4276 47.6414V47.54H22.3252V47.6414H22.4276ZM24.5148 47.6414L24.6081 47.5997L24.5809 47.54H24.5148V47.6414ZM26.9299 52.9313V53.0327H27.0886L27.0232 52.8895L26.9299 52.9313ZM26.3462 52.9313L26.2528 52.8895L26.1875 53.0327H26.3462V52.9313ZM28.7613 47.6414V47.54H28.6952L28.6679 47.5997L28.7613 47.6414ZM30.8485 47.6414H30.7461V53.5806H30.8485H30.9509V47.6414H30.8485ZM30.8485 53.5806V53.4792H29.553V53.5806V53.682H30.8485V53.5806ZM29.553 53.5806H29.6554V48.0928H29.553H29.4506V53.5806H29.553ZM29.553 48.0928L29.5458 48.194L29.8897 48.2177L29.8968 48.1166L29.904 48.0154L29.5601 47.9917L29.553 48.0928ZM29.8968 48.1166L29.8039 48.0739L27.2449 53.5379L27.3378 53.5806L27.4307 53.6233L29.9897 48.1592L29.8968 48.1166ZM27.3378 53.5806V53.4792H25.9383V53.5806V53.682H27.3378V53.5806ZM25.9383 53.5806L26.0312 53.5378L23.4721 48.0896L23.3792 48.1324L23.2864 48.1752L25.8455 53.6234L25.9383 53.5806ZM23.3792 48.1324L23.389 48.2334L23.7248 48.2017L23.7151 48.1007L23.7054 47.9998L23.3695 48.0315L23.3792 48.1324ZM23.7151 48.1007H23.6127V53.5806H23.7151H23.8175V48.1007H23.7151ZM23.7151 53.5806V53.4792H22.4276V53.5806V53.682H23.7151V53.5806ZM22.4276 53.5806H22.53V47.6414H22.4276H22.3252V53.5806H22.4276ZM22.4276 47.6414V47.7429H24.5148V47.6414V47.54H22.4276V47.6414ZM24.5148 47.6414L24.4215 47.6832L26.8366 52.973L26.9299 52.9313L27.0232 52.8895L24.6081 47.5997L24.5148 47.6414ZM26.9299 52.9313V52.8298H26.3462V52.9313V53.0327H26.9299V52.9313ZM26.3462 52.9313L26.4395 52.973L28.8546 47.6832L28.7613 47.6414L28.6679 47.5997L26.2528 52.8895L26.3462 52.9313ZM28.7613 47.6414V47.7429H30.8485V47.6414V47.54H28.7613V47.6414ZM37.4305 50.0963H37.5329V49.9949H37.4305V50.0963ZM37.4305 51.1257V51.2271H37.5329V51.1257H37.4305ZM33.1361 51.1257H33.0337V51.2271H33.1361V51.1257ZM33.1361 50.0963V49.9949H33.0337V50.0963H33.1361ZM33.6479 53.1292L34.6926 53.1951L33.7152 53.3583L33.4447 53.0542L33.6479 53.1292ZM33.0561 52.464V52.3626H32.8294L32.9793 52.5311L33.0561 52.464ZM37.6784 52.464H37.7808V52.3626H37.6784V52.464ZM37.6784 53.5806V53.682H37.7808V53.5806H37.6784ZM32.2804 53.5806L32.1792 53.5806V53.682L32.2804 53.682V53.5806ZM32.7442 50.611L32.8454 50.6265L32.7845 50.6048L32.8454 50.5955L32.7442 50.611ZM32.2804 47.6414V47.54H32.1609V47.6414L32.2804 47.6414ZM37.6384 47.6414H37.7408V47.54H37.6384V47.6414ZM37.6384 48.758V48.8594H37.7408V48.758H37.6384ZM33.0561 48.758L32.9793 48.691L32.8294 48.8594H33.0561V48.758ZM33.6479 48.0928L33.7491 48.0771L33.7152 47.8638L33.5711 48.0258L33.6479 48.0928ZM37.4305 50.0963H37.3281V51.1257H37.4305H37.5329V50.0963H37.4305ZM37.4305 51.1257V51.0243H33.1361V51.1257V51.2271H37.4305V51.1257ZM33.1361 51.1257H33.2385L33.0337 50.611L33.1361 50.0963H33.0337V51.1257H33.1361ZM33.1361 50.0963V50.1977H37.4305V50.0963V49.9949L33.5134 49.9949L33.1361 49.9949V50.0963ZM33.1329 50.5955L33.3613 51.8768L33.5467 53.1135L33.6479 53.1292L33.4447 53.0542L33.283 51.7992L33.1329 50.5955ZM33.6479 53.1292L33.7247 53.0622L33.1329 52.397L33.0561 52.464L32.9793 52.5311L34.6926 53.1951L33.6479 53.1292ZM33.0561 52.464V52.5654H37.6784V52.464V52.3626H33.0561V52.464ZM37.6784 52.464H37.576V53.5806H37.6784H37.7808V52.464H37.6784ZM37.6784 53.5806V53.4792H32.2804V53.5806V53.682H37.6784V53.5806ZM32.2804 53.5806L32.3816 53.5961L32.8454 50.6265L32.7442 50.611L32.1792 50.5955V53.5806L32.2804 53.5806ZM32.7442 50.611L32.8454 50.5955L32.3816 47.6259L32.2804 47.6414L32.1609 47.6414L32.1792 50.5955L32.7442 50.611ZM32.2804 47.6414V47.7429H37.6384V47.6414V47.54H32.2804V47.6414ZM37.6384 47.6414H37.536V48.758H37.6384H37.7408V47.6414H37.6384ZM37.6384 48.758V48.6566H33.0561V48.758V48.8594H37.6384V48.758ZM33.0561 48.758L33.1361 48.2177L33.7247 48.1599L33.6479 48.0928L33.5711 48.0258L32.9793 48.691L33.0561 48.758ZM33.6479 48.0928L33.5467 48.1086L33.1329 50.5955L33.7491 48.0771L33.6479 48.0928ZM38.5852 54.7922H38.4828V54.8936H38.5852V54.7922ZM38.5852 52.3928V52.2913H38.4828V52.3928H38.5852ZM39.7048 52.3928L39.7076 52.2913H39.7048V52.3928ZM40.2806 52.4086L40.2777 52.51H40.2806V52.4086ZM44.5989 52.4086V52.51H44.6016L44.604 52.5099L44.5989 52.4086ZM44.9268 52.3928V52.2913H44.9243L44.9219 52.2915L44.9268 52.3928ZM46.5422 52.3928H46.6446V52.2913H46.5422V52.3928ZM46.5422 54.7922V54.8936H46.6446V54.7922H46.5422ZM45.2707 54.7922H45.1683V54.8936H45.2707V54.7922ZM45.2707 53.5806H45.3731V53.4792H45.2707V53.5806ZM39.8567 53.5806V53.4792H39.7543V53.5806H39.8567ZM39.8567 54.7922V54.8936H39.9591V54.7922H39.8567ZM39.8727 47.6414V47.54H39.7587L39.7709 47.6523L39.8727 47.6414ZM45.4946 47.6414H45.597V47.54H45.4946V47.6414ZM45.4946 53.153V53.2544H45.597V53.153H45.4946ZM44.1432 53.153H44.0408V53.2544H44.1432V53.153ZM44.1432 48.2116L44.2155 48.1399L44.0408 47.9668V48.2116H44.1432ZM44.7509 48.8134V48.9148H44.9981L44.8234 48.7417L44.7509 48.8134ZM40.6004 48.8134L40.5377 48.7333L40.301 48.9148H40.6004V48.8134ZM41.1682 48.3779L41.2699 48.3658L41.2484 48.1881L41.1055 48.2977L41.1682 48.3779ZM41.0963 51.5296L41.1961 51.552L41.1962 51.5517L41.0963 51.5296ZM40.6404 52.5432L40.7172 52.6104L40.7179 52.6095L40.6404 52.5432ZM39.8887 52.8837L39.8227 52.9613L39.8513 52.9851H39.8887V52.8837ZM39.3289 52.4165L39.2518 52.3497L39.1831 52.4275L39.2629 52.4941L39.3289 52.4165ZM39.8247 51.3475L39.7251 51.3239L39.7249 51.3248L39.8247 51.3475ZM38.5852 54.7922H38.6876V52.3928H38.5852H38.4828V54.7922H38.5852ZM38.5852 52.3928V52.4942H39.7048V52.3928V52.2913H38.5852V52.3928ZM39.7048 52.3928L39.7019 52.4941L40.2777 52.51L40.2806 52.4086L40.2834 52.3072L39.7076 52.2913L39.7048 52.3928ZM40.2806 52.4086V52.51H44.5989V52.4086V52.3072H40.2806V52.4086ZM44.5989 52.4086L44.604 52.5099L44.9319 52.4941L44.9268 52.3928L44.9219 52.2915L44.594 52.3073L44.5989 52.4086ZM44.9268 52.3928V52.4942H46.5422V52.3928V52.2913H44.9268V52.3928ZM46.5422 52.3928H46.4398V54.7922H46.5422H46.6446V52.3928H46.5422ZM46.5422 54.7922V54.6908H45.2707V54.7922V54.8936H46.5422V54.7922ZM45.2707 54.7922H45.3731V53.5806H45.2707H45.1683V54.7922H45.2707ZM45.2707 53.5806V53.4792H39.8567V53.5806V53.682H45.2707V53.5806ZM39.8567 53.5806H39.7543V54.7922H39.8567H39.9591V53.5806H39.8567ZM39.8567 54.7922V54.6908H38.5852V54.7922V54.8936H39.8567V54.7922ZM39.8727 47.6414V47.7429H45.4946V47.6414V47.54H39.8727V47.6414ZM45.4946 47.6414H45.3922V53.153H45.4946H45.597V47.6414H45.4946ZM45.4946 53.153V53.0516H44.1432V53.153V53.2544H45.4946V53.153ZM44.1432 53.153H44.2456V48.2116H44.1432H44.0408V53.153H44.1432ZM44.1432 48.2116L44.0707 48.2833L44.6786 48.8851L44.7509 48.8134L44.8234 48.7417L44.2155 48.1399L44.1432 48.2116ZM44.7509 48.8134V48.712H40.6004V48.8134V48.9148H44.7509V48.8134ZM40.6004 48.8134L40.6631 48.8936L41.2309 48.4581L41.1682 48.3779L41.1055 48.2977L40.5377 48.7333L40.6004 48.8134ZM41.1682 48.3779L41.0666 48.39C41.0982 48.6514 41.1193 48.91 41.1299 49.166L41.2322 49.1619L41.3345 49.1577C41.3237 48.8963 41.3022 48.6323 41.2699 48.3658L41.1682 48.3779ZM41.2322 49.1619L41.1299 49.166C41.1405 49.4235 41.1458 49.6649 41.1458 49.8904H41.2482H41.3506C41.3506 49.6618 41.3452 49.4176 41.3345 49.1577L41.2322 49.1619ZM41.2482 49.8904H41.1458C41.1458 50.5297 41.0955 51.0683 40.9963 51.5075L41.0963 51.5296L41.1962 51.5517C41.2996 51.0935 41.3506 50.5392 41.3506 49.8904H41.2482ZM41.0963 51.5296L40.9964 51.5072C40.8971 51.9417 40.7505 52.2619 40.5629 52.4769L40.6404 52.5432L40.7179 52.6095C40.9355 52.36 41.0928 52.0044 41.1961 51.552L41.0963 51.5296ZM40.6404 52.5432L40.5637 52.4761C40.38 52.6819 40.1571 52.7823 39.8887 52.7823V52.8837V52.9851C40.2174 52.9851 40.4957 52.8585 40.7172 52.6104L40.6404 52.5432ZM39.8887 52.8837L39.9547 52.8062L39.3949 52.339L39.3289 52.4165L39.2629 52.4941L39.8227 52.9613L39.8887 52.8837ZM39.3289 52.4165L39.406 52.4833C39.6446 52.2133 39.8155 51.8397 39.9245 51.3702L39.8247 51.3475L39.7249 51.3248C39.6207 51.7739 39.4611 52.113 39.2518 52.3497L39.3289 52.4165ZM39.8247 51.3475L39.9243 51.371C40.0388 50.8961 40.0951 50.3096 40.0951 49.6132H39.9927H39.8903C39.8903 50.3001 39.8346 50.8697 39.7251 51.3239L39.8247 51.3475ZM39.9927 49.6132H40.0951C40.0951 49.3047 40.0843 48.9832 40.0629 48.6486L39.9607 48.6551L39.8585 48.6615C39.8797 48.9921 39.8903 49.3094 39.8903 49.6132H39.9927ZM39.9607 48.6551L40.0629 48.6486C40.0415 48.3145 40.012 47.9752 39.9745 47.6306L39.8727 47.6414L39.7709 47.6523C39.808 47.994 39.8373 48.3304 39.8585 48.6615L39.9607 48.6551ZM47.7744 53.5806H47.672V53.682H47.7744V53.5806ZM47.7744 47.6414V47.54H47.672V47.6414H47.7744ZM49.102 47.6414H49.2045V47.54H49.102V47.6414ZM49.102 52.8996L49.0822 52.9991L49.2045 53.0228V52.8996H49.102ZM48.694 52.8204L48.6113 52.7609L48.5171 52.8894L48.6744 52.9199L48.694 52.8204ZM52.4846 47.6414V47.54H52.4324L52.4019 47.5819L52.4846 47.6414ZM54.252 47.6414H54.3544V47.54H54.252V47.6414ZM54.252 53.5806V53.682H54.3544V53.5806H54.252ZM52.9246 53.5806H52.8222V53.682H52.9246V53.5806ZM52.9246 48.2512L52.9443 48.1517L52.8222 48.128V48.2512H52.9246ZM53.3324 48.3304L53.4153 48.3899L53.5093 48.2614L53.352 48.2309L53.3324 48.3304ZM49.4939 53.5806V53.682H49.5461L49.5768 53.6401L49.4939 53.5806ZM47.7744 53.5806H47.8768V47.6414H47.7744H47.672V53.5806H47.7744ZM47.7744 47.6414V47.7429H49.102V47.6414V47.54H47.7744V47.6414ZM49.102 47.6414H48.9996V52.8996H49.102H49.2045V47.6414H49.102ZM49.102 52.8996L49.1217 52.8001L48.7139 52.7209L48.694 52.8204L48.6744 52.9199L49.0822 52.9991L49.102 52.8996ZM48.694 52.8204L48.777 52.8799L52.5676 47.701L52.4846 47.6414L52.4019 47.5819L48.6113 52.7609L48.694 52.8204ZM52.4846 47.6414V47.7429H54.252V47.6414V47.54H52.4846V47.6414ZM54.252 47.6414H54.1496V53.5806H54.252H54.3544V47.6414H54.252ZM54.252 53.5806V53.4792H52.9246V53.5806V53.682H54.252V53.5806ZM52.9246 53.5806H53.027V48.2512H52.9246H52.8222V53.5806H52.9246ZM52.9246 48.2512L52.9049 48.3507L53.3127 48.4299L53.3324 48.3304L53.352 48.2309L52.9443 48.1517L52.9246 48.2512ZM53.3324 48.3304L53.2494 48.2709L49.4109 53.5211L49.4939 53.5806L49.5768 53.6401L53.4153 48.3899L53.3324 48.3304ZM49.4939 53.5806V53.4792H47.7744V53.5806V53.682H49.4939V53.5806ZM56.8661 52.3294H56.7637V52.4308H56.8661V52.3294ZM56.8661 51.2366V51.1352H56.7637V51.2366H56.8661ZM61.0246 51.2366H61.127V51.1352H61.0246V51.2366ZM61.0246 52.3294V52.4308H61.127V52.3294H61.0246ZM59.8489 47.6414L59.9417 47.5985L59.914 47.54H59.8489V47.6414ZM62.656 53.5806V53.682H62.817L62.7487 53.5376L62.656 53.5806ZM61.2085 53.5806L61.1151 53.6223L61.1423 53.682H61.2085V53.5806ZM58.7533 48.1878V48.0864H58.5948L58.6599 48.2295L58.7533 48.1878ZM59.2013 48.1878L59.2945 48.2295L59.3596 48.0864H59.2013V48.1878ZM56.7461 53.5806V53.682H56.8123L56.8395 53.6223L56.7461 53.5806ZM55.2986 53.5806L55.2059 53.5376L55.1377 53.682H55.2986V53.5806ZM58.1055 47.6414V47.54H58.0404L58.0129 47.5985L58.1055 47.6414ZM56.8661 52.3294H56.9685V51.2366H56.8661H56.7637V52.3294H56.8661ZM56.8661 51.2366V51.338H61.0246V51.2366V51.1352H56.8661V51.2366ZM61.0246 51.2366H60.9222V52.3294H61.0246H61.127V51.2366H61.0246ZM61.0246 52.3294V52.228H56.8661V52.3294V52.4308H61.0246V52.3294ZM59.8489 47.6414L59.7561 47.6844L62.5632 53.6236L62.656 53.5806L62.7487 53.5376L59.9417 47.5985L59.8489 47.6414ZM62.656 53.5806V53.4792H61.2085V53.5806V53.682H62.656V53.5806ZM61.2085 53.5806L61.3017 53.5389L58.8467 48.1462L58.7533 48.1878L58.6599 48.2295L61.1151 53.6223L61.2085 53.5806ZM58.7533 48.1878V48.2893H59.2013V48.1878V48.0864H58.7533V48.1878ZM59.2013 48.1878L59.1079 48.1462L56.6527 53.5389L56.7461 53.5806L56.8395 53.6223L59.2945 48.2295L59.2013 48.1878ZM56.7461 53.5806V53.4792H55.2986V53.5806V53.682H56.7461V53.5806ZM55.2986 53.5806L55.3914 53.6236L58.1983 47.6844L58.1055 47.6414L58.0129 47.5985L55.2059 53.5376L55.2986 53.5806ZM58.1055 47.6414V47.7429H59.8489V47.6414V47.54H58.1055V47.6414Z" fill="#280000"/>
</g>
</svg>
