<svg width="164" height="44" viewBox="0 0 164 44" fill="none" xmlns="http://www.w3.org/2000/svg">
<mask id="mask0_225_225" style="mask-type:luminance" maskUnits="userSpaceOnUse" x="0" y="0" width="164" height="44">
<path d="M164 0H0V43.2248H164V0Z" fill="white"/>
</mask>
<g mask="url(#mask0_225_225)">
<path d="M76.8594 35.4889L80.1428 32.2505L83.4262 35.4889L80.1428 42.2355L76.8594 35.4889Z" fill="#ED5338"/>
<path d="M79.6923 13.6299C78.4329 13.6299 77.3984 14.6194 77.3984 15.8788C77.3984 17.1381 78.4329 18.1276 79.6923 18.1276C80.9516 18.1276 81.9861 17.1381 81.9861 15.8788C81.9861 14.6194 80.9516 13.6299 79.6923 13.6299Z" fill="#C59368"/>
<path d="M80.143 3.50977C79.4684 3.86959 70.293 8.59223 70.293 16.1935C70.293 22.6702 75.6903 32.4753 75.6903 32.4753L80.143 28.1125L84.5958 32.4753C84.5958 32.4753 89.9931 22.6702 89.9931 16.1935C89.9931 8.59223 80.8627 3.86959 80.143 3.50977ZM83.0666 25.144L80.143 22.2654L77.2195 25.144C77.0846 24.7392 75.1056 19.5218 75.1056 16.1035C75.1056 11.4708 79.8282 8.90707 80.188 8.72716C80.5478 8.90707 85.2705 11.5158 85.2705 16.1035C85.2255 19.5218 83.2465 24.7392 83.0666 25.144Z" fill="#C59368"/>
<path d="M89.9944 6.83826L86.6211 3.50992L89.9944 0.226562L93.3227 3.50992L89.9944 6.83826Z" fill="#C59368"/>
<path d="M9.70912 19.0723C9.21437 19.2073 8.35979 19.4321 7.50522 19.6121C6.7406 19.792 5.70612 19.9269 4.67164 20.2867C3.05245 20.8714 2.19787 22.5356 2.01796 24.6046C2.01796 24.7395 1.92801 24.8744 1.92801 25.0094H2.01796C2.64765 23.66 4.40177 22.7605 6.06594 22.7605C8.9445 22.7605 10.8786 24.6495 10.8786 27.5731C10.8786 30.0918 8.89952 32.6106 5.57119 32.6106C1.97298 32.5656 0.128906 29.687 0.128906 25.9989C0.128906 21.9509 1.29832 19.747 3.90702 18.6675C4.67164 18.3527 5.3463 18.2627 5.93101 18.1278C7.37029 17.8579 8.22486 17.678 9.12441 17.4082L9.70912 19.0723ZM5.57119 30.9464C7.41527 30.9464 8.85455 29.5521 8.85455 27.6181C8.85455 25.5491 7.59518 24.3347 5.57119 24.3347C4.22186 24.3347 2.60267 25.4142 2.06294 26.7185C2.10792 28.9674 3.36729 30.9464 5.57119 30.9464Z" fill="#280000"/>
<path d="M13.9807 32.2503H12.2266V22.5802H14.2056V28.877C14.2056 29.1019 14.1607 29.3268 14.1157 29.4617C14.1607 29.4617 14.2056 29.4617 14.2056 29.4617L19.8278 22.5352H21.582V32.2054H19.6029V25.9085C19.6029 25.6836 19.6479 25.4138 19.6929 25.2788H19.6029L13.9807 32.2503Z" fill="#280000"/>
<path d="M22.8438 31.261L23.6084 29.8667C24.418 30.4963 25.5875 30.9461 26.622 30.9461C28.1062 30.9461 29.0506 30.3164 29.0506 29.3719C29.0506 28.5623 28.466 28.1575 27.2516 28.1575H25.5875V26.6733H27.1616C28.1511 26.6733 28.7359 26.1335 28.7359 25.3689C28.7359 24.5143 28.0612 23.9746 26.7569 23.9746C25.8124 23.9746 24.6879 24.3344 23.8334 25.0091L23.0687 23.6598C24.2382 22.7602 25.6774 22.4004 27.0268 22.4004C29.4106 22.4004 30.7148 23.4349 30.7148 25.0541C30.7148 26.1785 30.1302 26.9431 29.0058 27.3479V27.3929C30.3101 27.5278 31.0746 28.4724 31.0746 29.6867C31.0746 31.4859 29.2756 32.7002 26.8918 32.7002C25.1827 32.5653 23.6984 32.0256 22.8438 31.261Z" fill="#280000"/>
<path d="M39.7101 32.2503V28.0674H34.4027V32.2503H32.4688V22.5801H34.4027V26.5381H39.7101V22.5801H41.6441V32.2503H39.7101Z" fill="#280000"/>
<path d="M52.5743 28.1126C52.5743 27.9327 52.6193 27.7078 52.6193 27.5279C52.6193 24.6043 51.18 22.3555 47.8067 22.3555C44.9282 22.3555 43.0391 24.6043 43.0391 27.5279C43.0391 30.4514 44.9282 32.6103 48.3914 32.6103C50.0556 32.6103 51.4499 32.1156 52.4844 31.306L51.7198 29.9117C50.9551 30.4514 49.8307 30.9912 48.4364 30.9912C46.2775 30.9912 45.243 29.8217 45.0631 28.1576H52.5743V28.1126ZM47.8967 23.9747C49.6508 23.9747 50.5503 25.1441 50.6853 26.6283H45.0631C45.3329 25.0991 46.4124 23.9747 47.8967 23.9747Z" fill="#280000"/>
<path d="M59.2312 23.9747C60.2207 23.9747 61.2102 24.2446 62.3796 24.9642C62.3796 24.9642 62.8744 24.0647 63.1892 23.5249C62.0198 22.7153 60.6705 22.3105 59.1862 22.3105C56.0378 22.3105 53.8789 24.5144 53.8789 27.438C53.8789 30.3165 55.9928 32.5654 59.1862 32.5654C60.7605 32.5654 62.1098 32.1156 63.1443 31.3061L62.3796 29.9117C61.615 30.4515 60.5356 30.9013 59.3212 30.9013C57.2972 30.9013 55.8579 29.417 55.8579 27.348C55.8579 25.5489 57.0723 23.9747 59.2312 23.9747Z" fill="#280000"/>
<path d="M52.3047 20.6917V11.0215H55.588C55.588 11.0215 55.588 15.2045 55.588 15.5193C55.588 15.8341 55.4981 16.2389 55.4981 16.2389H55.633L59.2312 11.0215H62.3796V20.6917H59.0963V16.149C59.0963 15.8341 59.1862 15.5193 59.1862 15.5193H59.0513L55.4531 20.6917H52.3047Z" fill="#280000"/>
<path d="M45.5126 10.751C48.661 10.751 50.9998 12.9099 50.9998 15.8335C50.9998 18.712 48.661 20.871 45.5126 20.871C42.4091 20.871 40.0703 18.712 40.0703 15.8335C40.0703 12.9549 42.4091 10.751 45.5126 10.751ZM45.5126 17.9024C46.727 17.9024 47.4916 17.0029 47.4916 15.8335C47.4916 14.6641 46.682 13.7645 45.5126 13.7645C44.3432 13.7645 43.5336 14.6641 43.5336 15.8335C43.5336 17.0029 44.3432 17.9024 45.5126 17.9024Z" fill="#280000"/>
<path d="M36.1107 11.021C36.1107 11.021 33.3671 14.5293 33.2322 14.6642C33.0973 14.8441 33.0973 14.9341 33.0973 14.9341H32.9623C32.9623 14.9341 32.9173 14.8441 32.8274 14.6642C32.6475 14.4393 29.7689 11.021 29.7689 11.021H27.1602V20.6912H30.3536V16.6432C30.3536 16.1935 30.2637 15.9236 30.2637 15.9236H30.3986L32.9623 18.8022H33.0973L35.4811 15.9236H35.616C35.616 15.9236 35.526 16.1935 35.526 16.6432V20.6912H38.7194V11.021H36.1107Z" fill="#280000"/>
<path d="M57.9236 6.83838C57.9236 7.51304 57.6088 7.91784 57.0691 7.91784C56.5293 7.91784 56.2145 7.51304 56.2145 6.83838H53.3359C53.4259 8.90735 54.6403 10.2567 57.114 10.2567C59.4079 10.2567 60.7122 8.81739 60.8022 6.83838H57.9236Z" fill="#280000"/>
<path d="M103.039 13.9901V10.9766H104.074V13.8102C104.074 14.9346 104.568 15.4744 105.603 15.4744C106.008 15.4744 106.367 15.4294 106.682 15.3394C107.042 15.2495 107.312 15.1146 107.492 14.9346V10.9766H108.526V19.5223H107.492V15.8342C107.267 15.9691 106.997 16.0591 106.592 16.194C106.232 16.3289 105.828 16.3739 105.333 16.3739C104.973 16.3739 104.658 16.3289 104.388 16.239C104.118 16.149 103.849 16.0141 103.624 15.8342C103.399 15.6543 103.264 15.3844 103.129 15.1146C103.084 14.8447 103.039 14.4399 103.039 13.9901Z" fill="#280000"/>
<path d="M109.648 13.4053H110.772L112.256 17.3634L112.571 18.5328H112.616L112.841 17.3184L114.145 13.4053H115.135L113.291 18.8926C113.156 19.2974 113.021 19.6572 112.886 20.062C112.751 20.4218 112.616 20.7816 112.436 21.0515C112.256 21.3664 112.076 21.5912 111.897 21.7712C111.672 21.9511 111.447 22.041 111.177 22.041C110.862 22.041 110.637 21.996 110.457 21.9061L110.637 21.0515C110.727 21.0965 110.862 21.0965 110.952 21.0965C111.177 21.0965 111.402 20.9616 111.627 20.7367C111.852 20.5118 112.032 20.107 112.166 19.4773L109.648 13.4053Z" fill="#280000"/>
<path d="M116.172 19.5223V13.4504C116.442 13.4504 116.757 13.4054 117.072 13.4054C117.387 13.4054 117.792 13.3604 118.241 13.3604C119.051 13.3604 119.636 13.4953 119.996 13.7202C120.355 13.9901 120.535 14.3499 120.535 14.8447C120.535 15.1145 120.445 15.4294 120.265 15.6543C120.085 15.9241 119.816 16.104 119.411 16.239V16.2839C119.906 16.3739 120.265 16.5538 120.445 16.7787C120.625 17.0036 120.76 17.3634 120.76 17.7682C120.76 18.3979 120.535 18.8477 120.041 19.1625C119.591 19.4324 118.871 19.5673 117.972 19.5673C117.612 19.5673 117.297 19.5673 116.982 19.5223C116.757 19.5673 116.487 19.5223 116.172 19.5223ZM117.162 16.0141H118.376C118.511 16.0141 118.691 15.9691 118.826 15.9241C118.961 15.8791 119.096 15.7892 119.186 15.7442C119.276 15.6543 119.366 15.5643 119.456 15.4294C119.546 15.2944 119.546 15.2045 119.546 15.0696C119.546 14.7547 119.456 14.5298 119.231 14.3949C119.006 14.26 118.691 14.215 118.196 14.215C117.927 14.215 117.702 14.215 117.567 14.215C117.432 14.215 117.252 14.215 117.117 14.26V16.0141H117.162ZM117.162 18.7127C117.342 18.7127 117.477 18.7577 117.612 18.7577C117.747 18.7577 117.927 18.7577 118.151 18.7577C118.691 18.7577 119.096 18.6678 119.411 18.5328C119.681 18.3979 119.816 18.128 119.816 17.7232C119.816 17.4084 119.681 17.1835 119.456 17.0036C119.231 16.8237 118.826 16.7337 118.241 16.7337H117.162V18.7127Z" fill="#280000"/>
<path d="M121.793 17.9031C121.793 17.5433 121.883 17.2285 122.018 17.0036C122.152 16.7787 122.377 16.5538 122.647 16.4189C122.917 16.2839 123.232 16.194 123.637 16.104C123.997 16.0591 124.446 16.0141 124.896 16.0141C125.031 16.0141 125.121 16.0141 125.256 16.0141C125.391 16.0141 125.481 16.0141 125.616 16.0591C125.661 15.8342 125.661 15.6093 125.661 15.3844C125.661 14.9346 125.571 14.6198 125.391 14.4399C125.211 14.26 124.896 14.17 124.401 14.17C124.266 14.17 124.086 14.17 123.952 14.215C123.772 14.215 123.637 14.26 123.457 14.3049C123.277 14.3499 123.142 14.3949 122.962 14.4399C122.827 14.4848 122.692 14.5298 122.557 14.6198L122.242 13.9001C122.557 13.7202 122.917 13.5853 123.367 13.4953C123.772 13.4054 124.221 13.3604 124.671 13.3604C125.121 13.3604 125.436 13.4054 125.706 13.5403C125.976 13.6752 126.155 13.8102 126.29 13.9901C126.425 14.17 126.515 14.3949 126.56 14.5748C126.605 14.7547 126.605 15.0246 126.605 15.2495C126.605 15.7442 126.605 16.194 126.56 16.6887C126.515 17.1835 126.515 17.5883 126.515 17.9931C126.515 18.3079 126.515 18.5778 126.56 18.8477C126.605 19.1175 126.65 19.3874 126.695 19.6123H126.021L125.751 18.7577H125.616C125.526 18.8926 125.436 18.9826 125.346 19.0726C125.211 19.2075 125.076 19.2974 124.941 19.3874C124.761 19.4773 124.581 19.5673 124.401 19.6123C124.176 19.6573 123.952 19.7022 123.682 19.7022C123.412 19.7022 123.187 19.6573 122.962 19.5673C122.737 19.4774 122.557 19.3874 122.377 19.2075C122.197 19.0726 122.062 18.8926 121.973 18.6678C121.838 18.3979 121.793 18.173 121.793 17.9031ZM122.827 17.7682C122.827 18.0381 122.917 18.3079 123.142 18.4878C123.367 18.6678 123.592 18.7577 123.952 18.7577C124.176 18.7577 124.401 18.7127 124.581 18.6678C124.761 18.6228 124.941 18.5328 125.031 18.4429C125.166 18.3529 125.256 18.263 125.346 18.128C125.436 17.9931 125.481 17.9031 125.526 17.8132V16.8237C125.391 16.8237 125.301 16.8237 125.166 16.8237C125.031 16.8237 124.941 16.8237 124.806 16.8237C124.536 16.8237 124.311 16.8237 124.042 16.8687C123.817 16.9136 123.592 16.9586 123.412 17.0486C123.232 17.1385 123.097 17.2285 122.962 17.3634C122.917 17.4084 122.827 17.5883 122.827 17.7682Z" fill="#280000"/>
<path d="M128.359 19.5218V13.4048H129.349V18.6672H131.463V13.4048H132.452V18.6672H134.566V13.4048H135.556V19.5218H128.359Z" fill="#280000"/>
<path d="M137.086 16.4639C137.086 15.4294 137.311 14.6198 137.806 14.0801C138.255 13.5403 138.93 13.2705 139.83 13.2705C140.234 13.2705 140.549 13.3154 140.864 13.3604C141.134 13.4054 141.404 13.4954 141.629 13.6303L141.359 14.4849C141.179 14.3949 140.954 14.3049 140.729 14.215C140.504 14.125 140.234 14.125 139.965 14.125C138.795 14.125 138.21 14.8897 138.21 16.4639C138.21 16.7787 138.255 17.0486 138.3 17.3634C138.345 17.6333 138.48 17.9031 138.615 18.128C138.75 18.3529 138.93 18.5328 139.2 18.6678C139.47 18.8027 139.74 18.8477 140.055 18.8477C140.369 18.8477 140.639 18.8027 140.864 18.7127C141.089 18.6228 141.269 18.5328 141.449 18.3979L141.764 19.1625C141.539 19.3424 141.224 19.4774 140.864 19.5673C140.504 19.6573 140.189 19.7022 139.785 19.7022C139.29 19.7022 138.885 19.6123 138.57 19.4774C138.255 19.3424 137.986 19.1175 137.761 18.8477C137.536 18.5778 137.401 18.218 137.311 17.8132C137.131 17.4084 137.086 16.9586 137.086 16.4639Z" fill="#280000"/>
<path d="M142.934 19.5223V13.4053H143.924V16.149L144.463 15.969L146.442 13.4053H147.522L145.588 15.8791L145.048 16.2839L145.678 16.7786L147.747 19.5223H146.532L144.463 16.7786H143.879V19.5223H142.934Z" fill="#280000"/>
<path d="M148.285 17.9031C148.285 17.5433 148.375 17.2285 148.51 17.0036C148.645 16.7787 148.87 16.5538 149.14 16.4189C149.41 16.2839 149.725 16.194 150.13 16.104C150.489 16.0591 150.939 16.0141 151.389 16.0141C151.524 16.0141 151.614 16.0141 151.749 16.0141C151.884 16.0141 151.974 16.0141 152.109 16.0591C152.154 15.8342 152.154 15.6093 152.154 15.3844C152.154 14.9346 152.064 14.6198 151.884 14.4399C151.704 14.26 151.389 14.17 150.894 14.17C150.759 14.17 150.579 14.17 150.444 14.215C150.264 14.215 150.13 14.26 149.95 14.3049C149.77 14.3499 149.635 14.3949 149.455 14.4399C149.32 14.4848 149.185 14.5298 149.05 14.6198L148.735 13.9001C149.05 13.7202 149.41 13.5853 149.86 13.4953C150.264 13.4054 150.714 13.3604 151.164 13.3604C151.614 13.3604 151.929 13.4054 152.199 13.5403C152.468 13.6752 152.648 13.8102 152.783 13.9901C152.918 14.17 153.008 14.3949 153.053 14.5748C153.098 14.7547 153.098 15.0246 153.098 15.2495C153.098 15.7442 153.098 16.194 153.053 16.6887C153.008 17.1835 153.008 17.5883 153.008 17.9931C153.008 18.3079 153.008 18.5778 153.053 18.8477C153.098 19.1175 153.143 19.3874 153.188 19.6123H152.513L152.243 18.7577H152.154C152.064 18.8926 151.974 18.9826 151.884 19.0726C151.749 19.2075 151.614 19.2974 151.479 19.3874C151.299 19.4773 151.119 19.5673 150.939 19.6123C150.714 19.6573 150.489 19.7022 150.219 19.7022C149.95 19.7022 149.725 19.6573 149.5 19.5673C149.275 19.4774 149.095 19.3874 148.915 19.2075C148.735 19.0726 148.6 18.8926 148.51 18.6678C148.33 18.3979 148.285 18.173 148.285 17.9031ZM149.32 17.7682C149.32 18.0381 149.41 18.3079 149.635 18.4878C149.86 18.6678 150.085 18.7577 150.444 18.7577C150.669 18.7577 150.894 18.7127 151.074 18.6678C151.254 18.6228 151.434 18.5328 151.524 18.4429C151.659 18.3529 151.749 18.263 151.839 18.128C151.929 17.9931 151.974 17.9031 152.019 17.8132V16.8237C151.884 16.8237 151.794 16.8237 151.659 16.8237C151.524 16.8237 151.434 16.8237 151.299 16.8237C151.029 16.8237 150.804 16.8237 150.534 16.8687C150.309 16.9136 150.085 16.9586 149.905 17.0486C149.725 17.1385 149.59 17.2285 149.455 17.3634C149.41 17.4084 149.32 17.5883 149.32 17.7682Z" fill="#280000"/>
<path d="M154.133 19.5223L155.617 17.4534L156.112 17.0036C155.662 16.9586 155.302 16.7787 155.032 16.4639C154.762 16.149 154.582 15.7892 154.582 15.3394C154.582 14.9796 154.627 14.6648 154.762 14.3949C154.897 14.125 155.077 13.9001 155.302 13.7652C155.527 13.5853 155.842 13.4504 156.156 13.4054C156.471 13.3154 156.876 13.2705 157.281 13.2705C157.596 13.2705 157.866 13.2705 158.135 13.3154C158.405 13.3604 158.675 13.4054 158.9 13.4504V19.5223H157.911V17.0486L156.966 17.1835L155.347 19.5223H154.133ZM155.617 15.2945C155.617 15.6543 155.752 15.9241 156.067 16.149C156.381 16.3739 156.741 16.4639 157.236 16.4639C157.236 16.4639 157.236 16.4639 157.281 16.4639C157.281 16.4639 157.326 16.4639 157.371 16.4639C157.416 16.4639 157.506 16.4639 157.596 16.4639C157.686 16.4639 157.821 16.4639 158.001 16.4639V14.3049C157.911 14.26 157.776 14.215 157.641 14.215C157.506 14.215 157.371 14.17 157.281 14.17C156.741 14.17 156.336 14.26 156.067 14.4399C155.752 14.6198 155.617 14.8897 155.617 15.2945Z" fill="#280000"/>
<path d="M102.992 32.3857V23.9299C103.307 23.84 103.667 23.795 104.026 23.795C104.386 23.75 104.746 23.75 105.106 23.75C105.466 23.75 105.871 23.795 106.275 23.84C106.68 23.9299 107.04 24.0648 107.355 24.2448C107.67 24.4247 107.94 24.6945 108.164 25.0543C108.389 25.4142 108.479 25.819 108.479 26.3587C108.479 26.8984 108.389 27.3032 108.209 27.663C108.029 28.0229 107.76 28.2927 107.445 28.5176C107.13 28.7425 106.77 28.9224 106.365 29.0124C105.96 29.1023 105.556 29.1473 105.106 29.1473C105.061 29.1473 105.016 29.1473 104.881 29.1473C104.791 29.1473 104.701 29.1473 104.566 29.1473C104.476 29.1473 104.341 29.1473 104.251 29.1473C104.161 29.1473 104.071 29.1473 104.026 29.1023V32.3407H102.992V32.3857ZM104.026 28.2478C104.071 28.2478 104.116 28.2927 104.206 28.2927C104.296 28.2927 104.386 28.2927 104.476 28.2927C104.566 28.2927 104.656 28.2927 104.746 28.2927C104.836 28.2927 104.926 28.2927 104.926 28.2927C105.196 28.2927 105.511 28.2478 105.781 28.2028C106.05 28.1578 106.32 28.0678 106.545 27.9329C106.77 27.798 106.95 27.6181 107.085 27.3482C107.22 27.0783 107.31 26.7635 107.31 26.4037C107.31 26.0888 107.265 25.774 107.13 25.5491C106.995 25.3242 106.815 25.1443 106.635 25.0094C106.455 24.8744 106.185 24.7845 105.916 24.7395C105.646 24.6945 105.376 24.6496 105.106 24.6496C104.881 24.6496 104.701 24.6496 104.476 24.6496C104.296 24.6496 104.116 24.6945 103.981 24.6945V28.2478H104.026Z" fill="#280000"/>
<path d="M109.336 29.3272C109.336 28.2927 109.561 27.4831 110.055 26.9434C110.55 26.4037 111.225 26.1338 112.079 26.1338C112.349 26.1338 112.664 26.1788 112.934 26.2237C113.204 26.2687 113.474 26.4037 113.699 26.5836C113.923 26.7635 114.103 26.9884 114.238 27.3032C114.373 27.618 114.463 28.0228 114.463 28.5626C114.463 28.8324 114.418 29.1473 114.373 29.4621H110.37C110.37 29.8219 110.415 30.1368 110.505 30.4067C110.595 30.6765 110.685 30.9014 110.865 31.1263C111.045 31.3062 111.225 31.4861 111.495 31.5761C111.765 31.666 112.034 31.711 112.439 31.711C112.709 31.711 113.024 31.666 113.294 31.5761C113.564 31.4861 113.789 31.3512 113.923 31.2163L114.283 31.9359C114.058 32.1158 113.744 32.2957 113.339 32.3857C112.934 32.4756 112.574 32.5656 112.124 32.5656C111.63 32.5656 111.225 32.4756 110.91 32.3407C110.55 32.2058 110.28 31.9809 110.055 31.711C109.831 31.4411 109.651 31.0813 109.561 30.7215C109.426 30.2717 109.336 29.8219 109.336 29.3272ZM110.37 28.6525H113.474C113.474 28.0228 113.339 27.618 113.114 27.3482C112.889 27.1233 112.529 26.9884 112.079 26.9884C111.585 26.9884 111.18 27.1233 110.91 27.3482C110.64 27.618 110.46 28.0678 110.37 28.6525Z" fill="#280000"/>
<path d="M115.496 29.3272C115.496 28.2927 115.721 27.4831 116.215 26.9434C116.665 26.4037 117.34 26.1338 118.239 26.1338C118.644 26.1338 118.959 26.1788 119.274 26.2237C119.544 26.2687 119.814 26.3587 120.038 26.4936L119.769 27.3482C119.589 27.2582 119.364 27.1683 119.139 27.0783C118.914 27.0333 118.644 26.9884 118.374 26.9884C117.205 26.9884 116.62 27.753 116.62 29.3272C116.62 29.642 116.665 29.9119 116.71 30.2267C116.755 30.4966 116.89 30.7665 117.025 30.9914C117.16 31.2163 117.34 31.3962 117.61 31.5311C117.835 31.666 118.149 31.711 118.464 31.711C118.779 31.711 119.049 31.666 119.274 31.5761C119.499 31.4861 119.679 31.3962 119.859 31.2612L120.173 32.0258C119.949 32.2058 119.634 32.3407 119.274 32.4306C118.914 32.5206 118.599 32.5656 118.194 32.5656C117.7 32.5656 117.295 32.4756 116.98 32.3407C116.665 32.2058 116.395 31.9809 116.17 31.711C115.946 31.4411 115.811 31.0813 115.721 30.6765C115.631 30.2717 115.496 29.8219 115.496 29.3272Z" fill="#280000"/>
<path d="M121.297 32.3855V26.3135H126.064V32.4305H125.075V27.1681H122.331V32.4305H121.297V32.3855Z" fill="#280000"/>
<path d="M127.012 26.3135H128.136L129.621 30.2715L129.935 31.441H129.98L130.205 30.2266L131.51 26.3135H132.499L130.655 31.8008C130.52 32.2056 130.385 32.5654 130.25 32.9702C130.115 33.33 129.98 33.6898 129.801 33.9597C129.621 34.2745 129.441 34.4994 129.261 34.6793C129.036 34.8592 128.811 34.9492 128.541 34.9492C128.226 34.9492 128.001 34.9042 127.822 34.8143L128.001 33.9597C128.091 34.0047 128.226 34.0047 128.316 34.0047C128.541 34.0047 128.766 33.8697 128.991 33.6449C129.216 33.42 129.396 33.0152 129.531 32.3855L127.012 26.3135Z" fill="#280000"/>
<path d="M133.082 28.6977C133.082 27.9781 133.127 27.3934 133.172 26.8986C133.217 26.4039 133.352 25.9991 133.487 25.6392C133.622 25.2794 133.802 25.0095 133.981 24.8296C134.161 24.6048 134.386 24.4698 134.656 24.3349C134.881 24.2 135.151 24.155 135.466 24.11C135.781 24.065 136.05 24.02 136.41 23.9751C136.86 23.9301 137.175 23.8851 137.4 23.8401C137.625 23.7952 137.85 23.7052 137.984 23.5703L138.119 24.4248C138.029 24.5148 137.94 24.5598 137.85 24.6048C137.76 24.6497 137.625 24.6947 137.49 24.7397C137.355 24.7847 137.175 24.7847 136.995 24.8296C136.815 24.8746 136.59 24.8746 136.32 24.9196C135.96 24.9646 135.646 25.0095 135.376 25.0545C135.106 25.0995 134.881 25.1895 134.656 25.3694C134.476 25.5493 134.296 25.8191 134.206 26.134C134.116 26.4488 134.026 26.8986 133.981 27.4383H134.026C134.296 27.0335 134.611 26.7637 134.926 26.6287C135.241 26.4488 135.691 26.4039 136.185 26.4039C136.95 26.4039 137.535 26.6287 137.94 27.1235C138.344 27.6182 138.569 28.3379 138.569 29.2824C138.569 30.3619 138.344 31.2164 137.85 31.7562C137.355 32.3409 136.725 32.6107 135.871 32.6107C134.971 32.6107 134.296 32.2959 133.802 31.6662C133.307 30.9916 133.082 30.0021 133.082 28.6977ZM134.116 29.3724C134.116 29.6872 134.161 29.9571 134.206 30.2719C134.251 30.5418 134.386 30.8116 134.521 31.0365C134.656 31.2614 134.836 31.4413 135.061 31.5313C135.286 31.6662 135.511 31.7112 135.826 31.7112C136.41 31.7112 136.815 31.5313 137.085 31.1265C137.355 30.7217 137.49 30.137 137.49 29.3274C137.49 29.0125 137.445 28.7427 137.4 28.4728C137.355 28.203 137.265 27.9781 137.13 27.7982C136.995 27.6182 136.86 27.4383 136.635 27.3484C136.41 27.2584 136.23 27.2134 135.96 27.2134C135.331 27.2134 134.836 27.3934 134.521 27.7532C134.296 28.113 134.116 28.6527 134.116 29.3724Z" fill="#280000"/>
<path d="M138.93 32.3405L139.065 31.5309C139.155 31.5759 139.29 31.5759 139.38 31.5759C139.56 31.5759 139.695 31.4859 139.83 31.351C139.964 31.2161 140.054 30.9462 140.189 30.5864C140.279 30.1816 140.369 29.6868 140.459 28.9672C140.504 28.2925 140.549 27.393 140.594 26.3135H144.282V32.4305H143.293V27.1681H141.494C141.449 27.5279 141.449 27.8877 141.404 28.2925C141.359 28.6973 141.359 29.1021 141.269 29.4619C141.224 29.8667 141.134 30.2266 141.089 30.5864C140.999 30.9462 140.909 31.261 140.774 31.5309C140.639 31.8008 140.504 32.0257 140.279 32.2056C140.099 32.3855 139.875 32.4754 139.605 32.4754C139.425 32.4754 139.29 32.4754 139.2 32.4305C139.11 32.3855 139.02 32.3855 138.93 32.3405Z" fill="#280000"/>
<path d="M146.035 32.3855V26.3135H147.025V30.0467L146.98 30.7663H147.025L147.52 30.0017L150.353 26.3135H150.938V32.4305H149.948V28.8323L149.993 28.0676H149.948L149.454 28.8323L146.665 32.4305H146.035V32.3855Z" fill="#280000"/>
<path d="M152.691 32.3855V26.3135H153.681V29.0571L154.22 28.8772L156.199 26.3135H157.279L155.345 28.7873L154.805 29.1921L155.435 29.6868L157.504 32.4305H156.289L154.22 29.6868H153.636V32.4305H152.691V32.3855Z" fill="#280000"/>
<path d="M158 30.7664C158 30.4065 158.089 30.0917 158.224 29.8668C158.359 29.6419 158.584 29.417 158.854 29.2821C159.124 29.1472 159.439 29.0572 159.844 28.9673C160.203 28.9223 160.653 28.8773 161.103 28.8773C161.238 28.8773 161.328 28.8773 161.463 28.8773C161.598 28.8773 161.688 28.8773 161.823 28.9223C161.868 28.6974 161.868 28.4725 161.868 28.2476C161.868 27.7978 161.778 27.483 161.598 27.3031C161.418 27.1232 161.103 27.0332 160.608 27.0332C160.473 27.0332 160.293 27.0332 160.158 27.0782C160.024 27.1232 159.844 27.1232 159.664 27.1682C159.484 27.2131 159.349 27.2581 159.169 27.3031C159.034 27.3481 158.899 27.393 158.764 27.483L158.449 26.7634C158.764 26.5835 159.124 26.4485 159.574 26.3586C159.979 26.2686 160.428 26.2236 160.878 26.2236C161.328 26.2236 161.643 26.2686 161.913 26.4035C162.182 26.5385 162.362 26.6734 162.497 26.8533C162.632 27.0332 162.722 27.2581 162.767 27.438C162.812 27.6179 162.812 27.8878 162.812 28.1127C162.812 28.6074 162.812 29.0572 162.767 29.552C162.722 30.0017 162.722 30.4515 162.722 30.8563C162.722 31.1712 162.722 31.441 162.767 31.7109C162.812 31.9808 162.857 32.2506 162.902 32.4755H162.227L161.958 31.6209H161.868C161.778 31.7559 161.688 31.8458 161.598 31.9358C161.463 32.0257 161.328 32.1607 161.193 32.2506C161.013 32.3406 160.833 32.4305 160.653 32.4755C160.428 32.5205 160.203 32.5655 159.934 32.5655C159.664 32.5655 159.439 32.5205 159.214 32.4305C158.989 32.3406 158.809 32.2506 158.629 32.0707C158.449 31.9358 158.314 31.7559 158.224 31.531C158.045 31.2611 158 31.0362 158 30.7664ZM159.034 30.6764C159.034 30.9463 159.124 31.2161 159.349 31.396C159.574 31.576 159.799 31.6659 160.158 31.6659C160.383 31.6659 160.608 31.6209 160.788 31.576C160.968 31.531 161.148 31.441 161.238 31.3511C161.373 31.2611 161.463 31.1712 161.553 31.0362C161.643 30.9013 161.688 30.8113 161.733 30.7214V29.7319C161.598 29.7319 161.508 29.7319 161.373 29.7319C161.238 29.7319 161.148 29.7319 161.013 29.7319C160.743 29.7319 160.518 29.7319 160.248 29.7769C160.024 29.8218 159.799 29.8668 159.619 29.9568C159.439 30.0467 159.304 30.1367 159.169 30.2716C159.079 30.2716 159.034 30.4515 159.034 30.6764Z" fill="#280000"/>
</g>
</svg>
