<svg width="63" height="71" viewBox="0 0 63 71" fill="none" xmlns="http://www.w3.org/2000/svg">
<path d="M57.3822 13.6091C56.6174 13.5202 55.8799 13.4426 55.7632 13.4266C54.0526 13.1008 52.8112 13.6014 53.5392 14.3321C53.6697 14.4576 53.6707 14.6657 53.515 14.7369C53.3214 14.826 53.0743 14.5459 52.9165 14.1317C52.6682 13.5049 52.4999 13.3972 51.8781 13.4741C50.1444 13.6918 49.6131 13.8428 49.5374 14.0864C49.4985 14.2429 49.1492 14.3339 48.7736 14.2749C48.3465 14.1934 48.0615 14.3471 47.9594 14.7182C47.8584 15.1586 47.729 15.1717 47.3777 14.8467C47.0011 14.5104 46.858 14.5526 46.6276 15.0754C46.3972 15.5983 46.3057 15.5936 46.1226 15.1683C45.9396 14.7429 45.5388 14.8114 43.8977 15.5191C42.1777 16.2624 41.9325 16.4677 42.0388 16.9979C42.1576 17.4992 42.1188 17.5864 41.8074 17.5209C41.6001 17.431 41.315 17.3767 41.1593 17.3092C40.4071 17.1219 39.3488 17.8398 38.9775 18.8209C38.6956 19.6681 38.5672 19.7505 38.2295 19.4657C37.6835 19.0217 36.48 19.1578 36.236 19.7097C36.1329 19.9421 36.1729 20.2016 36.3033 20.2578C36.459 20.3252 36.4727 20.5735 36.3696 20.806C36.2675 21.0383 36.0214 21.1742 35.8141 21.0843C35.6069 20.9945 35.3091 21.1078 35.1029 21.2953C34.922 21.494 34.5475 21.5737 34.2624 21.45C33.8732 21.2814 33.6796 21.4398 33.3324 22.2242C33.0894 22.7761 33.0137 23.3664 33.1568 23.5323C33.3914 23.772 35.1355 22.9013 35.3659 22.3784C35.4438 22.2735 36.4906 21.6539 37.6793 21.0616C38.8807 20.44 40.2494 19.5797 40.7143 19.158C41.152 18.725 41.6696 18.4644 41.8126 18.5609C42.0977 18.7538 45.0706 17.5503 45.2379 17.1727C45.4041 16.795 46.7118 16.4959 47.243 16.6916C47.4766 16.7928 47.7353 16.7665 47.7869 16.6503C47.8384 16.534 48.355 16.3429 48.8863 16.2613C49.4554 16.1619 49.8436 16.1918 49.7794 16.337C49.6774 16.5694 47.7901 17.413 47.4787 17.3475C46.4035 17.1237 44.2701 18.034 44.208 18.7338C44.1838 19 43.8861 19.1827 43.4464 19.1997C42.4364 19.1774 39.2436 20.5975 38.9996 21.1494C38.8849 21.4108 38.5872 21.5936 38.3284 21.6198C38.0822 21.6171 37.7603 21.8579 37.632 22.1484C37.3627 22.7585 36.4453 23.2262 36.3138 22.8233C36.2738 22.7024 35.6805 23.1374 34.9841 23.8045C34.314 24.483 33.5776 24.9602 33.4219 24.8926C33.2399 24.814 32.9685 25.008 32.8275 25.3276C32.6865 25.6471 32.4414 25.8523 32.2857 25.7849C32.1048 25.7062 31.9112 26.0033 31.7713 26.6002C31.6313 27.1277 31.4125 27.4828 31.2831 27.4267C31.1274 27.3593 30.674 27.4746 30.2091 27.6883C28.3092 28.561 29.5179 26.4544 31.5588 25.3315C32.0501 25.0597 32.1531 24.8966 31.9575 24.7083C31.8144 24.5425 31.7871 24.1846 31.9154 23.8941C32.2363 23.1679 31.8586 22.6236 31.3547 22.9938C31.0065 23.2234 30.9149 23.1493 30.7961 22.5788C30.7298 22.1693 30.7666 21.5968 30.8813 21.3354C31.0096 21.0449 31.1369 20.5463 31.1622 20.2109C31.2242 19.6496 31.2242 19.6496 31.5251 20.3682C31.6955 20.7534 31.9164 21.0222 32.0585 20.9801C32.4593 20.7729 32.3488 19.2025 31.908 19.0808C31.6619 19.0087 31.2726 18.8401 31.0002 18.6874C30.6236 18.4898 30.6362 18.3913 31.0496 18.1551C31.4631 17.919 31.4883 17.7916 31.2148 17.5002C30.9034 17.1574 30.916 17.1283 31.4199 16.966C31.7692 16.8751 31.988 16.5893 32.0258 16.2248C32.0753 15.6233 31.6976 15.2869 31.4925 15.7517C31.4283 15.897 31.261 15.9972 31.1306 15.9411C31.0012 15.8848 31.078 15.5719 31.2968 15.2861C31.6577 14.8194 31.6314 14.7388 31.0612 14.6996C30.5562 14.6537 30.491 14.5216 30.7214 13.9988C30.9907 13.3887 30.5678 11.1981 30.1522 11.0182C30.0481 10.9733 29.8156 11.1495 29.6483 11.3884C29.4558 11.6855 29.338 11.3923 29.3475 10.4618C29.3359 7.89632 28.5658 6.4207 27.7022 7.2576C27.5338 7.42723 27.5854 7.31105 27.8179 6.99617C28.1524 6.51823 28.1377 6.26993 27.7221 5.81272C27.4223 5.51013 27.214 5.14284 27.2782 4.9977C27.3297 4.88141 26.809 4.24061 26.1199 3.63076C25.1321 2.71831 24.807 2.54316 24.4977 2.75499C24.1622 2.95556 24.0843 2.92181 24.1085 2.5864C24.1327 2.11221 23.4573 1.75064 23.2775 2.15742C23.2133 2.30257 22.9682 2.36915 22.7083 2.25683C22.4748 2.15565 22.4095 2.02353 22.5389 1.94101C22.6809 1.89892 22.7451 1.61498 22.7052 1.35543C22.5863 0.854143 21.5101 0.56104 21.3175 0.996787C21.2534 1.14204 21.0588 1.09244 20.9031 0.886235C20.7074 0.697953 20.254 0.674614 19.8795 0.823718C19.505 0.972718 19.0516 0.949379 18.8696 0.732026C18.6087 0.480914 18.3373 0.536243 17.9764 0.933646L17.4094 1.51839L17.523 0.771621C17.5988 0.389326 17.5977 0.0426671 17.5714 0.031414C17.2337 -0.114773 15.9145 0.282838 15.7736 0.533012C15.3622 1.32386 15.2202 1.43545 14.5732 1.5011C13.9515 1.5781 13.9262 1.56684 14.4291 1.12724C14.7258 0.87519 14.9193 0.578128 14.8404 0.475078C14.6058 0.0965347 12.2273 1.07327 12.2809 1.51183C12.282 1.7198 12.0758 1.90725 11.8296 1.90444C11.5445 1.91954 11.1837 2.24756 10.9785 2.71227C10.5556 3.67097 9.88235 3.93344 9.80239 3.20636C9.77504 2.91774 9.62039 3.19699 9.42998 3.9101C9.12385 5.02323 9.07232 5.07011 8.61681 4.63072C8.26544 4.30563 8.09712 4.33658 7.91828 4.74336C7.77731 5.06282 7.48064 5.38426 7.20922 5.50899C6.85996 5.66924 6.79581 5.88378 6.95361 6.43664C7.20398 7.34075 7.06299 7.72961 6.6464 7.2725C6.20456 6.80404 5.58599 7.50507 5.75746 8.23683C5.85004 8.72687 5.77327 8.90108 5.23044 9.15042C4.86855 9.33975 4.39199 9.92918 4.17317 10.4231C3.85337 11.1493 3.86704 11.3976 4.28153 11.5775C4.56767 11.701 4.74967 11.9184 4.67288 12.0927C4.60871 12.238 4.36254 12.3045 4.129 12.2034C3.79236 12.0573 3.65031 12.2381 3.45885 12.9512C3.35786 13.4609 3.1643 13.8274 3.0612 13.7823C2.60674 13.4816 2.43842 13.582 2.54468 14.1123C2.64988 14.5039 2.58571 14.6491 2.37847 14.5592C1.88508 14.3457 1.65574 15.3539 2.1365 15.7352C2.38372 15.946 2.48893 16.3376 2.36059 16.6281C2.19437 17.0057 1.98712 17.0545 1.67468 16.781C1.20759 16.3707 0.807817 16.7858 1.14656 17.3479C1.26333 17.5026 1.14868 17.9027 0.904621 18.2466C0.363894 18.9813 0.125073 20.7813 0.43962 21.8175C0.558496 22.2495 0.509072 22.7817 0.315505 23.0094C0.109313 23.2661 0.111398 23.8209 0.321797 24.3961C0.557445 25.0521 0.534315 25.6648 0.251328 26.3039C-0.223123 27.3788 0.000939641 28.2716 0.698414 27.951C1.31909 27.6661 1.4506 28.2076 0.830973 28.5619C0.495386 28.7625 0.392284 28.9255 0.535356 29.1607C0.65318 29.3153 0.615318 29.5411 0.473298 29.6526C0.0472388 29.9872 0.352304 34.9645 0.820443 35.3055C2.01551 36.1692 2.25537 37.9344 1.27385 38.5474C1.05504 38.6945 0.964559 38.8979 1.08238 39.0524C1.16023 39.2249 1.49689 39.163 1.742 38.9577C2.16806 38.6231 2.1428 38.7506 1.73147 39.5414C1.32014 40.3324 1.33486 40.65 1.69885 41.0847C1.97237 41.3761 2.09127 41.9467 2.02815 42.2999C1.91453 42.9081 2.40054 44.6761 2.73823 44.8222C3.04962 44.957 3.30316 43.7521 3.04332 43.4317C2.67828 43.0663 2.83186 42.4404 3.24635 42.6202C3.89543 42.9011 4.01747 44.3038 3.46411 45.2062C2.96336 45.9924 2.96441 46.2698 3.4862 47.3266C4.07427 48.5849 4.6066 48.85 4.36885 47.7781C4.14477 46.8159 4.58554 46.9376 5.05579 47.9719C5.47448 48.8452 5.4745 48.9145 4.84014 49.0898C4.38778 49.2052 4.24577 49.3861 4.35097 49.7083C4.45617 50.0306 4.58554 50.0868 4.79173 49.8994C5.25671 49.547 5.64596 49.7849 5.4282 50.2788C5.3251 50.5112 5.39138 50.8513 5.58705 51.0395C5.79535 51.2681 5.75747 51.5633 5.48711 51.896C5.15152 52.3046 5.17889 52.4545 5.59338 52.6344C5.95632 52.7917 6.06149 53.0447 5.89423 53.4223C5.70171 53.858 5.79326 54.0014 6.26035 54.065C6.79055 54.1221 6.81685 54.2026 6.41814 54.6871C6.09623 55.0667 6.09622 55.2747 6.40761 55.4096C6.6159 55.4994 6.77266 55.9136 6.73584 56.3475C6.66115 57.2151 7.09353 58.406 7.29867 57.9412C7.37651 57.7668 7.29761 57.5251 7.17978 57.3706C6.97254 57.142 7.0104 57.0549 7.37228 56.8654C7.77309 56.6583 7.83832 56.7904 7.78993 57.5306C7.72681 58.0226 7.65107 58.5436 7.5869 58.6889C7.33021 59.2699 8.10028 60.6761 8.74831 60.7491C9.26694 60.8352 9.41001 61.0704 9.41422 61.9718C9.43316 63.5374 9.81712 65.5379 10.1285 65.6727C10.2842 65.7402 10.4515 65.4319 10.5535 64.9915C10.7429 64.0011 11.2363 64.1453 11.0848 65.1179C11.0217 65.5405 11.1027 66.3369 11.2731 66.93C11.4572 67.494 11.4467 68.0777 11.2657 68.2072C11.1111 68.3477 11.0858 68.6138 11.2678 68.7618C11.4498 68.9791 11.3741 69.3614 11.0396 69.9088C10.603 70.6191 10.603 70.7578 11.0564 70.8504C11.3678 70.9159 11.6907 70.7444 11.7938 70.512C12.0884 69.8439 13.0447 69.3584 13.5896 69.5944C13.9262 69.7405 13.9536 69.9597 13.6706 70.3215C13.4518 70.6073 13.4139 70.9025 13.5696 70.9699C13.9841 71.1497 14.5511 70.4956 14.6006 69.7554C14.6605 68.7088 15.4821 66.919 16.0376 66.5713C16.5794 66.2525 16.5794 66.2525 16.4005 66.7286C16.1312 67.3386 16.3522 67.4688 17.2053 67.2157C17.968 66.9578 18.1605 66.5915 17.5136 66.5878C17.138 66.5983 17.0991 66.4774 17.3821 66.1849C17.563 65.9863 17.7692 65.7295 17.8071 65.6424C17.846 65.5553 17.9627 65.7098 18.0932 65.974C18.2636 66.3591 18.393 66.4153 18.6255 66.2391C19.0516 65.9045 18.8685 65.4098 18.1279 64.9161L17.5178 64.548L18.514 64.3914C19.0831 64.2919 19.7564 64.2375 20.0415 64.2224C20.3392 64.2477 20.9588 63.7548 21.4354 63.1652C21.8993 62.6049 22.4148 62.067 22.5831 62.0359C22.7903 61.9873 22.9576 61.679 22.9692 61.3725C22.9934 61.0371 23.2901 60.7157 23.7298 60.56C24.583 60.2375 25.4845 59.1748 25.0953 59.0062C24.9396 58.9388 24.8744 58.7374 24.9385 58.5922C25.0153 58.4179 25.3004 58.4028 25.5855 58.5264C25.9495 58.6838 26.1947 58.5479 26.3998 58.0831C26.5671 57.7055 26.9279 57.3082 27.1993 57.1834C27.5864 57.0054 27.6116 56.8086 27.2981 56.2577C26.8553 55.4425 27.0457 54.6601 27.6422 54.9186C27.8505 55.0086 28.1472 54.8258 28.2881 54.5062C28.4291 54.1868 28.6742 53.9815 28.8046 54.0377C28.9603 54.1051 29.1792 53.8887 29.3202 53.5691C29.4611 53.2495 29.7967 52.9797 30.0428 52.9825C30.3016 52.9561 30.612 52.7443 30.7403 52.4539C31.0223 51.8148 31.604 51.617 31.645 52.1538C31.6724 52.4424 31.8407 52.4809 32.2026 52.3608C32.6034 52.223 32.8349 51.8388 33.0905 50.9805C33.3588 49.9544 33.4745 49.8317 33.89 50.0115C34.5896 50.315 35.5322 49.5118 35.5027 48.5992C35.4859 47.7961 35.9498 47.3745 36.0182 48.1306C36.1118 48.898 36.8103 48.5774 36.9871 47.6854C37.0891 47.1756 37.2438 46.9657 37.3995 47.1025C37.5552 47.2392 38.3042 46.8025 39.0922 46.1398L40.4987 44.9843L40.12 44.3013C39.7675 43.6989 39.7938 43.6408 40.3882 43.3446C41.2414 42.9528 41.4486 43.112 40.9332 43.7194C40.7143 44.0052 40.6249 44.2779 40.7806 44.3453C41.1961 44.5251 41.9557 43.4352 41.7074 43.0165C41.5769 42.8216 41.6411 42.5377 41.821 42.4083C42.0662 42.2031 42.1966 42.2593 42.3533 42.6041C42.6405 43.2824 43.1697 42.7847 43.1402 41.8721C43.0971 40.9885 44.0145 40.3822 45.1412 40.559C45.9323 40.6591 46.151 40.3733 45.8501 39.6547C45.6671 39.2294 45.7954 39.0083 46.6339 38.2294C47.163 37.7318 47.6912 37.1648 47.7806 36.9614C47.8837 36.7291 48.0004 36.745 48.1183 37.1076C48.3013 37.4637 48.5475 37.4664 49.2965 37.099C49.9424 36.756 50.1749 36.5104 50.0056 36.3333C49.6805 36.0195 50.0908 34.8819 50.4537 35.0392C50.5831 35.0955 50.662 35.3372 50.6631 35.5452C50.6252 35.771 51.0775 35.517 51.6709 35.0128C52.2768 34.4796 53.0258 33.9041 53.3614 33.7728C53.6844 33.6013 54.6533 32.8787 55.4528 32.1178C56.6268 31.0691 56.8846 30.6961 56.6247 30.5144C56.2607 30.2184 56.6184 29.197 57.1234 29.1041C57.318 29.0844 57.3695 29.2455 57.2549 29.5071C57.1391 29.7685 57.218 30.0102 57.4379 30.0017C57.8913 30.025 58.956 27.5446 58.6046 27.2195C58.4489 27.0828 58.6804 26.8372 59.1979 26.646C59.7923 26.4192 59.9733 26.2205 59.8039 26.0435C59.4788 25.7296 59.6577 25.1843 59.9954 25.3304C60.1248 25.3865 60.2173 25.7379 60.1542 26.0912C60.0532 26.8783 60.4561 27.1565 60.7506 26.4884C60.8537 26.2559 61.202 25.8183 61.5376 25.5485C61.8732 25.2785 62.3623 24.5907 62.6706 24.0322C63.1071 23.1832 63.1061 22.9058 62.6895 22.3793C62.3508 21.9559 62.2845 21.6158 62.517 21.3702C62.7105 21.1425 62.7852 20.5522 62.679 20.0218C62.5738 19.4915 62.5706 18.8675 62.6611 18.6641C62.7505 18.4608 62.6327 18.0982 62.3855 17.8875C62.1519 17.6476 62.0856 17.3768 62.2276 17.2653C62.3823 17.1247 62.3802 16.6394 62.2098 16.1849C61.9478 15.5178 61.7017 15.307 60.7549 15.0702C60.1068 14.9279 59.4336 14.913 59.24 15.0713C59.0075 15.2475 58.9812 15.0976 59.1737 14.662C59.4946 13.9357 59.3515 13.8392 57.3822 13.6091ZM56.3502 14.4075C56.3638 14.5865 56.247 14.7093 56.1177 14.6531C55.962 14.5856 55.8967 14.3842 55.9609 14.2389C56.0377 14.0646 56.1408 13.9709 56.1923 13.9934C56.2702 14.0271 56.3491 14.1995 56.3502 14.4075ZM61.2546 16.7398C61.1378 16.7932 60.8917 16.7211 60.7486 16.5553C60.5792 16.3783 60.6959 16.3248 60.981 16.4484C61.2787 16.543 61.3966 16.6976 61.2546 16.7398ZM55.7116 16.5533C55.5696 16.6649 55.3234 16.7315 55.1677 16.664C55.0383 16.6078 54.9983 16.4177 55.0625 16.2724C55.1393 16.0981 55.3729 16.0606 55.6064 16.1618C55.8137 16.2517 55.8662 16.4128 55.7116 16.5533ZM16.5531 1.28624C16.1817 2.12867 15.7409 2.07626 16.0229 1.22914C16.1628 0.840286 16.4079 0.565626 16.5384 0.621892C16.693 0.689306 16.6814 0.995746 16.5531 1.28624ZM52.4735 16.5352C51.7876 16.6881 51.451 16.5419 51.8255 16.2542C51.9801 16.1136 52.3168 16.121 52.5503 16.2222C52.9396 16.3908 52.9133 16.4489 52.4735 16.5352ZM20.8284 4.76451C22.0487 5.57015 22.6852 5.94953 23.593 6.41216C24.0475 6.64358 24.2169 6.95929 24.1548 7.38191C24.078 7.7642 24.2611 8.12024 24.5725 8.25507C24.8839 8.39 25.3267 9.13573 25.5634 9.93023C25.839 10.7763 26.1915 11.3788 26.4629 11.3927C26.748 11.3777 26.8921 11.7516 26.8563 12.3934C26.8321 12.9369 26.8995 13.4157 27.0026 13.4606C27.3918 13.6292 27.6443 15.0187 27.4265 15.7206C27.1193 16.6257 27.4349 17.8007 27.9273 17.8062C28.1471 17.7977 28.3944 18.0778 28.4607 18.418C28.5922 18.9595 28.5154 19.0646 28.1019 19.162C27.6874 19.2595 27.6748 19.358 27.9483 19.788C28.2618 20.2695 27.9431 21.4811 27.5538 21.3125C27.4497 21.2676 27.3571 20.7081 27.3287 20.073C27.2866 19.4666 27.1267 18.3591 26.9552 17.6274C26.7448 16.9134 26.6386 16.2445 26.6902 16.1283C26.7796 15.9249 26.0053 13.3399 25.3772 11.7527C25.0627 10.9245 24.9322 10.799 24.5714 11.0576C23.5131 11.8449 23.8813 13.389 25.1637 13.4947C25.6949 13.5518 25.7339 13.6032 25.3341 13.8104C24.9459 13.9884 24.8954 14.174 25.0395 14.7558C25.1447 15.1475 25.4319 15.5485 25.717 15.6721C25.9769 15.7846 26.1326 15.9907 26.0558 16.1649C25.9916 16.3101 25.8233 16.4105 25.6687 16.3431C25.5382 16.2868 25.3572 16.3468 25.2805 16.5211C25.2163 16.6664 25.3856 16.9128 25.6707 17.0364C25.9569 17.1601 26.1126 17.4354 26.0105 17.6679C25.92 17.8712 26.0642 18.2451 26.3377 18.4671C26.688 18.7922 26.7154 18.942 26.3787 19.1426C26.0432 19.3432 26.0463 20.0366 26.404 22.0258C26.6691 23.4556 26.7522 24.668 26.5712 24.728C26.2346 24.7899 25.6602 26.7212 25.9453 26.8447C26.0495 26.8898 26.3209 26.8344 26.5923 26.7097C26.8248 26.6029 27.0973 26.6169 27.1488 26.7781C27.2014 26.9393 27.0468 27.1491 26.8143 27.256C26.5039 27.3984 26.4019 27.7002 26.4177 28.3645C26.4229 29.5432 26.3209 29.845 25.9306 29.5377C25.7749 29.401 25.5676 29.3804 25.4898 29.4853C24.7818 30.3896 25.4961 30.8027 26.4903 30.0914C27.3161 29.5497 27.1761 30.0772 26.1199 31.4192C25.6434 32.0086 25.5024 32.3974 25.6202 32.6214C25.737 32.776 25.635 33.2164 25.4162 33.5715C25.1469 34.0429 24.9144 34.1498 24.5767 33.9343C24.2253 33.6785 24.097 33.7611 24.0086 34.3111C23.9318 34.6934 23.4816 35.3634 23.0303 35.8254C22.1403 36.651 21.6353 36.5359 22.3044 35.6494C22.5358 35.3345 22.5611 35.0684 22.3538 34.9785C22.1203 34.8773 22.1971 34.7724 22.5979 34.6346C23.1544 34.4949 25.5634 31.5589 25.4456 31.1963C25.4319 31.0867 25.2121 31.0258 24.9659 31.023C24.6934 31.009 24.4494 31.3529 24.2705 31.9676C24.0275 32.7969 23.9371 32.8615 23.6257 32.5187C23.3006 32.2049 23.2101 32.2695 23.0576 32.9648C22.9819 33.4164 22.7883 33.7828 22.6073 33.7735C21.8562 33.7249 20.0499 38.5142 20.315 39.8746C20.355 40.2035 20.2519 40.3666 19.9542 40.3413C19.708 40.3385 19.3219 40.794 19.0263 41.4622C18.5129 42.5548 18.5003 42.5838 19.4218 42.9481C20.0047 43.1664 20.3297 43.4802 20.3056 43.7463C20.2046 44.4641 20.7285 45.7289 21.064 45.667C21.6469 45.5385 21.6447 45.1225 21.0977 44.4011C20.5254 43.6685 20.6011 43.2168 21.6952 41.6491C22.197 40.9322 22.3654 40.8319 22.4832 41.1945C22.5884 41.5168 22.7567 41.6245 23.1186 41.5045C23.4942 41.3555 23.5594 41.4182 23.4047 41.7668C23.3027 41.9992 23.0313 42.1932 22.8367 42.2129C22.6294 42.1924 22.5011 42.3442 22.541 42.5343C22.6063 42.7359 23.0071 42.6674 23.4983 42.3956C24.1695 41.9944 24.2726 41.8313 24.1032 41.4462C23.9065 41.05 24.3799 39.6978 25.4214 37.7608C25.7812 37.0862 26.3893 37.1076 26.0821 37.8048C25.7991 38.4438 26.3177 38.53 26.7943 37.9405C27.0783 37.5788 27.0888 37.1337 26.8006 36.3861C26.3819 35.3741 26.3819 35.3741 26.9921 35.6037C27.4844 35.8172 27.6138 35.7347 27.6895 35.2138C27.7768 34.525 28.2818 34.5015 28.3365 35.148C28.3912 35.7252 28.973 35.458 29.3191 34.6737C29.6399 33.9475 29.3527 33.5465 28.8761 34.0667C28.6952 34.2653 28.6437 34.1735 28.7846 33.8539C28.8741 33.5812 29.1581 33.4275 29.3654 33.5174C29.8324 33.7198 30.0902 33.2775 29.7514 32.854C29.5305 32.6545 29.621 32.5205 30.0344 32.3536C30.9528 32.0245 32.23 30.9515 32.2026 30.5935C32.1753 30.3743 32.0195 30.2376 31.8512 30.2685C30.998 30.4523 31.9533 29.8281 33.646 29.0735C35.508 28.288 36.3201 27.4287 35.812 26.8281C35.6689 26.6623 35.7731 26.7072 36.0718 26.9405C36.4874 27.259 36.7073 27.2505 37.0165 26.8307C37.248 26.5158 37.5194 26.3218 37.5973 26.3556C37.9865 26.5241 40.2451 24.6301 40.3335 24.08C40.3966 23.6575 40.5249 23.575 40.85 23.7501C41.2003 23.9365 41.355 23.796 41.5464 23.2215C41.7253 22.6762 41.8295 22.5825 41.9473 22.9451C42.1566 23.5897 42.8951 23.5286 43.1897 22.8605C43.318 22.57 43.5368 22.3536 43.6925 22.421C43.823 22.4772 44.1459 22.2364 44.4163 21.9037C44.673 21.5307 45.0738 21.2542 45.32 21.2569C45.5661 21.2597 45.8365 21.0657 45.9522 20.8043C46.17 20.3104 46.6497 20.4144 46.574 20.9354C46.5498 21.2015 46.7317 21.2802 47.2746 21.1695C47.7795 21.0767 48.0499 20.8133 48.1383 20.3326C48.253 19.7938 48.4728 19.5773 49.0546 19.5182C49.7405 19.4347 49.7668 19.4459 49.2239 19.7646C48.7716 20.0186 48.6821 20.222 48.7873 20.5442C48.9051 20.9068 49.4101 20.814 50.8829 20.068C51.9549 19.529 53.0027 19.1868 53.2362 19.2879C53.4698 19.3891 53.716 19.3225 53.7801 19.1773C53.8569 19.003 54.0378 18.943 54.1672 18.9992C54.3229 19.0666 54.3377 19.3149 54.222 19.5764C54.081 19.8959 54.1715 20.0392 54.5081 20.0467C54.7806 20.0607 55.1561 20.1196 55.3644 20.2096C55.5717 20.2995 55.8168 20.1636 55.9199 19.9311C56.0219 19.6988 56.2418 19.5517 56.3712 19.6078C56.5269 19.6752 56.5795 19.8364 56.5027 20.0108C56.4385 20.156 56.6079 20.4023 56.8677 20.5147C57.5673 20.8183 58.0618 21.3784 57.9082 21.7271C57.844 21.8723 57.702 21.8451 57.5715 21.6503C57.4537 21.4264 57.338 21.5491 57.2359 21.9895C57.1602 22.4411 56.9803 22.6398 56.6689 22.5743C56.267 22.5041 56.2418 22.5622 56.4638 23.1778C56.6216 23.7305 56.5711 23.9854 56.1324 24.3491C55.5265 24.8823 55.2151 24.8861 55.6916 24.366C55.8599 24.1964 55.8452 23.8787 55.6769 23.7017C55.4549 23.4328 55.2614 23.5218 55.0941 23.8994C54.9658 24.1899 54.3598 24.7926 53.7791 25.1984C53.1984 25.6042 52.4252 26.4458 52.0517 27.0108C51.6919 27.6162 51.1754 28.0848 50.9166 28.111C50.6441 28.0971 50.297 28.4653 50.0782 28.9592C49.8089 29.5692 49.3312 29.9506 48.4002 30.3087C47.0557 30.8337 46.4245 31.5637 47.0989 31.8559C47.3072 31.9459 47.4376 32.1407 47.3598 32.315C47.2956 32.4603 47.0505 32.5269 46.8433 32.4369C46.6097 32.3358 46.2857 32.438 46.1058 32.6366C45.8996 32.824 45.6019 32.9375 45.4462 32.8701C45.2642 32.7914 44.735 33.081 44.2827 33.4737C43.7924 33.8841 42.8509 34.6874 42.1408 35.2449C41.1856 36.0078 40.6712 36.6844 40.0936 37.9223C39.2331 39.7299 38.3294 40.3073 37.5236 39.6122C37.2375 39.3498 37.1081 39.3629 37.0965 39.6694C37.046 39.9242 37.1891 40.1594 37.3963 40.1799C37.5647 40.2184 37.6172 40.3795 37.45 40.5491C37.3079 40.73 37.0102 40.7741 36.803 40.6148C36.4001 40.3366 35.0693 41.1099 35.123 41.6177C35.1366 41.7966 34.6853 42.1894 34.1425 42.4387C32.9022 43.0779 31.9491 44.3262 32.5203 44.5735C32.8833 44.7308 33.1536 44.4675 33.4229 43.6494C33.4734 43.4639 33.7059 43.357 33.9395 43.4581C34.2509 43.5931 34.2256 43.7898 33.8269 44.3436C33.1442 45.2592 32.4467 45.5798 31.7976 45.2988C31.1748 45.029 30.6067 45.3365 29.8987 46.3101C29.5505 46.7478 29.4748 47.0607 29.6557 47.1394C30.0197 47.2967 29.5705 48.3135 28.8993 48.9226C28.5122 49.2394 28.2271 49.2545 27.8242 48.9069C27.4865 48.6221 27.2014 48.5678 27.112 48.7712C27.0352 48.9454 27.1004 49.1469 27.2298 49.2031C27.6454 49.3829 27.1572 50.2094 26.6386 50.1926C26.3798 50.2189 26.0315 50.5179 25.8517 50.9246C25.595 51.5056 25.453 51.5477 25.1016 51.2227C24.8029 50.92 24.6093 50.9398 24.4672 51.2593C24.3526 51.5207 24.3663 51.769 24.522 51.8365C24.6513 51.8927 24.6135 52.1185 24.4336 52.3172C24.2264 52.5046 23.9297 52.6181 23.7224 52.5282C23.3069 52.3483 23.0239 52.7794 23.2974 53.2094C23.5457 53.6282 22.8609 54.1971 22.5232 53.8429C22.3149 53.6143 22.1339 53.7437 21.9035 54.2666C21.7236 54.6733 21.3754 54.9722 21.1166 54.9985C20.5338 54.9883 20.1877 55.7726 20.6295 56.1024C20.8631 56.2729 20.8379 56.4696 20.5412 56.6524C20.2056 56.9223 20.1015 56.8773 19.8921 56.4407C19.7617 56.1072 19.5923 55.9995 19.5155 56.1738C19.4387 56.3481 19.505 56.6188 19.6607 56.7556C19.8301 56.9326 19.5713 57.167 18.8991 57.4295C17.6714 57.9009 16.6414 59.3235 17.1485 59.8547C17.604 60.3634 18.4309 60.0297 18.8033 59.1872C18.9958 58.7515 19.2672 58.5575 19.5008 58.6586C19.708 58.7486 19.7995 59.0306 19.6838 59.2921C19.364 60.0183 17.645 61.039 17.3336 60.6961C17.1643 60.519 16.6983 60.6634 16.2217 61.0448C15.7693 61.4374 15.2391 61.6578 15.0834 61.5903C14.9025 61.5116 14.6437 61.6073 14.4891 61.7478C14.3344 61.9578 14.1661 61.9194 14.0998 61.7179C14.0346 61.5165 14.1377 61.3535 14.3712 61.3852C14.8888 61.402 15.1834 60.5952 14.7163 60.3929C14.5091 60.3031 14.4165 60.021 14.5196 59.7887C14.6227 59.5562 14.6079 59.3079 14.4522 59.2405C14.1156 59.0944 13.9483 59.472 14.0935 59.9845C14.185 60.1972 13.9536 60.5814 13.5528 60.9272C12.8816 61.467 12.8953 61.438 13.497 60.0034C14.0872 58.6671 14.0861 58.3897 13.6275 57.1183C13.3266 56.3304 13.0005 55.6699 12.87 55.6136C12.7669 55.5687 12.6743 55.148 12.6722 54.6626C12.6701 54.1079 12.4482 53.7004 12.0716 53.5721C11.6308 53.381 11.5782 53.2198 11.8485 52.8871C12.1578 52.5367 12.0537 52.2837 11.3646 51.6739C10.8586 51.2814 10.2095 50.9311 9.89813 50.9348C9.49732 50.934 9.44474 50.8421 9.72878 50.5497C9.93497 50.293 9.91916 49.698 9.64354 48.9212C8.89662 46.7635 8.843 46.3944 9.34796 46.3014C10.0854 46.1711 9.67933 45.0609 8.77146 44.6674C8.12237 44.3865 8.08345 44.2657 8.43166 43.8279C9.01131 43.1448 8.65782 42.1957 7.80255 42.0329C7.19344 41.942 7.17978 41.9018 7.72367 41.7911C8.51266 41.6139 8.67887 41.1669 8.03084 40.8859C7.7447 40.7623 7.58901 40.4868 7.67843 40.2835C7.92249 39.7316 6.76529 35.6315 6.4034 35.7515C6.23508 35.8517 6.19826 36.2162 6.30346 36.6079C6.51386 37.3911 6.46337 37.7847 6.12673 37.6386C5.99628 37.5824 5.90371 37.023 5.91423 36.3699C5.93527 35.2718 5.97312 35.1847 6.47808 35.1611C6.89256 35.133 6.86628 35.0524 6.30767 34.6373C5.68488 34.1596 5.65755 34.0097 6.13305 33.0043C6.6075 31.9988 6.58119 31.9181 5.98576 31.7983C5.62282 31.7104 5.36297 31.5287 5.42714 31.3834C5.50394 31.2091 5.46291 30.6722 5.36929 30.1129C5.22411 29.4616 5.28724 29.1084 5.54708 29.0821C6.16776 28.9359 6.4339 27.5631 5.86267 27.3158C5.57758 27.1921 5.3956 26.9055 5.40717 26.6684C5.43242 26.4716 5.58705 26.3311 5.76799 26.4097C5.94999 26.4884 6.0268 26.2448 5.94685 25.7257C5.86689 25.276 5.90369 24.7034 5.99311 24.5001C6.35289 23.6868 6.49073 19.594 6.20143 18.5689C5.92581 17.5148 6.13093 17.05 6.77896 17.331C6.96096 17.4097 7.20607 17.2738 7.30917 17.0415C7.43751 16.8203 7.64372 16.4941 7.73314 16.3601C8.22337 15.7416 9.08177 13.6567 8.89978 13.578C8.79668 13.5331 8.60314 13.6915 8.50005 13.9238C8.398 14.1563 8.20442 14.3147 8.04872 14.2472C7.58164 14.0449 8.09608 13.3683 9.03972 12.9118C9.6341 12.6157 10.3821 11.8322 11.1795 10.5858C11.8875 9.54282 12.8542 8.40417 13.3445 8.06304C14.61 7.15768 16.1228 6.5325 16.6025 6.70578C17.4452 6.967 18.5455 6.92469 19.0621 6.59471C19.3977 6.39423 19.5271 6.381 19.4503 6.62472C19.2578 7.06036 20.1667 7.52309 20.5801 7.21759C21.044 6.8652 21.3049 7.11631 21.1776 7.82276C21.0514 8.45992 21.7657 9.08103 22.0098 8.5291C22.2538 7.97718 22.6831 8.47471 22.6084 9.27295C22.559 9.87458 22.6894 10.0694 23.247 10.2071C23.9339 10.3316 24.6955 9.86573 24.4483 9.44696C23.066 7.25656 22.0119 6.07331 21.1303 5.76052C20.5601 5.58255 20.0404 5.28841 19.9363 5.10481C19.6491 4.63447 17.7576 4.29938 17.2274 4.58894C16.9697 4.75388 16.4773 4.74836 16.1396 4.60228C15.8293 4.46745 15.4138 4.42629 15.2591 4.56685C15.1171 4.67834 14.8457 4.73366 14.69 4.66625C14.145 4.43025 15.4254 3.98117 16.2543 4.13287C16.7214 4.19643 17.1485 4.13923 17.2127 3.99398C17.2768 3.84873 17.5609 3.83373 17.8471 3.9573C18.1584 4.09224 18.4551 3.97877 18.5708 3.71734C18.7244 3.3687 18.919 3.34901 19.3083 3.65628C19.5692 3.90739 20.2572 4.37857 20.8284 4.76451ZM45.1053 16.4231C44.9254 16.8298 44.3426 16.8888 44.108 16.5104C43.9523 16.3043 44.0428 16.1703 44.3532 16.0972C44.9612 15.9799 45.2463 16.1035 45.1053 16.4231ZM17.8544 5.69081C17.8681 5.86971 17.7513 5.99246 17.6219 5.9363C17.4662 5.86888 17.401 5.66747 17.4651 5.52222C17.5419 5.3479 17.645 5.25412 17.6966 5.27663C17.7744 5.31039 17.8533 5.48273 17.8544 5.69081ZM47.4924 20.5369C47.1042 20.7151 46.9327 19.7753 47.3061 19.4876C47.5776 19.2936 47.6691 19.3676 47.6964 19.7949C47.7238 20.1528 47.6217 20.4545 47.4924 20.5369ZM12.5439 5.46679C12.4797 5.61204 12.3114 5.71238 12.1557 5.64486C12.0263 5.5887 11.9611 5.38729 12.0253 5.24204C12.1021 5.06772 12.283 5.0077 12.4124 5.06397C12.5681 5.13138 12.6207 5.29247 12.5439 5.46679ZM30.3164 13.1658C30.33 13.3448 30.2143 13.4676 30.0849 13.4113C29.9292 13.3439 29.8629 13.1425 29.9271 12.9972C30.0039 12.8229 30.107 12.7292 30.1596 12.7517C30.2375 12.7854 30.3153 12.9578 30.3164 13.1658ZM54.8437 25.8672C54.7795 26.0124 54.5859 26.1015 54.4302 26.0341C54.3008 25.9778 54.3124 25.8102 54.4544 25.6986C54.6091 25.558 54.79 25.498 54.8679 25.5318C54.9205 25.5543 54.9205 25.693 54.8437 25.8672ZM10.4799 7.34117C10.4157 7.48641 10.2474 7.58665 10.0917 7.51924C9.96232 7.46308 9.89707 7.26156 9.96125 7.11631C10.038 6.9421 10.219 6.88208 10.3484 6.93824C10.5041 7.00566 10.5567 7.16685 10.4799 7.34117ZM53.6307 26.9337C53.4382 27.1614 53.2447 27.3892 53.2184 27.4473C53.1931 27.5054 52.9858 27.4848 52.7786 27.3949C52.4409 27.2487 52.4662 27.1213 52.9048 26.7576C53.5497 26.2067 54.1599 26.3667 53.6307 26.9337ZM53.8874 32.5125C53.0101 33.1705 52.504 33.1246 53.0847 32.4414C53.6381 31.8163 54.7501 31.2596 54.6996 31.6532C54.687 31.8209 54.3261 32.2182 53.8874 32.5125ZM48.315 31.5521C48.213 31.7846 48.0572 31.8557 47.9405 31.7012C47.8489 31.5578 47.809 31.2983 47.8858 31.124C47.9499 30.9787 48.1309 30.9188 48.2613 30.975C48.417 31.0424 48.4307 31.2907 48.315 31.5521ZM29.0234 25.9635C28.7657 26.2671 28.5848 26.2578 28.4922 25.9758C28.427 25.7743 28.529 25.4032 28.7615 25.1577C29.0193 24.8541 29.2002 24.8635 29.2917 25.1454C29.358 25.3469 29.2559 25.718 29.0234 25.9635ZM28.6921 27.3428C28.7057 27.5217 28.59 27.6446 28.4607 27.5883C28.305 27.5209 28.2397 27.3195 28.3028 27.1742C28.3807 26.9999 28.4838 26.9062 28.5353 26.9286C28.6132 26.9624 28.6921 27.1348 28.6921 27.3428ZM28.8404 28.7567C28.7762 28.9019 28.4407 28.9639 28.0904 28.9162C27.4423 28.8431 27.4423 28.8431 28.0893 28.6388C28.9046 28.4034 28.995 28.4081 28.8404 28.7567ZM5.9889 20.3108C5.91211 20.4852 5.79535 20.4692 5.67858 20.3146C5.58706 20.1713 5.5597 19.8827 5.62388 19.7374C5.70067 19.5631 5.84373 19.5903 5.93526 19.7337C6.05203 19.8882 6.05307 20.1656 5.9889 20.3108ZM30.652 31.3059C30.6656 31.4849 30.5489 31.6076 30.4195 31.5515C30.2638 31.4841 30.1986 31.2826 30.2627 31.1373C30.3395 30.9631 30.4426 30.8693 30.4941 30.8918C30.572 30.9256 30.6509 31.0979 30.652 31.3059ZM1.93029 19.0026C1.89242 19.0897 1.72412 19.19 1.5295 19.2097C1.36118 19.2406 1.25809 19.1263 1.32121 18.9811C1.39906 18.8068 1.5926 18.7178 1.722 18.7739C1.8777 18.8414 1.95554 18.9444 1.93029 19.0026ZM1.39486 20.916C1.18972 21.3807 0.735236 21.2881 0.694209 20.7512C0.654233 20.2836 1.20865 19.8665 1.43062 20.2048C1.50847 20.3772 1.4969 20.6835 1.39486 20.916ZM27.416 31.6344C27.4297 31.8134 27.2613 31.9137 27.0541 31.8237C26.8206 31.7226 26.7028 31.4987 26.767 31.3534C26.8437 31.1792 26.9994 31.1079 27.1288 31.1641C27.2845 31.2316 27.4149 31.4264 27.416 31.6344ZM5.57232 22.9335C5.48395 23.3449 5.38191 23.7854 5.30511 23.9596C5.0863 24.3841 4.87274 22.8381 5.06526 22.4024C5.34719 21.7633 5.69856 22.1577 5.57232 22.9335ZM42.2355 39.1615C41.9641 39.2863 41.821 39.2591 41.8978 39.0847C42.0777 38.6781 42.5427 38.4644 42.6353 38.7464C42.6479 38.856 42.468 39.0547 42.2355 39.1615ZM40.222 40.781C40.1831 40.8681 40.0158 40.9685 39.8212 40.9882C39.6529 41.0191 39.5487 40.9048 39.6129 40.7596C39.6897 40.5853 39.8843 40.4963 40.0137 40.5524C40.1694 40.6199 40.2472 40.7229 40.222 40.781ZM39.515 45.1812C39.4509 45.3265 39.3351 45.4493 39.2825 45.4268C39.2047 45.3931 39.1395 45.1917 39.1258 45.0126C39.1248 44.8047 39.2279 44.711 39.3583 44.7672C39.514 44.8346 39.5918 45.007 39.515 45.1812ZM21.4849 37.7165C21.4207 37.8618 21.3039 37.9845 21.2524 37.9621C21.1745 37.9284 21.1093 37.727 21.0956 37.548C21.0945 37.34 21.1977 37.2462 21.327 37.3025C21.4827 37.3699 21.5617 37.5422 21.4849 37.7165ZM34.6485 45.6338C34.0278 45.9187 33.4839 46.0294 33.4313 45.8682C33.3535 45.6959 33.6891 45.4259 34.1541 45.2815C34.5938 45.1259 35.0461 44.8026 35.1355 44.5992C35.4438 43.902 35.8972 43.8561 35.8215 44.5157C35.772 44.9093 35.3849 45.2953 34.6485 45.6338ZM3.4715 34.4121C3.40733 34.5573 3.23899 34.6576 3.08329 34.5901C2.9539 34.534 2.88762 34.3326 2.95179 34.1873C3.02964 34.013 3.2106 33.953 3.34 34.0091C3.49569 34.0767 3.54829 34.2378 3.4715 34.4121ZM32.1195 47.7911C31.2295 48.6861 30.7508 48.9288 31.0075 48.3478C31.1232 48.0864 31.3936 47.8231 31.5619 47.7922C31.7566 47.7725 32.0143 47.4689 32.1552 47.1493C32.2962 46.8297 32.4898 46.6713 32.594 46.855C32.7118 47.0096 32.5192 47.376 32.1195 47.7911ZM29.9503 49.3431C29.8861 49.4884 29.6926 49.5775 29.5369 49.51C29.4064 49.4538 29.419 49.2861 29.561 49.1745C29.7156 49.034 29.8966 48.974 29.9744 49.0077C30.026 49.0302 30.0271 49.1689 29.9503 49.3431ZM28.2734 51.0394C27.9767 51.2915 27.7063 51.4855 27.6537 51.463C27.6022 51.4406 27.718 51.1792 27.9368 50.8932C28.1556 50.6074 28.427 50.4134 28.5826 50.4809C28.712 50.5371 28.5711 50.7873 28.2734 51.0394ZM4.91376 41.8544C4.70651 41.8337 4.39515 41.6989 4.2647 41.5733C4.12163 41.4076 4.27732 41.4056 4.64026 41.563C5.00425 41.7204 5.10838 41.8347 4.91376 41.8544ZM27.5138 52.0599C27.437 52.2342 27.2435 52.3926 27.0499 52.4123C26.8816 52.4433 26.5976 52.7356 26.4692 53.0261C26.3409 53.3166 26.0568 53.609 25.8895 53.64C25.4877 53.7084 26.0021 52.7545 26.7627 52.0114C27.2014 51.5783 27.719 51.5951 27.5138 52.0599ZM4.86958 43.5653C4.71389 43.6365 4.57082 43.4707 4.54347 43.1821C4.44984 42.276 4.70758 42.0418 4.94323 42.767C5.06211 43.1296 5.02423 43.4941 4.86958 43.5653ZM5.84793 45.4776C5.96681 45.9095 5.95524 46.2159 5.82584 46.1596C5.52708 45.9957 5.00424 44.9389 5.11996 44.6774C5.27356 44.3289 5.63753 44.6942 5.84793 45.4776ZM24.7934 54.7223C24.6513 55.0419 24.3936 55.2069 24.2632 55.0814C24.0949 54.9737 23.7982 55.1564 23.592 55.4824C23.3732 55.8376 23.0891 56.0607 22.9598 56.0045C22.6484 55.8696 22.6999 55.7535 23.7445 54.7873C24.7376 53.8678 25.191 53.8219 24.7934 54.7223ZM6.75793 49.3669C6.68114 49.5411 6.56435 49.5253 6.44758 49.3706C6.35605 49.2273 6.3287 48.9387 6.39287 48.7935C6.46967 48.6192 6.61276 48.6464 6.70429 48.7896C6.82106 48.9443 6.8221 49.2216 6.75793 49.3669ZM21.5785 57.1714C21.0241 57.5884 20.6748 57.7486 20.7642 57.5453C20.9567 57.1096 22.3896 56.0346 22.4685 56.2763C22.4948 56.3569 22.095 56.7721 21.5785 57.1714ZM7.33231 50.4461C7.30812 50.7123 7.45118 51.0167 7.68472 51.1179C7.89197 51.2078 7.98456 51.4899 7.86884 51.7513C7.68895 52.158 7.62478 52.1645 7.38914 51.6474C6.72322 50.2167 6.64324 49.6283 7.13558 49.8418C7.26497 49.8981 7.33126 50.1688 7.33231 50.4461ZM8.30225 53.2888C8.12236 53.4875 8.11079 53.8632 8.30646 54.1209C8.47583 54.3672 8.5158 54.6268 8.3601 54.6981C8.11499 54.8339 7.5385 53.1999 7.71734 52.7933C7.76889 52.6771 8.00244 52.6396 8.23599 52.7407C8.49478 52.8531 8.52212 53.0723 8.30225 53.2888ZM8.74199 56.1438C8.75776 56.8774 8.74513 56.9065 8.52316 56.3603C8.35274 56.0445 8.30017 55.6753 8.36434 55.5301C8.55581 55.0943 8.72515 55.3407 8.74199 56.1438ZM13.2866 59.0814C13.2225 59.2266 13.0541 59.327 12.8984 59.2594C12.7691 59.2033 12.7038 59.0019 12.768 58.8566C12.8448 58.6823 13.0257 58.6223 13.1551 58.6786C13.3108 58.746 13.3634 58.9071 13.2866 59.0814ZM9.95916 59.1972C10.0665 60.2129 9.92655 60.7405 9.53731 60.5719C9.40791 60.5156 9.35529 60.2852 9.45734 60.0528C9.56043 59.8204 9.45523 59.4288 9.20801 59.218C8.76617 58.8189 8.7641 58.4721 9.23013 58.2584C9.66882 58.0335 9.85186 58.2508 9.95916 59.1972ZM20.0257 63.4888C19.5218 63.7203 19.3125 63.2837 19.7648 62.9604C19.9195 62.8198 20.152 62.8516 20.2698 63.0062C20.3739 63.1898 20.2971 63.3641 20.0257 63.4888ZM12.9899 68.7119C12.8227 68.8815 12.4987 68.9836 12.2399 68.9406C11.9033 68.8638 11.8633 68.7429 12.1084 68.4684C12.5334 67.9951 13.3771 68.2564 12.9899 68.7119Z" fill="white"/>
</svg>
