<svg width="88" height="21" viewBox="0 0 88 21" fill="none" xmlns="http://www.w3.org/2000/svg">
<g clip-path="url(#clip0_178_642)">
<path d="M44.8145 6.35487H41.944L39.9126 9.89324H38.8669L38.8337 2.2356H36.1162V16.0656H38.8337L38.8669 12.2698H39.9061L42.6032 16.0656H45.6138L42.0973 11.0353L44.8145 6.35487Z" fill="#0A2540"/>
<path d="M65.3819 10.91C64.8297 10.5558 64.2315 10.2782 63.6035 10.0848L63.004 9.86034L62.8419 9.79999C62.4695 9.66166 62.0783 9.51623 62.0649 9.14079C62.0616 9.02933 62.0866 8.91881 62.1377 8.81952C62.1889 8.72023 62.2647 8.63545 62.3582 8.57307C62.5548 8.43864 62.7855 8.36094 63.024 8.3486C63.5444 8.313 64.0602 8.46544 64.476 8.77772L64.5495 8.82392L66.0014 7.16696L65.9279 7.10756C65.7471 6.94783 65.5509 6.80631 65.3419 6.68507C64.9675 6.47271 64.56 6.32325 64.1363 6.24276C63.526 6.11407 62.8951 6.11407 62.2847 6.24276C61.6948 6.32016 61.135 6.54759 60.6595 6.90291C60.3557 7.13857 60.1017 7.43129 59.9121 7.76431C59.7224 8.09729 59.6007 8.4641 59.5541 8.84371C59.4707 9.5288 59.6463 10.2202 60.0469 10.7845C60.5791 11.3686 61.2748 11.7822 62.0449 11.9728L62.165 12.0124L62.438 12.1048C63.4237 12.4349 63.7036 12.5669 63.8633 12.765C63.9375 12.8646 63.9795 12.9843 63.9831 13.1082C63.9831 13.5769 63.4036 13.7684 63.0109 13.8872C62.7359 13.9383 62.4537 13.9331 62.1811 13.8718C61.9084 13.8105 61.6511 13.6944 61.4257 13.5307C61.0605 13.2887 60.7481 12.9767 60.5066 12.6131C60.4663 12.6547 60.3327 12.787 60.1582 12.9599C59.6683 13.4452 58.8552 14.2506 58.8749 14.2701L58.9215 14.3361C59.6466 15.2361 60.6628 15.8609 61.7985 16.1053C62.058 16.155 62.3208 16.1881 62.5846 16.2043H62.8576C63.7547 16.2229 64.6338 15.9518 65.3619 15.4319C65.8544 15.0867 66.2321 14.6041 66.4477 14.0456C66.5786 13.6707 66.6249 13.2719 66.5835 12.8772C66.5422 12.4825 66.4139 12.1017 66.2078 11.7616C65.9971 11.4223 65.7156 11.1319 65.3819 10.91Z" fill="#0A2540"/>
<path d="M72.389 10.0847C73.0147 10.2781 73.611 10.5557 74.1606 10.9098C74.4884 11.1318 74.765 11.4197 74.973 11.7548C75.1791 12.095 75.3074 12.4758 75.3487 12.8705C75.39 13.2651 75.3438 13.664 75.2129 14.0389C74.9976 14.5974 74.6196 15.0799 74.1271 15.4252C73.399 15.9451 72.5199 16.2162 71.6228 16.1976H71.3498C71.086 16.1818 70.8235 16.1487 70.564 16.0986C69.428 15.8542 68.4121 15.2294 67.6867 14.3294L67.6335 14.2634C67.6204 14.246 68.2625 13.6074 68.7481 13.1249C69.0031 12.8715 69.2147 12.661 69.2653 12.6064C69.5104 12.9671 69.8221 13.2785 70.1843 13.524C70.4111 13.6879 70.6693 13.804 70.943 13.8653C71.2166 13.9266 71.5001 13.9318 71.7761 13.8805C72.1692 13.7617 72.7417 13.5702 72.7417 13.1015C72.7454 12.9775 72.7053 12.8562 72.6285 12.7582C72.4687 12.5602 72.1892 12.4282 71.1966 12.0981L70.9236 12.0057L70.8104 11.9661C70.04 11.7755 69.3443 11.3618 68.8121 10.7778C68.4082 10.2151 68.2323 9.52231 68.3193 8.83699C68.3682 8.45745 68.4922 8.09116 68.6842 7.75923C68.8761 7.4273 69.1324 7.13625 69.4382 6.90279C69.9146 6.54953 70.4741 6.32234 71.0634 6.24264C71.676 6.11378 72.309 6.11378 72.9216 6.24264C73.3432 6.32336 73.7484 6.47282 74.1205 6.68495C74.3328 6.80452 74.5313 6.94614 74.7135 7.10741L74.7801 7.16683L73.3281 8.8238L73.2615 8.77757C72.8451 8.46641 72.3296 8.31409 71.8095 8.34848C71.5707 8.36082 71.34 8.43852 71.1434 8.57295C71.0522 8.63782 70.9778 8.72297 70.9256 8.82154C70.8734 8.92014 70.8455 9.0294 70.8435 9.14067C70.8636 9.51693 71.2501 9.66216 71.6297 9.80079L71.7826 9.86022L72.389 10.0847Z" fill="#0A2540"/>
<path fill-rule="evenodd" clip-rule="evenodd" d="M53.7395 6.35496V7.30557H53.6197C52.8759 6.56739 51.8682 6.14988 50.8156 6.14371C50.1705 6.13108 49.5297 6.25327 48.9354 6.50238C48.3409 6.75146 47.806 7.12185 47.3657 7.58943C46.4774 8.57528 46.001 9.85927 46.0335 11.1806C45.999 12.5241 46.4745 13.8315 47.3657 14.8444C47.7955 15.3122 48.3218 15.6829 48.9092 15.9313C49.4965 16.1796 50.1308 16.2997 50.769 16.2835C51.8229 16.2639 52.8365 15.8784 53.6329 15.1943H53.7395V16.0458H56.5637V6.35496H53.7395ZM53.8793 11.2334C53.9078 12.0144 53.6447 12.7782 53.14 13.3789C52.8982 13.6472 52.5999 13.8596 52.2662 14.0011C51.9325 14.1425 51.5716 14.2095 51.2087 14.1974C50.8569 14.2033 50.5081 14.1304 50.1885 13.9841C49.8693 13.8378 49.5871 13.6218 49.3636 13.3525C48.8652 12.7394 48.6096 11.9672 48.6444 11.1806C48.6217 10.4176 48.8826 9.67302 49.3771 9.08794C49.6048 8.82262 49.889 8.61046 50.2089 8.46667C50.5291 8.32289 50.8773 8.251 51.2287 8.25618C51.589 8.24506 51.9473 8.31327 52.278 8.45597C52.6085 8.59868 52.9028 8.81225 53.14 9.08135C53.6443 9.68461 53.9075 10.4505 53.8793 11.2334Z" fill="#0A2540"/>
<path fill-rule="evenodd" clip-rule="evenodd" d="M84.4573 7.30568V6.35511H87.2811V16.046H84.4573V15.1944H84.3506C83.554 15.8785 82.5404 16.264 81.4868 16.2836C80.8482 16.2998 80.214 16.1797 79.627 15.9314C79.0396 15.6831 78.513 15.3124 78.0831 14.8445C77.1919 13.8316 76.7168 12.5242 76.7513 11.1807C76.7188 9.85941 77.1949 8.57543 78.0831 7.58954C78.5254 7.12246 79.0616 6.75246 79.6568 6.50345C80.2524 6.25444 80.8938 6.13195 81.5399 6.14386C82.5903 6.15173 83.595 6.56911 84.3372 7.30568H84.4573ZM83.8578 13.379C84.3651 12.78 84.6286 12.015 84.5971 11.2335C84.6282 10.4501 84.3647 9.68318 83.8578 9.08146C83.6206 8.8124 83.3259 8.59879 82.9955 8.45612C82.6651 8.31342 82.3064 8.24517 81.9461 8.25629C81.5947 8.25114 81.2466 8.323 80.9267 8.46682C80.6064 8.6106 80.3223 8.82277 80.0945 9.08809C79.6 9.67314 79.3395 10.4178 79.3622 11.1807C79.327 11.9673 79.583 12.7395 80.0814 13.3526C80.3049 13.622 80.5867 13.8379 80.9063 13.9842C81.2256 14.1305 81.5744 14.2034 81.9261 14.1976C82.289 14.2097 82.65 14.1427 82.9837 14.0012C83.3177 13.8598 83.616 13.6474 83.8578 13.379Z" fill="#0A2540"/>
<path fill-rule="evenodd" clip-rule="evenodd" d="M8.67641 10.4046C8.69206 4.6728 13.4311 0 19.3863 0C25.2836 0 30.1641 4.68825 30.0963 10.433C30.0963 16.1778 25.2836 20.8661 19.3863 20.8661C13.4987 20.8661 8.69216 16.259 8.67641 10.4616V18.2248H4.8805L0 3.03745H8.67641V10.4046ZM15.387 10.433C15.387 12.5461 17.2172 14.3289 19.3863 14.3289C21.6232 14.3289 23.3856 12.5461 23.3856 10.433C23.3856 8.32 21.5555 6.53717 19.3863 6.53717C17.2172 6.53717 15.387 8.32 15.387 10.433Z" fill="#0070F0"/>
</g>
<defs>
<clipPath id="clip0_178_642">
<rect width="87.2812" height="21" fill="white"/>
</clipPath>
</defs>
</svg>
