<svg width="283" height="64" viewBox="0 0 283 64" fill="none" xmlns="http://www.w3.org/2000/svg">
<path d="M47.1067 23.4036C47.8823 23.4036 48.9437 22.9091 50.2909 21.9202C50.4133 21.879 50.495 21.7966 50.6175 21.7141V46.9736C50.6175 48.8279 51.8013 50.1877 54.1689 50.9707H48.0456C46.8618 50.9707 46.2494 50.435 46.2494 49.3224V40.2158C46.2086 40.1746 46.1269 40.1334 46.0861 40.1746C44.5348 40.7103 43.351 41.0399 42.5345 41.0812C42.3712 41.2047 42.2488 41.4108 42.1263 41.6168L36.7377 50.9707H31.594L37.9215 39.8449C35.0639 38.0731 33.6352 35.3535 33.6352 31.6036C33.6352 25.2991 36.4927 22.1262 42.2488 22.1262C43.5959 22.1262 45.0655 22.5383 46.6985 23.3624C46.8209 23.4036 46.9842 23.4036 47.1067 23.4036ZM38.0032 31.6036C38.0032 33.0047 38.2481 34.3645 38.738 35.6419C39.7586 38.3203 41.1874 39.6801 43.0244 39.6801C45.1472 39.6801 46.2086 39.268 46.2086 38.4027V24.7222C46.2086 23.9393 45.1472 23.5684 43.0244 23.5684C41.2282 23.5684 39.8402 24.8046 38.8604 27.277C38.2889 28.678 38.0032 30.1202 38.0032 31.6036ZM62.4419 57.6047V30.4911C63.5847 30.4499 64.442 30.2027 65.0544 29.7494C65.8709 29.2137 66.2792 28.9253 66.3199 28.9253V30.079C67.6261 29.5846 68.8509 29.3373 69.953 29.3373C73.7495 29.3373 76.4847 31.3152 78.2404 35.2298C78.9343 36.7957 79.2606 38.4852 79.2606 40.3394C79.2606 42.4409 78.7709 44.4188 77.8322 46.3555C75.995 50.0229 73.3825 51.836 69.953 51.836C69.055 51.836 68.2792 51.7124 67.6261 51.5063C66.7689 51.2179 66.3199 51.0943 66.2792 51.0943V59.1298C66.2792 60.3245 65.7895 60.9015 64.8503 60.9015H59.5434C61.462 59.9951 62.4419 58.8821 62.4419 57.6047ZM69.2185 50.2702C71.0144 50.2702 72.4026 48.7455 73.4232 45.7374C74.0356 43.8832 74.3619 42.1113 74.3619 40.4219C74.3619 38.5675 74.0764 36.8369 73.5454 35.2298C72.5248 32.3454 71.0551 30.9032 69.1777 30.9032C67.2586 30.9032 66.2792 31.2328 66.2792 31.9333V49.3224C66.2792 49.9405 67.2586 50.2702 69.2185 50.2702ZM86.7119 47.8802V30.2851C88.0181 30.1615 89.0795 29.7081 89.9367 28.9253H90.0594V40.5454L99.4897 29.2549H101.163L95.4478 36.1364C95.2849 36.3424 95.2029 36.466 95.2029 36.5072C95.2029 36.5897 95.3256 36.7957 95.5297 37.1665L103.408 50.9707H99.6118C99.5711 50.9707 99.4484 50.847 99.3263 50.5586L92.8353 39.3092L90.0594 42.5233V49.24C90.0594 50.3526 89.6512 50.8882 88.7939 50.8882H84.2216C85.8954 50.1877 86.7119 49.1576 86.7119 47.8802ZM109.829 33.2107C109.829 30.0378 111.951 28.4308 116.156 28.4308C117.258 28.4308 118.198 28.5956 119.014 28.9253C121.014 29.7906 122.035 30.9855 122.035 32.5514V47.3857C122.035 48.8279 123.096 50.0229 125.26 50.9707H119.831C119.382 50.9707 118.973 50.641 118.524 49.9405C117.136 50.641 115.83 51.0119 114.564 51.0119C109.625 51.0119 107.176 48.4983 107.176 43.5123C107.176 38.5264 109.625 36.0539 114.564 36.0539C115.83 36.0539 117.054 36.3424 118.32 36.9605V32.4278C118.32 30.7796 117.626 29.9554 116.197 29.9554C114.605 29.9554 113.87 31.3564 114.033 34.1996C112.727 34.3645 111.625 34.859 110.768 35.6419H110.686C110.115 35.6419 109.829 34.8177 109.829 33.2107ZM110.727 43.4299C110.727 47.0973 112.523 48.9515 116.075 48.9515C117.585 48.9515 118.32 48.6631 118.32 48.0862V38.9384C118.32 38.4027 117.504 38.1143 115.911 38.1143C112.442 38.1143 110.727 39.8861 110.727 43.4299ZM142.009 30.2027C142.867 30.2027 143.765 29.7906 144.704 28.9253H144.867V48.4159C144.867 49.3636 145.684 50.2289 147.357 50.9707H142.785C141.846 50.9707 141.397 50.435 141.397 49.3224V42.853C140.703 43.1414 140.009 43.3475 139.315 43.4711C138.784 43.5947 138.499 43.6359 138.499 43.6771L134.294 50.9707H130.416L134.824 43.2651C135.029 42.8942 135.111 42.6882 135.111 42.6058V42.5233C132.987 41.0812 131.926 39.1032 131.926 36.5072C131.926 31.6861 134.131 29.2549 138.499 29.2549C139.438 29.2549 140.254 29.4197 141.03 29.7494C141.642 30.0378 141.969 30.2027 142.009 30.2027ZM135.315 36.3424C135.315 37.5786 135.478 38.6087 135.845 39.4329C136.662 41.452 137.723 42.4409 138.989 42.4409C140.58 42.4409 141.356 42.1525 141.356 41.6168V31.1092C141.356 30.5735 140.58 30.2851 138.989 30.2851C137.723 30.2851 136.662 31.274 135.845 33.2519C135.478 34.1172 135.315 35.1474 135.315 36.3424ZM177.386 50.9707H171.956C170.731 50.9707 170.119 50.3526 170.119 49.1164V21.6317H189.265V48.0862C189.265 49.24 190.163 50.1877 191.96 50.9707H186.571C185.305 50.9707 184.652 50.3526 184.652 49.1164V22.9503H174.732V48.2098C174.732 49.2812 175.63 50.1877 177.386 50.9707ZM204.201 29.8318H197.466V28.8428H214.611V29.8318H207.794V48.7043C207.794 49.7345 208.447 50.4762 209.713 50.9707H205.63C204.773 50.9707 204.365 50.5998 204.365 49.8581V29.9554L204.201 29.8318ZM219.59 49.6521V30.2851C220.773 30.1615 221.876 29.7081 222.896 28.8428V47.2621L230.408 30.3675C230.449 30.3262 230.489 30.2851 230.531 30.2851C231.959 29.9142 232.98 29.4609 233.592 28.9253H233.715V48.0862C233.715 49.2812 234.572 50.2289 236.327 50.9707H231.755C230.816 50.9707 230.367 50.5174 230.367 49.6521V33.87L222.896 50.9707H220.937C220.039 50.9707 219.59 50.5174 219.59 49.6521ZM241.116 49.6521V30.2851C242.299 30.1615 243.402 29.7081 244.423 28.8428V48.9103C244.423 49.6108 244.668 49.9405 245.117 49.9405H251.934V30.2851C253.118 30.1615 254.22 29.7081 255.241 28.8428V48.9103C255.241 49.8169 256.016 50.3114 257.568 50.3526V50.4762C256.874 51.2591 256.343 52.083 255.935 52.9483C255.73 53.402 255.608 53.6492 255.567 53.6903V51.0531H242.463C241.565 51.0531 241.116 50.5998 241.116 49.6521ZM264.538 33.2107C264.538 30.0378 266.661 28.4308 270.865 28.4308C271.968 28.4308 272.907 28.5956 273.723 28.9253C275.723 29.7906 276.744 30.9855 276.744 32.5514V47.3857C276.744 48.8279 277.805 50.0229 279.969 50.9707H274.54C274.09 50.9707 273.682 50.641 273.233 49.9405C271.845 50.641 270.539 51.0119 269.274 51.0119C264.334 51.0119 261.885 48.4983 261.885 43.5123C261.885 38.5264 264.334 36.0539 269.274 36.0539C270.539 36.0539 271.763 36.3424 273.029 36.9605V32.4278C273.029 30.7796 272.335 29.9554 270.906 29.9554C269.314 29.9554 268.579 31.3564 268.743 34.1996C267.436 34.3645 266.334 34.859 265.477 35.6419H265.395C264.824 35.6419 264.538 34.8177 264.538 33.2107ZM265.436 43.4299C265.436 47.0973 267.232 48.9515 270.784 48.9515C272.294 48.9515 273.029 48.6631 273.029 48.0862V38.9384C273.029 38.4027 272.212 38.1143 270.621 38.1143C267.15 38.1143 265.436 39.8861 265.436 43.4299Z" fill="#FF0090" fill-opacity="0.3"/>
<path d="M29.5461 6.85674C29.1523 6.81199 28.7726 6.77286 28.7125 6.76485C27.8317 6.60069 27.1925 6.85284 27.5673 7.22102C27.6345 7.28429 27.6351 7.38914 27.5549 7.42499C27.4552 7.46989 27.328 7.32878 27.2467 7.12008C27.1189 6.80424 27.0322 6.75002 26.7121 6.78879C25.8194 6.89842 25.5458 6.97449 25.5068 7.09724C25.4868 7.17612 25.307 7.22191 25.1135 7.19219C24.8936 7.15114 24.7468 7.22857 24.6943 7.41557C24.6423 7.63744 24.5757 7.64404 24.3948 7.4803C24.2009 7.31083 24.1272 7.33211 24.0086 7.59555C23.8899 7.85899 23.8428 7.8566 23.7485 7.64233C23.6543 7.42801 23.4479 7.4625 22.6029 7.81908C21.7173 8.19361 21.591 8.297 21.6458 8.56419C21.707 8.81675 21.687 8.86067 21.5266 8.82768C21.4199 8.78236 21.2731 8.75499 21.1929 8.72101C20.8057 8.62668 20.2607 8.98836 20.0695 9.48267C19.9243 9.90949 19.8582 9.95101 19.6844 9.80756C19.4033 9.58387 18.7836 9.6524 18.6579 9.93051C18.6048 10.0476 18.6254 10.1783 18.6926 10.2066C18.7727 10.2406 18.7798 10.3657 18.7267 10.4828C18.6742 10.5999 18.5474 10.6683 18.4407 10.6231C18.334 10.5778 18.1807 10.6349 18.0745 10.7294C17.9813 10.8295 17.7885 10.8696 17.6417 10.8073C17.4413 10.7223 17.3416 10.8022 17.1629 11.1973C17.0377 11.4755 16.9988 11.7728 17.0724 11.8564C17.1932 11.9772 18.0913 11.5385 18.2099 11.2751C18.25 11.2222 18.789 10.91 19.4011 10.6116C20.0197 10.2984 20.7244 9.86495 20.9638 9.6525C21.1892 9.43433 21.4557 9.30305 21.5293 9.35165C21.6762 9.4489 23.2069 8.84246 23.293 8.65223C23.3786 8.46194 24.0519 8.31126 24.3255 8.40986C24.4457 8.4608 24.5789 8.44758 24.6055 8.38905C24.632 8.33046 24.898 8.23415 25.1715 8.19304C25.4646 8.14293 25.6645 8.15802 25.6315 8.23118C25.5789 8.34825 24.6071 8.77336 24.4468 8.74032C23.8932 8.62756 22.7947 9.08618 22.7627 9.4388C22.7503 9.57289 22.597 9.66494 22.3706 9.67352C21.8505 9.66228 20.2066 10.3778 20.0809 10.6558C20.0219 10.7876 19.8686 10.8796 19.7353 10.8929C19.6085 10.8915 19.4428 11.0128 19.3767 11.1592C19.2381 11.4666 18.7657 11.7022 18.698 11.4992C18.6774 11.4383 18.3719 11.6575 18.0133 11.9936C17.6683 12.3355 17.2891 12.5758 17.2089 12.5418C17.1152 12.5022 16.9755 12.5999 16.9029 12.761C16.8303 12.922 16.7041 13.0254 16.6239 12.9914C16.5308 12.9517 16.4311 13.1014 16.3591 13.4022C16.287 13.668 16.1743 13.8469 16.1077 13.8186C16.0275 13.7846 15.7941 13.8427 15.5546 13.9504C14.5764 14.3901 15.1988 13.3287 16.2496 12.763C16.5026 12.626 16.5557 12.5438 16.4549 12.449C16.3812 12.3654 16.3672 12.1851 16.4333 12.0388C16.5984 11.6728 16.404 11.3986 16.1445 11.5851C15.9652 11.7008 15.9181 11.6635 15.8569 11.376C15.8228 11.1697 15.8417 10.8813 15.9008 10.7496C15.9669 10.6032 16.0324 10.352 16.0454 10.183C16.0774 9.90018 16.0773 9.90018 16.2323 10.2623C16.32 10.4563 16.4338 10.5917 16.5069 10.5706C16.7133 10.4662 16.6564 9.67493 16.4295 9.61363C16.3027 9.57726 16.1023 9.49234 15.962 9.41539C15.7681 9.31585 15.7746 9.26626 15.9874 9.14721C16.2003 9.02827 16.2133 8.96406 16.0725 8.81722C15.9122 8.64453 15.9187 8.62985 16.1781 8.54811C16.358 8.50227 16.4706 8.3583 16.4901 8.17467C16.5156 7.87158 16.3211 7.70211 16.2155 7.93631C16.1824 8.00947 16.0963 8.05999 16.0291 8.03169C15.9625 8.00333 16.0021 7.84572 16.1148 7.7017C16.3005 7.46656 16.287 7.42592 15.9934 7.4062C15.7334 7.3831 15.6998 7.3165 15.8185 7.05311C15.9571 6.7457 15.7393 5.64199 15.5254 5.5514C15.4718 5.52877 15.3521 5.61754 15.2659 5.73794C15.1668 5.88758 15.1062 5.73986 15.111 5.27105C15.1051 3.97846 14.7086 3.23499 14.2639 3.65665C14.1772 3.74211 14.2037 3.68358 14.3234 3.52493C14.4957 3.28412 14.4881 3.15902 14.2741 2.92866C14.1197 2.77621 14.0125 2.59115 14.0456 2.51803C14.0721 2.45944 13.804 2.13658 13.4492 1.82931C12.9405 1.36958 12.7731 1.28134 12.6139 1.38806C12.4411 1.48912 12.401 1.47211 12.4135 1.30312C12.4259 1.06421 12.0782 0.88204 11.9856 1.08699C11.9525 1.16012 11.8263 1.19366 11.6925 1.13707C11.5723 1.0861 11.5387 1.01953 11.6053 0.977951C11.6784 0.956743 11.7115 0.813685 11.6909 0.682916C11.6297 0.430349 11.0756 0.282672 10.9764 0.502218C10.9434 0.575402 10.8432 0.55041 10.763 0.446518C10.6622 0.351655 10.4288 0.339895 10.236 0.41502C10.0431 0.490091 9.80969 0.478332 9.71597 0.368822C9.58164 0.242302 9.44189 0.270179 9.25606 0.470405L8.96409 0.765024L9.0226 0.388771C9.06162 0.196157 9.06105 0.0214973 9.04755 0.0158275C8.87362 -0.0578268 8.19437 0.142504 8.12179 0.268551C7.91003 0.66701 7.83688 0.723236 7.50373 0.756308C7.18361 0.795104 7.17062 0.789432 7.42955 0.567945C7.58229 0.440953 7.68198 0.291282 7.64131 0.239362C7.52053 0.0486378 6.29585 0.540753 6.32343 0.761715C6.32399 0.866498 6.2178 0.960942 6.09105 0.959527C5.94429 0.967139 5.75846 1.1324 5.65283 1.36654C5.43509 1.84957 5.08842 1.98181 5.04726 1.61548C5.03317 1.47006 4.95355 1.61076 4.8555 1.97006C4.69787 2.53089 4.67134 2.55451 4.4368 2.33313C4.25588 2.16933 4.16921 2.18493 4.07713 2.38988C4.00454 2.55084 3.85178 2.71279 3.71203 2.77563C3.5322 2.85637 3.49916 2.96446 3.58041 3.24302C3.70933 3.69854 3.63674 3.89446 3.42223 3.66416C3.19473 3.42813 2.87622 3.78133 2.96452 4.15002C3.01219 4.39692 2.97266 4.48469 2.69316 4.61032C2.50682 4.70571 2.26144 5.00269 2.14877 5.25154C1.9841 5.61743 1.99114 5.74252 2.20456 5.83316C2.3519 5.89539 2.44561 6.00492 2.40607 6.09275C2.37302 6.16596 2.24627 6.19947 2.12602 6.14853C1.95268 6.0749 1.87955 6.16601 1.78096 6.52529C1.72896 6.78207 1.6293 6.96674 1.57622 6.94405C1.34221 6.79253 1.25555 6.84311 1.31025 7.1103C1.36442 7.3076 1.33138 7.38076 1.22467 7.33549C0.970628 7.22789 0.852541 7.73588 1.10009 7.92799C1.22738 8.03419 1.28155 8.23149 1.21547 8.37786C1.12988 8.56814 1.02317 8.5927 0.862294 8.45487C0.621791 8.24814 0.415945 8.45731 0.590362 8.74053C0.650488 8.81842 0.59146 9.02005 0.46579 9.19331C0.187369 9.56347 0.0644003 10.4704 0.226361 10.9924C0.28757 11.2101 0.262121 11.4783 0.162453 11.593C0.0562855 11.7224 0.0573588 12.0018 0.165694 12.2917C0.287028 12.6222 0.275119 12.9309 0.129409 13.2528C-0.114886 13.7944 0.000483798 14.2443 0.359614 14.0828C0.6792 13.9392 0.746914 14.2121 0.427868 14.3905C0.255074 14.4916 0.201987 14.5737 0.275655 14.6923C0.336323 14.7702 0.316827 14.8839 0.243701 14.9401C0.0243232 15.1086 0.181401 17.6164 0.422446 17.7882C1.03779 18.2234 1.16129 19.1127 0.655905 19.4216C0.543242 19.4958 0.496652 19.5982 0.557319 19.676C0.597403 19.7629 0.770745 19.7318 0.896955 19.6283C1.11633 19.4597 1.10333 19.524 0.891532 19.9224C0.679741 20.3209 0.687319 20.4809 0.874738 20.7C1.01557 20.8468 1.07679 21.1343 1.0443 21.3123C0.985794 21.6187 1.23604 22.5095 1.40992 22.583C1.57025 22.651 1.7008 22.0439 1.56701 21.8825C1.37905 21.6984 1.45813 21.383 1.67155 21.4736C2.00576 21.6151 2.0686 22.3219 1.78367 22.7766C1.52584 23.1727 1.52638 23.3124 1.79504 23.8449C2.09784 24.4789 2.37194 24.6124 2.24952 24.0724C2.13415 23.5875 2.3611 23.6489 2.60323 24.17C2.81881 24.61 2.81882 24.6449 2.49219 24.7333C2.25927 24.7914 2.18615 24.8825 2.24031 25.0449C2.29448 25.2073 2.3611 25.2356 2.46726 25.1412C2.70668 24.9636 2.90711 25.0835 2.79498 25.3323C2.7419 25.4494 2.77602 25.6208 2.87678 25.7156C2.98403 25.8308 2.96453 25.9795 2.82531 26.1471C2.65252 26.353 2.66661 26.4285 2.88003 26.5192C3.06691 26.5984 3.12107 26.7259 3.03494 26.9161C2.93581 27.1357 2.98295 27.2079 3.22345 27.2399C3.49646 27.2687 3.50999 27.3093 3.3047 27.5534C3.13895 27.7446 3.13894 27.8494 3.29928 27.9174C3.40653 27.9626 3.48725 28.1713 3.46829 28.3899C3.42983 28.8271 3.65246 29.4271 3.75809 29.1929C3.79817 29.1051 3.75754 28.9833 3.69687 28.9054C3.59016 28.7902 3.60965 28.7464 3.79599 28.6509C4.00237 28.5465 4.03595 28.6131 4.01104 28.9861C3.97854 29.2339 3.93954 29.4965 3.9065 29.5696C3.77433 29.8623 4.17084 30.5709 4.50451 30.6077C4.77155 30.651 4.84522 30.7695 4.84738 31.2237C4.85714 32.0125 5.05484 33.0204 5.21519 33.0883C5.29535 33.1223 5.38148 32.967 5.43401 32.7451C5.53154 32.2461 5.78557 32.3188 5.70758 32.8088C5.67505 33.0217 5.71675 33.423 5.80454 33.7218C5.89934 34.006 5.89393 34.3001 5.80073 34.3653C5.72109 34.4361 5.7081 34.5702 5.80181 34.6447C5.89552 34.7542 5.85655 34.9469 5.68428 35.2226C5.45948 35.5805 5.45948 35.6504 5.69294 35.6971C5.85325 35.7301 6.01955 35.6436 6.07264 35.5266C6.2243 35.1899 6.71669 34.9454 6.99727 35.0642C7.17062 35.1378 7.1847 35.2483 7.03897 35.4306C6.92633 35.5746 6.90685 35.7233 6.98701 35.7573C7.20042 35.8479 7.49239 35.5183 7.51785 35.1454C7.54873 34.618 7.97173 33.7162 8.25778 33.541C8.5367 33.3805 8.5367 33.3805 8.44464 33.6203C8.30597 33.9276 8.41974 33.9933 8.85903 33.8658C9.25173 33.7359 9.35086 33.5512 9.01775 33.5494C8.82434 33.5547 8.80434 33.4937 8.95002 33.3464C9.04322 33.2463 9.14935 33.1169 9.16884 33.0731C9.18889 33.0292 9.249 33.107 9.31616 33.2401C9.40395 33.4342 9.4706 33.4625 9.5903 33.3737C9.80969 33.2051 9.71541 32.9559 9.33405 32.7071L9.01992 32.5217L9.53287 32.4427C9.82592 32.3926 10.1726 32.3652 10.3194 32.3576C10.4727 32.3704 10.7917 32.122 11.0371 31.825C11.276 31.5426 11.5414 31.2716 11.6281 31.256C11.7348 31.2315 11.8209 31.0762 11.8268 30.9217C11.8393 30.7528 11.9921 30.5908 12.2185 30.5124C12.6578 30.3499 13.122 29.8145 12.9216 29.7295C12.8414 29.6956 12.8078 29.5941 12.8409 29.5209C12.8804 29.4331 13.0272 29.4255 13.174 29.4878C13.3614 29.5671 13.4877 29.4986 13.5933 29.2644C13.6794 29.0742 13.8651 28.874 14.0049 28.8111C14.2042 28.7214 14.2172 28.6223 14.0558 28.3447C13.8278 27.934 13.9258 27.5398 14.233 27.6701C14.3402 27.7153 14.493 27.6233 14.5656 27.4622C14.6382 27.3013 14.7644 27.1979 14.8315 27.2262C14.9117 27.2601 15.0244 27.1511 15.0969 26.9901C15.1695 26.8291 15.3423 26.6931 15.4691 26.6945C15.6023 26.6812 15.7621 26.5745 15.8282 26.4282C15.9734 26.1062 16.2729 26.0065 16.294 26.277C16.3081 26.4224 16.3948 26.4418 16.5811 26.3813C16.7875 26.3119 16.9067 26.1183 17.0383 25.6859C17.1765 25.1689 17.236 25.107 17.45 25.1977C17.8102 25.3506 18.2955 24.9459 18.2804 24.486C18.2717 24.0815 18.5106 23.869 18.5458 24.25C18.594 24.6366 18.9537 24.4751 19.0447 24.0257C19.0972 23.7688 19.1768 23.663 19.257 23.732C19.3372 23.8009 19.7228 23.5808 20.1286 23.2469L20.8528 22.6647L20.6578 22.3206C20.4763 22.0171 20.4899 21.9879 20.7959 21.8386C21.2352 21.6412 21.3419 21.7214 21.0765 22.0274C20.9638 22.1714 20.9178 22.3088 20.9979 22.3428C21.2119 22.4334 21.603 21.8843 21.4752 21.6733C21.408 21.5751 21.441 21.432 21.5337 21.3668C21.6599 21.2635 21.727 21.2918 21.8078 21.4655C21.9556 21.8072 22.2281 21.5566 22.2129 21.0967C22.1907 20.6515 22.663 20.346 23.2432 20.4351C23.6506 20.4856 23.7632 20.3416 23.6082 19.9795C23.514 19.7652 23.5801 19.6538 24.0118 19.2614C24.2842 19.0107 24.5562 18.725 24.6022 18.6225C24.6553 18.5055 24.7154 18.5135 24.7761 18.6962C24.8703 18.8756 24.9971 18.8769 25.3828 18.6919C25.7154 18.519 25.8351 18.3953 25.7479 18.3061C25.5805 18.148 25.7918 17.5748 25.9786 17.6541C26.0453 17.6824 26.0859 17.8042 26.0864 17.909C26.0669 18.0228 26.2998 17.8948 26.6054 17.6407C26.9174 17.3721 27.303 17.0822 27.4758 17.016C27.6421 16.9296 28.141 16.5655 28.5526 16.1821C29.1571 15.6537 29.2899 15.4658 29.1561 15.3743C28.9687 15.2251 29.1528 14.7105 29.4128 14.6638C29.513 14.6538 29.5396 14.735 29.4806 14.8667C29.421 14.9985 29.4616 15.1202 29.5748 15.116C29.8083 15.1277 30.3564 13.878 30.1755 13.7142C30.0954 13.6453 30.2146 13.5216 30.4811 13.4253C30.7871 13.311 30.8803 13.2108 30.793 13.1217C30.6257 12.9635 30.7178 12.6888 30.8916 12.7624C30.9582 12.7907 31.0059 12.9677 30.9734 13.1457C30.9214 13.5423 31.1289 13.6825 31.2805 13.3458C31.3336 13.2287 31.513 13.0082 31.6857 12.8723C31.8585 12.7362 32.1104 12.3897 32.2691 12.1083C32.4939 11.6806 32.4934 11.5408 32.2789 11.2756C32.1044 11.0622 32.0703 10.8908 32.19 10.7671C32.2897 10.6524 32.3281 10.3549 32.2734 10.0877C32.2193 9.82057 32.2176 9.50613 32.2642 9.40368C32.3103 9.30123 32.2496 9.11854 32.1223 9.01234C32.002 8.89153 31.9679 8.75504 32.041 8.6989C32.1207 8.62808 32.1196 8.38353 32.0318 8.15454C31.897 7.81846 31.7702 7.71226 31.2827 7.59295C30.949 7.5212 30.6024 7.5137 30.5027 7.59352C30.383 7.68229 30.3695 7.60674 30.4686 7.38726C30.6338 7.02132 30.5601 6.97272 29.5461 6.85674ZM29.0147 7.25906C29.0217 7.34923 28.9616 7.4111 28.895 7.38279C28.8148 7.34876 28.7813 7.2473 28.8143 7.17409C28.8538 7.08626 28.9069 7.03906 28.9334 7.05041C28.9735 7.06737 29.0142 7.15426 29.0147 7.25906ZM31.54 8.43416C31.4799 8.46101 31.3532 8.42469 31.2795 8.34118C31.1923 8.25199 31.2524 8.22504 31.3991 8.28732C31.5524 8.33498 31.6131 8.41288 31.54 8.43416ZM28.6859 8.34019C28.6128 8.39638 28.486 8.42994 28.4059 8.39592C28.3392 8.36761 28.3187 8.27182 28.3517 8.19866C28.3912 8.11083 28.5115 8.09194 28.6318 8.14288C28.7385 8.1882 28.7655 8.26937 28.6859 8.34019ZM8.5232 0.64806C8.33201 1.0725 8.10504 1.04609 8.2502 0.619291C8.32221 0.423367 8.44845 0.284983 8.51562 0.313332C8.59521 0.347298 8.58928 0.501694 8.5232 0.64806ZM27.0187 8.33103C26.6655 8.40804 26.4921 8.33441 26.6849 8.18945C26.7646 8.11863 26.9379 8.12238 27.0582 8.17332C27.2586 8.25829 27.2451 8.28758 27.0187 8.33103ZM10.7246 2.40054C11.3529 2.80645 11.6806 2.99759 12.1481 3.23068C12.382 3.34728 12.4693 3.50635 12.4373 3.71928C12.3978 3.91189 12.4921 4.09128 12.6524 4.15921C12.8127 4.22719 13.0407 4.60292 13.1626 5.00321C13.3046 5.42949 13.486 5.73305 13.6258 5.74007C13.7726 5.73253 13.8467 5.92088 13.8283 6.24427C13.8159 6.51806 13.8506 6.75934 13.9037 6.78192C14.1041 6.86689 14.234 7.56699 14.1219 7.9206C13.9638 8.37666 14.1262 8.96864 14.3798 8.97139C14.493 8.96718 14.6203 9.10829 14.6544 9.27969C14.7221 9.55249 14.6825 9.60541 14.4697 9.65453C14.2562 9.70365 14.2497 9.75324 14.3906 9.9699C14.552 10.2125 14.3879 10.823 14.1875 10.738C14.1339 10.7154 14.0862 10.4335 14.0715 10.1135C14.0499 9.80803 13.9675 9.25003 13.8793 8.88133C13.7709 8.52163 13.7162 8.18456 13.7428 8.12602C13.7888 8.02357 13.3901 6.72114 13.0667 5.92146C12.9048 5.50416 12.8376 5.44094 12.6518 5.57123C12.1069 5.96792 12.2965 6.74586 12.9568 6.79909C13.2303 6.82786 13.2504 6.85383 13.0445 6.95815C12.8447 7.04791 12.8187 7.14141 12.8928 7.43456C12.947 7.63187 13.0949 7.83391 13.2417 7.89619C13.3755 7.95286 13.4556 8.05672 13.4161 8.14444C13.3831 8.21765 13.2964 8.26823 13.2168 8.23425C13.1497 8.20589 13.0565 8.23612 13.0169 8.32395C12.9839 8.39716 13.071 8.52131 13.2179 8.58354C13.3652 8.64588 13.4453 8.7846 13.3928 8.90172C13.3462 9.00418 13.4204 9.19253 13.5613 9.3044C13.7417 9.4682 13.7558 9.5437 13.5824 9.64475C13.4096 9.74579 13.4113 10.0952 13.5954 11.0974C13.7319 11.8178 13.7747 12.4286 13.6815 12.4589C13.5082 12.4901 13.2125 13.4631 13.3593 13.5254C13.4129 13.5481 13.5526 13.5202 13.6924 13.4573C13.8121 13.4035 13.9524 13.4105 13.9789 13.4918C14.006 13.573 13.9264 13.6787 13.8067 13.7326C13.6469 13.8043 13.5943 13.9564 13.6025 14.2911C13.6052 14.8849 13.5526 15.037 13.3517 14.8822C13.2715 14.8133 13.1648 14.8029 13.1247 14.8558C12.7602 15.3114 13.128 15.5195 13.6398 15.1611C14.065 14.8882 13.993 15.154 13.4492 15.8301C13.2038 16.1271 13.1312 16.323 13.1919 16.4358C13.252 16.5138 13.1995 16.7357 13.0868 16.9146C12.9482 17.1521 12.8284 17.206 12.6545 17.0974C12.4736 16.9685 12.4075 17.0101 12.362 17.2872C12.3225 17.4798 12.0906 17.8174 11.8583 18.0501C11.4 18.4661 11.14 18.4081 11.4845 17.9615C11.6037 17.8028 11.6167 17.6687 11.51 17.6235C11.3897 17.5725 11.4293 17.5196 11.6356 17.4502C11.9222 17.3798 13.1626 15.9005 13.1019 15.7178C13.0949 15.6626 12.9817 15.632 12.855 15.6305C12.7146 15.6235 12.589 15.7968 12.4969 16.1065C12.3718 16.5243 12.3252 16.5569 12.1649 16.3842C11.9975 16.226 11.9509 16.2585 11.8724 16.6089C11.8334 16.8364 11.7337 17.021 11.6405 17.0163C11.2538 16.9918 10.3237 19.4049 10.4602 20.0903C10.4808 20.256 10.4277 20.3382 10.2744 20.3255C10.1477 20.3241 9.94887 20.5535 9.79665 20.8902C9.53231 21.4407 9.52581 21.4553 10.0003 21.6389C10.3004 21.7488 10.4678 21.9069 10.4553 22.041C10.4033 22.4027 10.6731 23.0399 10.8459 23.0087C11.146 22.944 11.1449 22.7344 10.8632 22.3709C10.5685 22.0018 10.6076 21.7743 11.1709 20.9844C11.4292 20.6232 11.5159 20.5726 11.5766 20.7553C11.6308 20.9177 11.7174 20.972 11.9038 20.9115C12.0971 20.8364 12.1307 20.868 12.0511 21.0437C11.9985 21.1607 11.8588 21.2585 11.7586 21.2684C11.6519 21.2581 11.5858 21.3346 11.6064 21.4304C11.64 21.5319 11.8464 21.4974 12.0993 21.3604C12.4449 21.1583 12.498 21.0762 12.4108 20.8822C12.3095 20.6825 12.5532 20.0012 13.0895 19.0253C13.2747 18.6854 13.5879 18.6962 13.4297 19.0474C13.284 19.3694 13.551 19.4128 13.7964 19.1158C13.9426 18.9336 13.948 18.7093 13.7996 18.3326C13.5841 17.8228 13.5841 17.8228 13.8982 17.9384C14.1517 18.046 14.2184 18.0045 14.2573 17.742C14.3023 17.395 14.5623 17.3831 14.5905 17.7089C14.6186 17.9997 14.9182 17.8651 15.0964 17.4699C15.2616 17.104 15.1137 16.902 14.8683 17.164C14.7752 17.2641 14.7486 17.2179 14.8212 17.0568C14.8672 16.9195 15.0135 16.842 15.1202 16.8873C15.3607 16.9893 15.4935 16.7664 15.319 16.5531C15.2053 16.4525 15.2518 16.385 15.4647 16.3009C15.9376 16.1351 16.5952 15.5945 16.5811 15.4141C16.567 15.3037 16.4868 15.2348 16.4002 15.2504C15.9609 15.343 16.4528 15.0285 17.3243 14.6483C18.2831 14.2525 18.7012 13.8196 18.4396 13.517C18.3659 13.4334 18.4196 13.4561 18.5734 13.5736C18.7874 13.7341 18.9006 13.7298 19.0598 13.5183C19.179 13.3597 19.3187 13.2619 19.3589 13.2789C19.5593 13.3638 20.7222 12.4095 20.7677 12.1324C20.8002 11.9195 20.8663 11.8779 21.0337 11.9662C21.2141 12.0601 21.2937 11.9893 21.3923 11.6999C21.4843 11.4251 21.538 11.3779 21.5987 11.5606C21.7065 11.8854 22.0867 11.8546 22.2384 11.518C22.3045 11.3716 22.4172 11.2625 22.4973 11.2965C22.5645 11.3248 22.7308 11.2035 22.87 11.0359C23.0021 10.8479 23.2085 10.7087 23.3353 10.71C23.462 10.7115 23.6012 10.6137 23.6608 10.482C23.7729 10.2331 24.0199 10.2855 23.981 10.548C23.9685 10.6821 24.0622 10.7217 24.3417 10.666C24.6017 10.6192 24.7409 10.4865 24.7864 10.2443C24.8454 9.97286 24.9586 9.86375 25.2582 9.83399C25.6114 9.7919 25.6249 9.79757 25.3454 9.95814C25.1125 10.0861 25.0664 10.1886 25.1206 10.3509C25.1813 10.5336 25.4413 10.4868 26.1996 10.111C26.7516 9.8394 27.2911 9.66702 27.4114 9.71796C27.5316 9.76895 27.6584 9.73539 27.6914 9.66223C27.731 9.5744 27.8241 9.54417 27.8907 9.57253C27.9709 9.60645 27.9785 9.73159 27.9189 9.86328C27.8463 10.0243 27.8929 10.0965 28.0662 10.1003C28.2065 10.1073 28.3999 10.137 28.5072 10.1823C28.6139 10.2276 28.7401 10.1592 28.7932 10.0421C28.8457 9.925 28.9589 9.85085 29.0255 9.87915C29.1057 9.91313 29.1328 9.9943 29.0933 10.0821C29.0602 10.1553 29.1474 10.2794 29.2812 10.3361C29.6414 10.489 29.896 10.7713 29.817 10.9469C29.7839 11.0201 29.7108 11.0064 29.6436 10.9082C29.5829 10.7954 29.5233 10.8572 29.4708 11.0791C29.4318 11.3067 29.3392 11.4068 29.1788 11.3737C28.9719 11.3384 28.9589 11.3676 29.0732 11.6778C29.1545 11.9563 29.1285 12.0847 28.9026 12.268C28.5906 12.5366 28.4303 12.5385 28.6756 12.2765C28.7623 12.1911 28.7547 12.031 28.6681 11.9418C28.5537 11.8063 28.4541 11.8512 28.368 12.0414C28.3019 12.1878 27.9899 12.4914 27.6909 12.6959C27.3919 12.9003 26.9937 13.3244 26.8014 13.6091C26.6162 13.9141 26.3502 14.1501 26.217 14.1634C26.0767 14.1563 25.898 14.3419 25.7853 14.5907C25.6466 14.8981 25.4007 15.0902 24.9213 15.2707C24.229 15.5351 23.904 15.903 24.2512 16.0502C24.3585 16.0955 24.4256 16.1937 24.3856 16.2815C24.3525 16.3547 24.2263 16.3882 24.1196 16.3429C23.9994 16.292 23.8325 16.3435 23.7399 16.4435C23.6337 16.538 23.4804 16.5951 23.4003 16.5612C23.3066 16.5215 23.0341 16.6674 22.8011 16.8653C22.5488 17.0721 22.0639 17.4768 21.6983 17.7577C21.2065 18.1421 20.9416 18.4829 20.6442 19.1067C20.2012 20.0174 19.7358 20.3083 19.3209 19.9581C19.1736 19.8259 19.1069 19.8325 19.101 19.9869C19.075 20.1153 19.1487 20.2338 19.2554 20.2441C19.342 20.2635 19.3691 20.3447 19.283 20.4302C19.2099 20.5213 19.0566 20.5435 18.9499 20.4632C18.7424 20.3231 18.0572 20.7127 18.0848 20.9685C18.0918 21.0587 17.8595 21.2565 17.58 21.3822C16.9413 21.7043 16.4506 22.3332 16.7447 22.4578C16.9316 22.537 17.0708 22.4044 17.2094 21.9922C17.2355 21.8987 17.3552 21.8449 17.4754 21.8958C17.6358 21.9638 17.6228 22.0629 17.4175 22.3419C17.0659 22.8033 16.7068 22.9648 16.3726 22.8232C16.0519 22.6873 15.7594 22.8422 15.3949 23.3327C15.2156 23.5533 15.1766 23.7109 15.2697 23.7506C15.4572 23.8299 15.2259 24.3421 14.8803 24.649C14.6809 24.8086 14.5341 24.8162 14.3267 24.6411C14.1528 24.4976 14.006 24.4703 13.96 24.5727C13.9205 24.6605 13.954 24.762 14.0207 24.7903C14.2346 24.881 13.9832 25.2974 13.7162 25.2889C13.583 25.3021 13.4036 25.4528 13.311 25.6577C13.1788 25.9504 13.1057 25.9716 12.9249 25.8079C12.771 25.6554 12.6713 25.6654 12.5982 25.8263C12.5392 25.958 12.5462 26.0831 12.6263 26.1172C12.693 26.1455 12.6735 26.2592 12.5809 26.3593C12.4742 26.4538 12.3214 26.5109 12.2147 26.4657C12.0007 26.375 11.855 26.5922 11.9958 26.8089C12.1237 27.0199 11.7711 27.3065 11.5972 27.128C11.49 27.0129 11.3968 27.0781 11.2781 27.3415C11.1855 27.5464 11.0062 27.697 10.873 27.7103C10.5729 27.7051 10.3947 28.1003 10.6221 28.2665C10.7424 28.3524 10.7294 28.4515 10.5767 28.5435C10.4039 28.6796 10.3502 28.6569 10.2424 28.4369C10.1753 28.2689 10.0881 28.2146 10.0486 28.3024C10.009 28.3902 10.0431 28.5266 10.1233 28.5956C10.2105 28.6847 10.0773 28.8029 9.73113 28.9351C9.09899 29.1727 8.56866 29.8894 8.82976 30.157C9.0643 30.4133 9.49009 30.2451 9.68185 29.8207C9.78098 29.6011 9.92067 29.5034 10.0409 29.5544C10.1476 29.5997 10.1948 29.7418 10.1352 29.8735C9.97052 30.2394 9.08543 30.7537 8.92512 30.5809C8.8379 30.4917 8.59794 30.5645 8.35257 30.7566C8.11963 30.9545 7.84663 31.0655 7.76647 31.0315C7.67332 30.9918 7.54007 31.04 7.46043 31.1109C7.38078 31.2166 7.29413 31.1972 7.26001 31.0958C7.2264 30.9943 7.27949 30.9122 7.39975 30.9281C7.66626 30.9366 7.81791 30.5301 7.57744 30.4281C7.47074 30.3829 7.42305 30.2408 7.47615 30.1237C7.52919 30.0066 7.52161 29.8815 7.44146 29.8475C7.26815 29.7739 7.18201 29.9642 7.25676 30.2224C7.30387 30.3296 7.1847 30.5231 6.97835 30.6974C6.63272 30.9693 6.63978 30.9547 6.94964 30.2319C7.25351 29.5586 7.25294 29.4189 7.0168 28.7783C6.86185 28.3813 6.69396 28.0485 6.62679 28.0202C6.57369 27.9976 6.52601 27.7856 6.52493 27.5411C6.52385 27.2616 6.40956 27.0562 6.21564 26.9916C5.98867 26.8953 5.96161 26.8141 6.10084 26.6465C6.26007 26.4699 6.20646 26.3425 5.85166 26.0352C5.59108 25.8375 5.25689 25.661 5.09655 25.6629C4.89017 25.6624 4.8631 25.6161 5.00935 25.4688C5.11552 25.3395 5.10738 25.0397 4.96547 24.6483C4.58087 23.5612 4.55326 23.3752 4.81326 23.3284C5.19297 23.2627 4.98389 22.7033 4.51643 22.5051C4.18221 22.3636 4.16217 22.3027 4.34147 22.0821C4.63993 21.7379 4.45792 21.2598 4.01753 21.1777C3.7039 21.1319 3.69687 21.1117 3.97692 21.0559C4.38318 20.9666 4.46876 20.7414 4.13508 20.5998C3.98775 20.5375 3.90759 20.3987 3.95362 20.2963C4.07929 20.0183 3.48345 17.9525 3.29712 18.0129C3.21045 18.0635 3.19149 18.2471 3.24565 18.4444C3.35399 18.839 3.32799 19.0373 3.15465 18.9637C3.08748 18.9354 3.03982 18.6536 3.04524 18.3245C3.05607 17.7712 3.07556 17.7273 3.33556 17.7155C3.54899 17.7013 3.53545 17.6607 3.24782 17.4515C2.92715 17.2108 2.91308 17.1353 3.15791 16.6288C3.40221 16.1222 3.38865 16.0815 3.08207 16.0212C2.89519 15.9768 2.76139 15.8853 2.79444 15.8121C2.83398 15.7243 2.81286 15.4538 2.76465 15.172C2.6899 14.8438 2.7224 14.6659 2.85619 14.6527C3.17578 14.5789 3.31282 13.8873 3.01869 13.7627C2.87189 13.7004 2.77819 13.556 2.78415 13.4366C2.79715 13.3374 2.87678 13.2666 2.96994 13.3062C3.06365 13.3458 3.1032 13.2231 3.06203 12.9616C3.02087 12.735 3.03981 12.4465 3.08585 12.3441C3.2711 11.9343 3.34208 9.87218 3.19312 9.35571C3.0512 8.82461 3.15682 8.59041 3.49049 8.73205C3.5842 8.77164 3.71041 8.70322 3.76349 8.58615C3.82958 8.47469 3.93575 8.31037 3.98179 8.24284C4.23422 7.93121 4.67621 6.88073 4.5825 6.84113C4.52941 6.8185 4.42976 6.89826 4.37668 7.01534C4.32413 7.13246 4.22446 7.21228 4.14429 7.17825C3.90379 7.07637 4.16867 6.73545 4.65456 6.50542C4.9606 6.35624 5.34571 5.96152 5.75634 5.33354C6.12084 4.80803 6.61864 4.23433 6.87108 4.06245C7.5227 3.6063 8.30164 3.29132 8.54866 3.37862C8.98254 3.51023 9.54911 3.48892 9.81505 3.32266C9.98789 3.22165 10.0545 3.21499 10.015 3.33778C9.91583 3.55727 10.3838 3.79041 10.5967 3.63649C10.8356 3.45894 10.9699 3.58546 10.9044 3.9414C10.8394 4.26242 11.2072 4.57536 11.3328 4.29728C11.4585 4.01919 11.6795 4.26987 11.6411 4.67206C11.6156 4.97518 11.6828 5.07335 11.9699 5.1427C12.3236 5.20544 12.7157 4.97072 12.5884 4.75973C11.8767 3.65612 11.3339 3.05996 10.88 2.90236C10.5864 2.8127 10.3188 2.6645 10.2652 2.57199C10.1173 2.33502 9.14343 2.16619 8.87037 2.31208C8.73769 2.39518 8.48418 2.3924 8.3103 2.3188C8.1505 2.25086 7.93653 2.23013 7.85694 2.30095C7.78379 2.35712 7.64404 2.38499 7.56388 2.35103C7.28331 2.23212 7.94251 2.00586 8.36938 2.08229C8.60985 2.11432 8.82975 2.08549 8.8628 2.01232C8.89584 1.93913 9.04213 1.93157 9.18946 1.99383C9.34977 2.06182 9.50251 2.00465 9.5621 1.87293C9.64123 1.69727 9.74139 1.68735 9.94181 1.84217C10.0761 1.96869 10.4304 2.20609 10.7246 2.40054ZM23.2248 8.27458C23.1321 8.47948 22.832 8.50924 22.7112 8.31854C22.6311 8.21469 22.6777 8.1472 22.8375 8.11036C23.1505 8.0513 23.2973 8.11353 23.2248 8.27458ZM9.19322 2.86724C9.20028 2.95738 9.14013 3.01922 9.07353 2.99092C8.99337 2.95696 8.95976 2.85548 8.9928 2.7823C9.03234 2.69447 9.08543 2.64722 9.11198 2.65856C9.15203 2.67557 9.19271 2.7624 9.19322 2.86724ZM24.4538 10.3473C24.2539 10.437 24.1657 9.9635 24.358 9.81859C24.4977 9.72082 24.5448 9.75807 24.5589 9.97338C24.573 10.1537 24.5204 10.3058 24.4538 10.3473ZM6.45884 2.75437C6.4258 2.82755 6.33915 2.87811 6.25899 2.84409C6.19234 2.81579 6.15878 2.71431 6.19182 2.64113C6.23136 2.5533 6.32451 2.52307 6.39116 2.55141C6.47132 2.58538 6.49843 2.66654 6.45884 2.75437ZM15.6099 6.63342C15.617 6.72359 15.5574 6.78546 15.4908 6.7571C15.4106 6.72312 15.3764 6.62166 15.4095 6.5485C15.449 6.46067 15.5021 6.41348 15.5292 6.42482C15.5693 6.44173 15.6093 6.52862 15.6099 6.63342ZM28.239 13.0328C28.206 13.106 28.1063 13.1509 28.0261 13.1169C27.9595 13.0886 27.9655 13.0041 28.0386 12.9479C28.1182 12.8771 28.2114 12.8468 28.2515 12.8638C28.2786 12.8752 28.2786 12.9451 28.239 13.0328ZM5.39612 3.69875C5.36308 3.77193 5.27638 3.82243 5.19622 3.78847C5.1296 3.76017 5.09601 3.65865 5.12905 3.58546C5.16859 3.49768 5.26179 3.46745 5.32839 3.49574C5.40855 3.52971 5.43566 3.61092 5.39612 3.69875ZM27.6145 13.5702C27.5153 13.6849 27.4157 13.7997 27.4021 13.829C27.3891 13.8582 27.2824 13.8479 27.1757 13.8026C27.0019 13.7289 27.0149 13.6647 27.2407 13.4815C27.5728 13.2039 27.8869 13.2845 27.6145 13.5702ZM27.7466 16.381C27.2949 16.7125 27.0343 16.6894 27.3334 16.3452C27.6183 16.0302 28.1908 15.7498 28.1648 15.948C28.1583 16.0326 27.9725 16.2327 27.7466 16.381ZM24.8774 15.8971C24.8249 16.0143 24.7447 16.0501 24.6846 15.9723C24.6374 15.9 24.6168 15.7692 24.6564 15.6814C24.6895 15.6082 24.7826 15.578 24.8498 15.6063C24.9299 15.6403 24.937 15.7654 24.8774 15.8971ZM14.9442 13.0813C14.8115 13.2343 14.7183 13.2296 14.6706 13.0875C14.637 12.9861 14.6896 12.7991 14.8093 12.6754C14.942 12.5224 15.0352 12.5271 15.0823 12.6692C15.1164 12.7707 15.0639 12.9577 14.9442 13.0813ZM14.7735 13.7763C14.7806 13.8665 14.721 13.9283 14.6544 13.9C14.5742 13.866 14.5406 13.7646 14.5731 13.6914C14.6132 13.6035 14.6663 13.5563 14.6929 13.5676C14.7329 13.5847 14.7735 13.6715 14.7735 13.7763ZM14.8499 14.4887C14.8169 14.5618 14.6441 14.5931 14.4637 14.5691C14.1301 14.5322 14.1301 14.5322 14.4632 14.4293C14.883 14.3107 14.9296 14.3131 14.8499 14.4887ZM3.08369 10.2333C3.04415 10.3212 2.98403 10.3132 2.92391 10.2353C2.87678 10.163 2.86269 10.0176 2.89573 9.94445C2.93528 9.85662 3.00894 9.87031 3.05607 9.94258C3.11619 10.0204 3.11673 10.1602 3.08369 10.2333ZM15.7827 15.7731C15.7898 15.8633 15.7296 15.9251 15.663 15.8968C15.5828 15.8628 15.5492 15.7613 15.5823 15.6881C15.6219 15.6003 15.6749 15.5531 15.7014 15.5644C15.7416 15.5815 15.7822 15.6683 15.7827 15.7731ZM0.993907 9.57419C0.974407 9.61806 0.887749 9.66863 0.787539 9.67857C0.700871 9.69413 0.647792 9.63658 0.680293 9.56337C0.720377 9.47554 0.82003 9.43074 0.886656 9.45899C0.966824 9.49297 1.00691 9.5449 0.993907 9.57419ZM0.718212 10.5382C0.612584 10.7724 0.378574 10.7257 0.357448 10.4552C0.336864 10.2197 0.622332 10.0095 0.736625 10.1799C0.776709 10.2668 0.770755 10.4211 0.718212 10.5382ZM14.1165 15.9386C14.1236 16.0288 14.0369 16.0793 13.9301 16.034C13.8099 15.983 13.7493 15.8702 13.7823 15.797C13.8218 15.7092 13.902 15.6733 13.9687 15.7016C14.0488 15.7356 14.1159 15.8338 14.1165 15.9386ZM2.86919 11.5548C2.82369 11.7621 2.77115 11.9839 2.7316 12.0717C2.61894 12.2856 2.50898 11.5067 2.60811 11.2872C2.75327 10.9652 2.93419 11.1639 2.86919 11.5548ZM21.7471 19.731C21.6073 19.7938 21.5337 19.7802 21.5732 19.6923C21.6658 19.4874 21.9052 19.3798 21.9529 19.5219C21.9594 19.5771 21.8668 19.6772 21.7471 19.731ZM20.7103 20.547C20.6903 20.5909 20.6042 20.6415 20.5039 20.6513C20.4173 20.667 20.3636 20.6094 20.3967 20.5362C20.4363 20.4484 20.5364 20.4035 20.6031 20.4318C20.6832 20.4658 20.7233 20.5177 20.7103 20.547ZM20.3463 22.764C20.3133 22.8372 20.2537 22.899 20.2266 22.8877C20.1865 22.8707 20.153 22.7692 20.1459 22.6791C20.1454 22.5743 20.1984 22.5271 20.2656 22.5554C20.3458 22.5893 20.3858 22.6762 20.3463 22.764ZM11.0626 19.003C11.0295 19.0762 10.9694 19.138 10.9429 19.1267C10.9028 19.1097 10.8692 19.0083 10.8621 18.918C10.8616 18.8132 10.9147 18.766 10.9813 18.7944C11.0615 18.8283 11.1021 18.9152 11.0626 19.003ZM17.8405 22.992C17.5209 23.1355 17.2409 23.1913 17.2138 23.1101C17.1737 23.0232 17.3465 22.8872 17.586 22.8145C17.8124 22.7361 18.0452 22.5732 18.0913 22.4707C18.25 22.1194 18.4835 22.0963 18.4445 22.4287C18.419 22.627 18.2197 22.8215 17.8405 22.992ZM1.78748 17.3381C1.75444 17.4113 1.66776 17.4617 1.58759 17.4278C1.52096 17.3995 1.48684 17.298 1.51988 17.2248C1.55996 17.137 1.65314 17.1068 1.71976 17.1351C1.79993 17.1691 1.82702 17.2502 1.78748 17.3381ZM16.5383 24.0789C16.0801 24.5298 15.8336 24.6522 15.9658 24.3594C16.0254 24.2277 16.1646 24.0951 16.2513 24.0795C16.3515 24.0695 16.4842 23.9165 16.5567 23.7556C16.6293 23.5946 16.729 23.5147 16.7826 23.6073C16.8433 23.6852 16.7442 23.8698 16.5383 24.0789ZM15.4214 24.8609C15.3884 24.9341 15.2887 24.9789 15.2085 24.945C15.1414 24.9167 15.1478 24.8322 15.221 24.776C15.3006 24.7051 15.3938 24.6749 15.4339 24.6919C15.4604 24.7032 15.461 24.7731 15.4214 24.8609ZM14.558 25.7156C14.4052 25.8425 14.266 25.9403 14.2389 25.9289C14.2124 25.9177 14.272 25.786 14.3846 25.6419C14.4973 25.4979 14.637 25.4001 14.7172 25.4342C14.7838 25.4625 14.7113 25.5885 14.558 25.7156ZM2.5301 21.0878C2.42339 21.0774 2.26306 21.0094 2.19589 20.9462C2.12223 20.8626 2.20239 20.8617 2.38927 20.941C2.57669 21.0203 2.63031 21.0779 2.5301 21.0878ZM14.1669 26.2297C14.1273 26.3175 14.0277 26.3973 13.928 26.4073C13.8413 26.4228 13.6951 26.5701 13.629 26.7165C13.5629 26.8629 13.4167 27.0102 13.3305 27.0258C13.1236 27.0603 13.3885 26.5797 13.7801 26.2052C14.006 25.9871 14.2725 25.9955 14.1669 26.2297ZM2.50735 21.9498C2.42718 21.9857 2.35351 21.9022 2.33943 21.7568C2.29122 21.3002 2.42393 21.1822 2.54527 21.5476C2.60648 21.7303 2.58698 21.9139 2.50735 21.9498ZM3.0111 22.9133C3.07231 23.1309 3.06635 23.2853 2.99973 23.2569C2.84589 23.1743 2.57669 22.6418 2.63627 22.5102C2.71536 22.3345 2.90277 22.5186 3.0111 22.9133ZM12.7661 27.5711C12.693 27.7321 12.5603 27.8152 12.4931 27.7521C12.4064 27.6977 12.2537 27.7898 12.1476 27.9541C12.0349 28.133 11.8886 28.2455 11.822 28.2171C11.6617 28.1492 11.6882 28.0906 12.2261 27.6038C12.7374 27.1406 12.9709 27.1174 12.7661 27.5711ZM3.47966 24.8728C3.44012 24.9606 3.37998 24.9527 3.31986 24.8748C3.27273 24.8025 3.25865 24.6572 3.29169 24.584C3.33123 24.4961 3.40491 24.5098 3.45204 24.582C3.51216 24.6599 3.51271 24.7997 3.47966 24.8728ZM11.1108 28.805C10.8253 29.0152 10.6454 29.0959 10.6915 28.9935C10.7906 28.7739 11.5284 28.2323 11.569 28.3541C11.5826 28.3947 11.3768 28.6039 11.1108 28.805ZM3.77541 25.4166C3.76295 25.5507 3.83661 25.7041 3.95687 25.7551C4.06358 25.8004 4.11125 25.9425 4.05167 26.0742C3.95904 26.2791 3.926 26.2824 3.80467 26.0219C3.46179 25.301 3.42061 25.0046 3.67411 25.1121C3.74073 25.1405 3.77487 25.2769 3.77541 25.4166ZM4.27483 26.8489C4.1822 26.949 4.17624 27.1383 4.277 27.2681C4.36421 27.3922 4.38479 27.523 4.30462 27.5589C4.17841 27.6273 3.88157 26.8041 3.97366 26.5992C4.0002 26.5406 4.12046 26.5218 4.24071 26.5727C4.37396 26.6293 4.38804 26.7398 4.27483 26.8489ZM4.50125 28.2873C4.50938 28.657 4.50287 28.6716 4.38858 28.3964C4.30083 28.2373 4.27376 28.0513 4.3068 27.9781C4.40539 27.7586 4.49259 27.8827 4.50125 28.2873ZM6.84128 29.7674C6.80824 29.8405 6.72159 29.8911 6.64143 29.8571C6.57478 29.8288 6.54122 29.7273 6.57426 29.6542C6.6138 29.5663 6.70695 29.5361 6.7736 29.5644C6.85375 29.5984 6.88082 29.6796 6.84128 29.7674ZM5.12798 29.8258C5.18323 30.3375 5.11118 30.6033 4.91076 30.5184C4.84414 30.49 4.81704 30.3739 4.86958 30.2568C4.92267 30.1397 4.8685 29.9424 4.74121 29.8362C4.51371 29.6351 4.51264 29.4604 4.7526 29.3527C4.97848 29.2394 5.07273 29.3489 5.12798 29.8258ZM10.3113 31.988C10.0518 32.1046 9.94402 31.8846 10.1769 31.7218C10.2566 31.651 10.3763 31.6669 10.4369 31.7449C10.4905 31.8373 10.451 31.9252 10.3113 31.988ZM6.68854 34.6196C6.60241 34.7051 6.4356 34.7565 6.30234 34.7348C6.12899 34.6961 6.10842 34.6352 6.23461 34.4969C6.45343 34.2585 6.88788 34.3901 6.68854 34.6196Z" fill="#FF0090" fill-opacity="0.3"/>
</svg>
