<svg width="124" height="141" viewBox="0 0 124 141" fill="none" xmlns="http://www.w3.org/2000/svg">
<path d="M112.943 27.0265C111.437 26.85 109.986 26.6958 109.756 26.6641C106.389 26.0171 103.946 27.0111 105.379 28.4623C105.636 28.7116 105.638 29.1249 105.331 29.2662C104.95 29.4431 104.464 28.8869 104.153 28.0644C103.664 26.8195 103.333 26.6058 102.109 26.7585C98.697 27.1908 97.6513 27.4906 97.5022 27.9744C97.4256 28.2852 96.7381 28.4658 95.9989 28.3487C95.1582 28.1869 94.5971 28.4921 94.3963 29.2292C94.1975 30.1036 93.9429 30.1297 93.2513 29.4843C92.51 28.8163 92.2284 28.9002 91.7749 29.9385C91.3215 30.9768 91.1414 30.9675 90.7811 30.1229C90.4208 29.2782 89.6319 29.4142 86.4018 30.8196C83.0164 32.2958 82.5339 32.7034 82.743 33.7565C82.977 34.752 82.9004 34.9252 82.2875 34.795C81.8796 34.6164 81.3184 34.5086 81.012 34.3745C79.5315 34.0027 77.4485 35.4284 76.7176 37.3768C76.1627 39.0591 75.9101 39.2228 75.2454 38.6572C74.1708 37.7755 71.802 38.0458 71.3216 39.1419C71.1187 39.6033 71.1974 40.1187 71.4542 40.2303C71.7606 40.3642 71.7875 40.8573 71.5846 41.3189C71.3837 41.7803 70.8992 42.0502 70.4913 41.8716C70.0834 41.6932 69.4973 41.9184 69.0915 42.2906C68.7353 42.6852 67.9983 42.8435 67.4372 42.5979C66.6711 42.2631 66.29 42.5776 65.6067 44.1354C65.1284 45.2314 64.9793 46.4037 65.2609 46.7331C65.7227 47.2092 69.1557 45.4799 69.6091 44.4416C69.7624 44.2332 71.8227 43.0029 74.1625 41.8265C76.5271 40.5922 79.221 38.8836 80.1362 38.0462C80.9975 37.1862 82.0163 36.6687 82.2979 36.8603C82.859 37.2435 88.7105 34.8534 89.0397 34.1035C89.3669 33.3534 91.9406 32.7595 92.9863 33.1481C93.446 33.349 93.9553 33.2969 94.0567 33.0662C94.1582 32.8352 95.1749 32.4555 96.2206 32.2935C97.3408 32.0961 98.1048 32.1555 97.9785 32.4439C97.7777 32.9054 94.063 34.5808 93.4501 34.4507C91.3339 34.0062 87.1348 35.8139 87.0126 37.2038C86.965 37.7323 86.379 38.0952 85.5135 38.129C83.5257 38.0847 77.2415 40.9049 76.7611 42.0009C76.5354 42.5201 75.9494 42.883 75.44 42.9352C74.9555 42.9298 74.3219 43.408 74.0693 43.9849C73.5392 45.1965 71.7336 46.1253 71.4748 45.3252C71.3961 45.0851 70.2283 45.9488 68.8576 47.2738C67.5386 48.6213 66.0892 49.5688 65.7827 49.4347C65.4245 49.2784 64.8903 49.6637 64.6129 50.2984C64.3354 50.933 63.8529 51.3404 63.5465 51.2066C63.1903 51.0503 62.8093 51.6403 62.5339 52.8257C62.2585 53.8734 61.8279 54.5786 61.5732 54.4671C61.2667 54.3332 60.3743 54.5623 59.4591 54.9867C55.7196 56.7196 58.0988 52.5363 62.1157 50.3062C63.0827 49.7664 63.2855 49.4425 62.9004 49.0686C62.6188 48.7394 62.565 48.0286 62.8176 47.4517C63.4492 46.0095 62.7058 44.9285 61.714 45.6637C61.0286 46.1198 60.8484 45.9726 60.6145 44.8395C60.484 44.0263 60.5565 42.8895 60.7822 42.3703C61.0348 41.7934 61.2854 40.8033 61.3351 40.1372C61.4572 39.0225 61.4572 39.0225 62.0494 40.4496C62.3848 41.2144 62.8197 41.7483 63.0992 41.6647C63.8881 41.2533 63.6707 38.1346 62.8031 37.8929C62.3186 37.7497 61.5525 37.4149 61.0162 37.1115C60.275 36.7192 60.2998 36.5237 61.1135 36.0546C61.9273 35.5857 61.9769 35.3326 61.4386 34.7538C60.8257 34.073 60.8506 34.0153 61.8424 33.6931C62.5298 33.5125 62.9605 32.9449 63.035 32.2211C63.1323 31.0265 62.3889 30.3585 61.9852 31.2816C61.8589 31.5701 61.5297 31.7692 61.2729 31.6576C61.0182 31.5459 61.1694 30.9245 61.6001 30.3569C62.3103 29.4301 62.2585 29.2699 61.1363 29.1921C60.1424 29.1011 60.014 28.8387 60.4675 27.8003C60.9976 26.5888 60.1651 22.2384 59.3473 21.8813C59.1423 21.7921 58.6847 22.142 58.3554 22.6165C57.9765 23.2064 57.7447 22.6241 57.7633 20.7763C57.7406 15.6814 56.2248 12.751 54.5249 14.413C54.1936 14.7499 54.295 14.5191 54.7526 13.8938C55.4111 12.9446 55.3821 12.4515 54.5642 11.5436C53.9741 10.9427 53.5641 10.2133 53.6904 9.925C53.7919 9.69408 52.7669 8.4215 51.4106 7.21037C49.4663 5.39834 48.8265 5.05049 48.2178 5.47117C47.5573 5.8695 47.4041 5.80246 47.4517 5.13637C47.4993 4.19466 46.17 3.47663 45.8159 4.28446C45.6896 4.57271 45.2072 4.70493 44.6957 4.48186C44.236 4.28094 44.1077 4.01857 44.3623 3.85468C44.6419 3.77109 44.7682 3.20721 44.6895 2.69177C44.4556 1.69626 42.3373 1.11418 41.9583 1.97953C41.832 2.26799 41.449 2.16949 41.1426 1.75999C40.7574 1.38608 39.8651 1.33973 39.128 1.63583C38.3908 1.93174 37.4983 1.88539 37.1401 1.45374C36.6266 0.955055 36.0924 1.06493 35.3822 1.85414L34.2661 3.0154L34.4898 1.53237C34.6389 0.773169 34.6368 0.0847333 34.585 0.0623855C33.9203 -0.227929 31.3238 0.561692 31.0464 1.05852C30.2368 2.62907 29.9572 2.85069 28.6838 2.98105C27.4601 3.13397 27.4104 3.11162 28.4001 2.2386C28.984 1.73805 29.365 1.14811 29.2097 0.943465C28.748 0.19171 24.0664 2.13142 24.172 3.00236C24.174 3.41538 23.7682 3.78764 23.2837 3.78205C22.7225 3.81205 22.0123 4.46346 21.6086 5.38634C20.7762 7.29025 19.451 7.81148 19.2936 6.36757C19.2398 5.79439 18.9354 6.34894 18.5606 7.76513C17.9581 9.9757 17.8566 10.0688 16.9601 9.19622C16.2685 8.55062 15.9372 8.61207 15.5852 9.41991C15.3077 10.0543 14.7238 10.6927 14.1896 10.9404C13.5021 11.2586 13.3759 11.6847 13.6865 12.7826C14.1793 14.5781 13.9018 15.3503 13.0818 14.4426C12.2122 13.5122 10.9946 14.9044 11.3321 16.3577C11.5144 17.3308 11.3633 17.6768 10.2948 18.172C9.58254 18.5479 8.64455 19.7185 8.21386 20.6993C7.5844 22.1416 7.61131 22.6347 8.42713 22.9918C8.99033 23.2373 9.34857 23.6689 9.19741 24.0151C9.07111 24.3035 8.58659 24.4358 8.12691 24.2348C7.46432 23.9447 7.18474 24.3037 6.80789 25.7199C6.60912 26.7322 6.22815 27.46 6.02523 27.3706C5.13073 26.7734 4.79944 26.9727 5.00857 28.0259C5.21563 28.8035 5.08934 29.092 4.68144 28.9134C3.71032 28.4894 3.25891 30.4916 4.20517 31.2487C4.69177 31.6673 4.89885 32.4452 4.64624 33.0221C4.31908 33.772 3.91116 33.8688 3.29619 33.3256C2.37685 32.5108 1.58999 33.3352 2.25672 34.4515C2.48656 34.7586 2.2609 35.5532 1.78052 36.2362C0.716236 37.6953 0.246175 41.2699 0.865285 43.3277C1.09926 44.1856 1.00198 45.2426 0.620993 45.6947C0.215156 46.2046 0.219259 47.3063 0.633379 48.4487C1.09719 49.7513 1.05167 50.9682 0.494677 52.2373C-0.439163 54.3719 0.00184941 56.145 1.37466 55.5083C2.59631 54.9426 2.85515 56.018 1.63557 56.7215C0.975046 57.1198 0.772115 57.4437 1.05372 57.9107C1.28562 58.2178 1.2111 58.6662 0.931571 58.8876C0.0929779 59.552 0.693424 69.4366 1.61484 70.1136C3.96704 71.829 4.43914 75.3345 2.50727 76.5519C2.07658 76.844 1.8985 77.248 2.1304 77.5548C2.28363 77.8973 2.94625 77.7744 3.4287 77.3667C4.26729 76.7023 4.21758 76.9554 3.40797 78.5259C2.59837 80.0967 2.62735 80.7274 3.34377 81.5907C3.88213 82.1695 4.11615 83.3026 3.99191 84.004C3.76828 85.2119 4.72488 88.7229 5.38954 89.013C6.00244 89.2808 6.50147 86.8879 5.99003 86.2516C5.27153 85.526 5.57383 84.283 6.38964 84.6401C7.6672 85.198 7.90739 87.9836 6.81826 89.7758C5.83265 91.337 5.83471 91.8878 6.86173 93.9867C8.0192 96.4855 9.06696 97.0119 8.599 94.8833C8.15797 92.9723 9.02552 93.214 9.95107 95.2682C10.7752 97.0024 10.7752 97.14 9.52663 97.4883C8.63627 97.7173 8.35675 98.0765 8.56381 98.7165C8.77087 99.3566 9.0255 99.4681 9.43134 99.096C10.3465 98.3962 11.1127 98.8686 10.6841 99.8495C10.4812 100.311 10.6116 100.986 10.9967 101.36C11.4067 101.814 11.3322 102.4 10.8 103.061C10.1395 103.872 10.1934 104.17 11.0092 104.527C11.7235 104.84 11.9306 105.342 11.6013 106.092C11.2224 106.958 11.4026 107.242 12.322 107.368C13.3655 107.482 13.4173 107.642 12.6325 108.604C11.9989 109.358 11.9989 109.771 12.6118 110.039C13.0218 110.217 13.3303 111.04 13.2579 111.901C13.1108 113.624 13.9619 115.989 14.3656 115.066C14.5189 114.72 14.3635 114.24 14.1316 113.933C13.7237 113.479 13.7982 113.306 14.5105 112.93C15.2994 112.519 15.4278 112.781 15.3326 114.251C15.2083 115.228 15.0593 116.263 14.9329 116.551C14.4277 117.705 15.9434 120.498 17.2189 120.643C18.2397 120.814 18.5213 121.281 18.5296 123.071C18.5668 126.18 19.3226 130.153 19.9355 130.42C20.2419 130.555 20.5712 129.942 20.7721 129.068C21.1448 127.101 22.1159 127.387 21.8177 129.319C21.6935 130.158 21.8529 131.74 22.1883 132.917C22.5507 134.037 22.53 135.197 22.1739 135.454C21.8695 135.733 21.8197 136.261 22.178 136.555C22.5362 136.987 22.3871 137.746 21.7287 138.833C20.8694 140.244 20.8694 140.519 21.7618 140.703C22.3747 140.833 23.0103 140.492 23.2133 140.031C23.793 138.704 25.6752 137.74 26.7478 138.209C27.4104 138.499 27.4642 138.934 26.9072 139.653C26.4765 140.22 26.402 140.806 26.7085 140.94C27.5243 141.297 28.6403 139.998 28.7376 138.528C28.8556 136.45 30.4728 132.895 31.566 132.205C32.6324 131.572 32.6324 131.572 32.2804 132.517C31.7503 133.729 32.1852 133.987 33.8644 133.485C35.3656 132.973 35.7445 132.245 34.4711 132.238C33.7319 132.259 33.6553 132.018 34.2123 131.438C34.5684 131.043 34.9743 130.533 35.0488 130.36C35.1254 130.187 35.3552 130.494 35.612 131.019C35.9474 131.784 36.2022 131.895 36.6598 131.545C37.4984 130.881 37.138 129.898 35.6803 128.918L34.4794 128.187L36.4402 127.876C37.5604 127.678 38.8857 127.57 39.4468 127.54C40.0328 127.591 41.2523 126.612 42.1903 125.441C43.1034 124.328 44.118 123.26 44.4493 123.198C44.8572 123.102 45.1864 122.489 45.2092 121.881C45.2568 121.215 45.8408 120.576 46.7063 120.267C48.3855 119.627 50.16 117.516 49.3939 117.181C49.0874 117.048 48.9591 116.648 49.0854 116.359C49.2365 116.013 49.7976 115.983 50.3588 116.229C51.0752 116.541 51.5578 116.271 51.9615 115.348C52.2907 114.598 53.0009 113.809 53.5351 113.561C54.2971 113.208 54.3467 112.817 53.7297 111.723C52.858 110.104 53.2328 108.55 54.4068 109.064C54.8168 109.242 55.4008 108.879 55.6782 108.245C55.9557 107.61 56.4381 107.203 56.6948 107.314C57.0013 107.448 57.432 107.018 57.7095 106.384C57.987 105.749 58.6474 105.213 59.1319 105.219C59.6413 105.166 60.2522 104.746 60.5048 104.169C61.0597 102.9 62.2047 102.507 62.2855 103.573C62.3393 104.146 62.6706 104.223 63.3829 103.984C64.1718 103.71 64.6273 102.948 65.1305 101.243C65.6585 99.2053 65.8863 98.9615 66.7042 99.3187C68.0811 99.9213 69.9363 98.3263 69.8783 96.5138C69.8452 94.9191 70.7583 94.0817 70.8929 95.5833C71.0772 97.1073 72.4521 96.4706 72.8 94.6991C73.0008 93.6868 73.3053 93.2699 73.6117 93.5416C73.9181 93.8131 75.3924 92.9458 76.9433 91.6298L79.7116 89.335L78.9663 87.9786C78.2726 86.7824 78.3244 86.6669 79.4943 86.0787C81.1735 85.3006 81.5815 85.6168 80.5669 86.823C80.1362 87.3905 79.9601 87.9321 80.2666 88.066C81.0845 88.4231 82.5794 86.2587 82.0907 85.427C81.834 85.0401 81.9604 84.4762 82.3144 84.2192C82.7969 83.8118 83.0536 83.9233 83.3621 84.608C83.9274 85.9551 84.9689 84.9669 84.9109 83.1544C84.826 81.3997 86.6316 80.1956 88.8493 80.5468C90.4063 80.7456 90.8369 80.178 90.2447 78.7508C89.8845 77.9062 90.1371 77.4671 91.7873 75.9203C92.8288 74.9321 93.8683 73.8062 94.0443 73.4023C94.2473 72.9408 94.4771 72.9725 94.709 73.6926C95.0692 74.3997 95.5538 74.405 97.028 73.6754C98.2994 72.9942 98.757 72.5065 98.4236 72.1549C97.7838 71.5317 98.5914 69.2725 99.3058 69.5849C99.5604 69.6967 99.7157 70.1767 99.7178 70.5898C99.6432 71.0382 100.534 70.5337 101.701 69.5324C102.894 68.4736 104.368 67.3307 105.029 67.07C105.665 66.7294 107.571 65.2944 109.145 63.7832C111.456 61.7005 111.963 60.9599 111.452 60.5991C110.735 60.0112 111.439 57.9827 112.433 57.7983C112.816 57.7592 112.918 58.0791 112.692 58.5985C112.464 59.1177 112.62 59.5978 113.052 59.5808C113.945 59.6271 116.04 54.7013 115.349 54.0557C115.042 53.7842 115.498 53.2965 116.517 52.9168C117.686 52.4663 118.043 52.0717 117.709 51.7201C117.069 51.0969 117.421 50.0139 118.086 50.304C118.341 50.4155 118.523 51.1133 118.399 51.8149C118.2 53.378 118.993 53.9305 119.573 52.6037C119.776 52.1421 120.461 51.273 121.122 50.7371C121.782 50.2009 122.745 48.835 123.352 47.7259C124.211 46.0399 124.209 45.4891 123.389 44.4435C122.722 43.6025 122.592 42.9271 123.049 42.4394C123.43 41.9873 123.577 40.8148 123.368 39.7616C123.161 38.7086 123.155 37.4693 123.333 37.0654C123.509 36.6617 123.277 35.9416 122.79 35.523C122.331 35.0466 122.2 34.5088 122.48 34.2874C122.784 34.0083 122.78 33.0444 122.445 32.1418C121.929 30.8171 121.445 30.3985 119.581 29.9281C118.306 29.6455 116.98 29.6159 116.599 29.9304C116.142 30.2803 116.09 29.9826 116.469 29.1174C117.1 27.6752 116.819 27.4836 112.943 27.0265ZM110.911 28.6121C110.938 28.9676 110.708 29.2114 110.454 29.0998C110.147 28.9657 110.019 28.5658 110.145 28.2773C110.296 27.9311 110.499 27.7451 110.601 27.7898C110.754 27.8566 110.909 28.1991 110.911 28.6121ZM120.565 33.2439C120.335 33.3498 119.85 33.2067 119.569 32.8774C119.235 32.5259 119.465 32.4197 120.026 32.6651C120.612 32.853 120.844 33.1601 120.565 33.2439ZM109.655 32.8735C109.375 33.0951 108.89 33.2274 108.584 33.0933C108.329 32.9817 108.251 32.6041 108.377 32.3156C108.528 31.9695 108.988 31.895 109.448 32.0959C109.855 32.2745 109.959 32.5944 109.655 32.8735ZM32.5807 2.55437C31.8498 4.22735 30.9822 4.12327 31.5371 2.44098C31.8125 1.66874 32.2949 1.12329 32.5517 1.23502C32.8561 1.3689 32.8333 1.97747 32.5807 2.55437ZM103.281 32.8375C101.931 33.1411 101.269 32.8507 102.006 32.2794C102.31 32.0003 102.973 32.015 103.432 32.2159C104.199 32.5507 104.147 32.6662 103.281 32.8375ZM40.9956 9.46191C43.3975 11.0618 44.6502 11.8153 46.4371 12.734C47.3316 13.1936 47.665 13.8206 47.5428 14.6598C47.3916 15.419 47.752 16.1261 48.3649 16.3939C48.9778 16.6618 49.8494 18.1428 50.3153 19.7206C50.8578 21.4008 51.5515 22.5972 52.0858 22.625C52.6469 22.5952 52.9305 23.3376 52.8601 24.6123C52.8125 25.6916 52.9451 26.6424 53.148 26.7316C53.9141 27.0664 54.4109 29.8259 53.9823 31.2198C53.3777 33.0173 53.9989 35.3506 54.968 35.3616C55.4007 35.3448 55.8873 35.901 56.0178 36.5766C56.2766 37.652 56.1255 37.8606 55.3117 38.0541C54.4959 38.2477 54.4711 38.4433 55.0094 39.2973C55.6265 40.2535 54.9991 42.6596 54.2329 42.3248C54.028 42.2356 53.8458 41.1246 53.7899 39.8632C53.707 38.6591 53.3922 36.4597 53.0547 35.0065C52.6406 33.5886 52.4316 32.2602 52.533 32.0295C52.709 31.6255 51.185 26.492 49.9488 23.3399C49.3297 21.6951 49.073 21.4459 48.3627 21.9595C46.2797 23.523 47.0044 26.5894 49.5285 26.7992C50.5741 26.9126 50.6508 27.0149 49.864 27.4262C49.1 27.7799 49.0005 28.1484 49.2842 29.3039C49.4912 30.0817 50.0565 30.8779 50.6176 31.1236C51.129 31.3468 51.4355 31.7561 51.2844 32.1021C51.1581 32.3905 50.8268 32.5898 50.5224 32.4559C50.2657 32.3442 49.9095 32.4634 49.7584 32.8096C49.632 33.098 49.9654 33.5874 50.5265 33.8328C51.0897 34.0784 51.3961 34.6253 51.1953 35.087C51.0172 35.4907 51.301 36.2331 51.8393 36.6741C52.5288 37.3197 52.5827 37.6172 51.9201 38.0156C51.2596 38.4139 51.2657 39.791 51.9697 43.7414C52.4915 46.5808 52.6551 48.9886 52.299 49.1077C51.6364 49.2307 50.5059 53.066 51.067 53.3114C51.272 53.4008 51.8062 53.2909 52.3404 53.0432C52.798 52.8311 53.3343 52.8589 53.4357 53.179C53.5393 53.4991 53.2349 53.9158 52.7773 54.1281C52.1665 54.411 51.9656 55.0102 51.9967 56.3296C52.007 58.6703 51.8061 59.2696 51.0379 58.6594C50.7315 58.3879 50.3236 58.3469 50.1703 58.5553C48.7768 60.3512 50.1829 61.1716 52.1396 59.7589C53.765 58.6832 53.4895 59.7308 51.4106 62.3958C50.4727 63.5664 50.1952 64.3386 50.4272 64.7833C50.657 65.0903 50.4562 65.965 50.0255 66.6702C49.4954 67.6063 49.0378 67.8186 48.3731 67.3907C47.6815 66.8827 47.429 67.0466 47.255 68.139C47.1039 68.8982 46.2177 70.2287 45.3294 71.1462C43.5777 72.7859 42.5838 72.5572 43.9007 70.7967C44.3562 70.1714 44.4059 69.6429 43.998 69.4643C43.5383 69.2634 43.6895 69.055 44.4784 68.7815C45.5737 68.504 50.3153 62.6733 50.0834 61.9532C50.0565 61.7355 49.6237 61.6146 49.1392 61.6091C48.6029 61.5813 48.1225 62.2642 47.7705 63.485C47.2922 65.1319 47.1142 65.2602 46.5013 64.5795C45.8615 63.9562 45.6835 64.0845 45.3832 65.4653C45.2341 66.3621 44.8531 67.0899 44.4969 67.0712C43.0185 66.9748 39.4633 76.4859 39.9851 79.1877C40.0637 79.8407 39.8609 80.1646 39.2749 80.1145C38.7904 80.1089 38.0305 81.0134 37.4486 82.3404C36.4382 84.5102 36.4133 84.5679 38.2271 85.2913C39.3742 85.7248 40.0141 86.3481 39.9665 86.8764C39.7677 88.3018 40.7989 90.8137 41.4594 90.6908C42.6065 90.4356 42.6023 89.6094 41.5256 88.1769C40.3992 86.722 40.5483 85.825 42.7017 82.7116C43.6894 81.2879 44.0207 81.0887 44.2526 81.8088C44.4597 82.4488 44.791 82.6627 45.5033 82.4244C46.2425 82.1285 46.3708 82.253 46.0664 82.9454C45.8656 83.4068 45.3314 83.7921 44.9484 83.8312C44.5404 83.7905 44.2878 84.092 44.3665 84.4696C44.4949 84.8698 45.2837 84.7339 46.2507 84.194C47.5717 83.3973 47.7747 83.0735 47.4413 82.3087C47.0541 81.5218 47.9859 78.8365 50.0358 74.9898C50.7439 73.65 51.9408 73.6926 51.3362 75.0771C50.7792 76.3462 51.8 76.5173 52.738 75.3465C53.2971 74.6283 53.3177 73.7443 52.7504 72.2596C51.9263 70.25 51.9263 70.25 53.1272 70.7059C54.0963 71.1298 54.3509 70.9662 54.5 69.9315C54.6718 68.5638 55.6657 68.517 55.7734 69.801C55.8811 70.9471 57.0261 70.4166 57.7074 68.8591C58.3389 67.4168 57.7736 66.6205 56.8356 67.6535C56.4795 68.0479 56.378 67.8656 56.6555 67.231C56.8315 66.6895 57.3906 66.3842 57.7985 66.5628C58.7178 66.9647 59.2251 66.0863 58.5584 65.2453C58.1236 64.8491 58.3016 64.583 59.1154 64.2515C60.923 63.598 63.4368 61.4671 63.3829 60.7561C63.3291 60.3207 63.0226 60.0493 62.6913 60.1107C61.012 60.4757 62.8922 59.236 66.2238 57.7375C69.8888 56.1775 71.4872 54.471 70.4871 53.2783C70.2055 52.9491 70.4105 53.0383 70.9986 53.5016C71.8164 54.1341 72.2492 54.1172 72.858 53.2835C73.3135 52.6581 73.8477 52.2729 74.0009 52.3399C74.7671 52.6747 79.2127 48.9132 79.3866 47.8209C79.5108 46.9818 79.7634 46.8179 80.4032 47.1658C81.0927 47.5359 81.3971 47.2568 81.7739 46.116C82.1259 45.033 82.331 44.847 82.5629 45.5671C82.9749 46.8471 84.4284 46.7258 85.0082 45.399C85.2608 44.8221 85.6916 44.3924 85.998 44.5262C86.2548 44.6378 86.8904 44.1596 87.4226 43.4989C87.9278 42.7581 88.7167 42.2091 89.2012 42.2145C89.6857 42.2201 90.2179 41.8348 90.4457 41.3156C90.8743 40.3348 91.8185 40.5413 91.6694 41.5759C91.6218 42.1044 91.9799 42.2606 93.0483 42.0409C94.0422 41.8565 94.5745 41.3334 94.7484 40.3788C94.9741 39.3088 95.4068 38.8789 96.5518 38.7615C97.9019 38.5956 97.9536 38.6179 96.8852 39.2509C95.9949 39.7552 95.8188 40.1591 96.0258 40.7991C96.2577 41.5192 97.2516 41.3348 100.15 39.8533C102.26 38.7828 104.323 38.1033 104.782 38.3042C105.242 38.5052 105.727 38.3729 105.853 38.0845C106.004 37.7383 106.36 37.6191 106.615 37.7308C106.921 37.8647 106.95 38.3578 106.723 38.877C106.445 39.5116 106.623 39.7962 107.286 39.8111C107.822 39.8388 108.561 39.9559 108.971 40.1345C109.379 40.313 109.862 40.0432 110.065 39.5816C110.265 39.1201 110.698 38.828 110.953 38.9395C111.259 39.0734 111.363 39.3935 111.212 39.7397C111.085 40.0281 111.419 40.5173 111.93 40.7406C113.307 41.3433 114.28 42.4558 113.978 43.1481C113.852 43.4366 113.572 43.3826 113.315 42.9956C113.084 42.5509 112.856 42.7947 112.655 43.6694C112.506 44.5662 112.152 44.9608 111.539 44.8306C110.748 44.6912 110.698 44.8066 111.135 46.0291C111.446 47.1269 111.346 47.633 110.483 48.3552C109.29 49.4142 108.677 49.4216 109.615 48.3889C109.947 48.052 109.918 47.4211 109.586 47.0695C109.149 46.5355 108.768 46.7124 108.439 47.4623C108.187 48.0392 106.994 49.236 105.851 50.0418C104.708 50.8478 103.186 52.5191 102.451 53.6412C101.743 54.8435 100.726 55.774 100.217 55.8261C99.6805 55.7984 98.9972 56.5297 98.5666 57.5105C98.0365 58.7218 97.0964 59.4794 95.2639 60.1906C92.6177 61.2331 91.3753 62.6828 92.7026 63.2632C93.1125 63.4418 93.3693 63.8287 93.216 64.1749C93.0897 64.4634 92.6074 64.5956 92.1994 64.417C91.7398 64.2161 91.1021 64.4191 90.748 64.8135C90.3421 65.1857 89.7561 65.4111 89.4497 65.2772C89.0915 65.121 88.0499 65.696 87.1596 66.4759C86.1947 67.291 84.3415 68.8862 82.9438 69.9934C81.0637 71.5085 80.0512 72.8521 78.9145 75.3105C77.2207 78.9003 75.4421 80.0468 73.856 78.6664C73.2928 78.1454 73.0381 78.1715 73.0153 78.78C72.9159 79.2862 73.1976 79.7532 73.6055 79.794C73.9368 79.8703 74.0403 80.1902 73.711 80.5271C73.4315 80.8863 72.8455 80.9738 72.4376 80.6577C71.6446 80.1052 69.0253 81.6408 69.1309 82.6493C69.1578 83.0046 68.2695 83.7845 67.2011 84.2797C64.7599 85.5491 62.8839 88.0281 64.0083 88.5191C64.7226 88.8316 65.2547 88.3087 65.7848 86.6841C65.8842 86.3156 66.3418 86.1033 66.8015 86.3042C67.4144 86.5722 67.3647 86.9628 66.58 88.0626C65.2361 89.8809 63.8633 90.5176 62.5857 89.9595C61.3599 89.4238 60.2418 90.0344 58.8483 91.9679C58.1629 92.8372 58.0138 93.4586 58.37 93.6148C59.0864 93.9273 58.2023 95.9464 56.8812 97.1561C56.1192 97.7854 55.558 97.8152 54.765 97.1249C54.1003 96.5594 53.5393 96.4516 53.3633 96.8555C53.2122 97.2015 53.3405 97.6016 53.5952 97.7132C54.4131 98.0703 53.4523 99.7116 52.4315 99.6783C51.9222 99.7305 51.2367 100.324 50.8826 101.132C50.3774 102.286 50.098 102.369 49.4064 101.724C48.8183 101.123 48.4373 101.162 48.1578 101.797C47.9321 102.316 47.959 102.809 48.2654 102.943C48.5201 103.054 48.4456 103.503 48.0915 103.898C47.6836 104.27 47.0997 104.495 46.6918 104.317C45.8739 103.959 45.3169 104.815 45.8553 105.669C46.3439 106.501 44.996 107.631 44.3314 106.928C43.9214 106.474 43.5651 106.731 43.1117 107.769C42.7576 108.576 42.0723 109.17 41.5629 109.222C40.4158 109.202 39.7345 110.76 40.6042 111.415C41.0639 111.753 41.0142 112.144 40.4303 112.507C39.7698 113.043 39.5648 112.954 39.1527 112.087C38.896 111.424 38.5627 111.21 38.4115 111.556C38.2604 111.903 38.3908 112.44 38.6973 112.712C39.0306 113.063 38.5213 113.529 37.1981 114.05C34.7818 114.986 32.7546 117.812 33.7526 118.866C34.6492 119.877 36.2767 119.214 37.0097 117.541C37.3886 116.675 37.9228 116.29 38.3824 116.491C38.7904 116.67 38.9705 117.23 38.7428 117.749C38.1133 119.191 34.7299 121.218 34.117 120.537C33.7836 120.186 32.8664 120.472 31.9284 121.23C31.0381 122.01 29.9945 122.447 29.6881 122.313C29.3319 122.157 28.8225 122.347 28.5182 122.626C28.2138 123.043 27.8825 122.967 27.752 122.567C27.6237 122.167 27.8266 121.843 28.2863 121.906C29.305 121.939 29.8848 120.337 28.9654 119.935C28.5575 119.757 28.3753 119.197 28.5782 118.735C28.7811 118.274 28.7521 117.78 28.4457 117.647C27.7831 117.356 27.4539 118.106 27.7396 119.124C27.9197 119.547 27.4642 120.309 26.6753 120.996C25.3543 122.068 25.3812 122.011 26.5656 119.162C27.7272 116.508 27.7251 115.957 26.8223 113.432C26.2301 111.867 25.5883 110.556 25.3315 110.444C25.1286 110.355 24.9463 109.519 24.9422 108.555C24.938 107.454 24.5012 106.644 23.7599 106.39C22.8923 106.01 22.7888 105.69 23.3209 105.029C23.9297 104.333 23.7247 103.831 22.3685 102.62C21.3725 101.84 20.0949 101.145 19.482 101.152C18.6931 101.151 18.5896 100.968 19.1487 100.387C19.5545 99.8776 19.5234 98.6961 18.9809 97.1534C17.5108 92.8685 17.4053 92.1353 18.3992 91.9508C19.8506 91.6919 19.0514 89.4871 17.2645 88.7058C15.9869 88.1479 15.9103 87.9079 16.5957 87.0386C17.7366 85.682 17.0408 83.7971 15.3574 83.4737C14.1585 83.2933 14.1316 83.2134 15.2021 82.9936C16.7551 82.6416 17.0822 81.7539 15.8067 81.1959C15.2435 80.9505 14.9371 80.4033 15.1131 79.9996C15.5935 78.9036 13.3158 70.7611 12.6035 70.9995C12.2722 71.1985 12.1998 71.9224 12.4068 72.7002C12.8209 74.2556 12.7215 75.0372 12.059 74.7471C11.8022 74.6355 11.62 73.5246 11.6407 72.2276C11.6821 70.0468 11.7566 69.8738 12.7505 69.827C13.5663 69.7712 13.5146 69.611 12.4151 68.7868C11.1893 67.8381 11.1355 67.5403 12.0714 65.5437C13.0052 63.5469 12.9534 63.3867 11.7815 63.1488C11.0671 62.9741 10.5557 62.6133 10.682 62.3248C10.8331 61.9786 10.7524 60.9123 10.5681 59.8016C10.2824 58.5083 10.4066 57.8068 10.9181 57.7547C12.1397 57.4642 12.6636 54.7379 11.5392 54.2469C10.9781 54.0013 10.6199 53.432 10.6427 52.9613C10.6924 52.5704 10.9967 52.2913 11.3529 52.4475C11.7111 52.6037 11.8623 52.1199 11.7049 51.089C11.5475 50.1959 11.62 49.0589 11.796 48.6552C12.5041 47.0399 12.7754 38.912 12.206 36.8762C11.6635 34.783 12.0672 33.8599 13.3427 34.418C13.7009 34.5742 14.1834 34.3044 14.3863 33.8429C14.6389 33.4036 15.0448 32.756 15.2208 32.4899C16.1857 31.2616 17.8752 27.121 17.517 26.9648C17.3141 26.8756 16.9332 27.1901 16.7303 27.6516C16.5294 28.1132 16.1484 28.4277 15.8419 28.2937C14.9226 27.892 15.9351 26.5483 17.7925 25.6417C18.9624 25.0536 20.4345 23.4978 22.0041 21.0226C23.3976 18.9512 25.3004 16.69 26.2653 16.0125C28.7563 14.2145 31.7338 12.973 32.678 13.3171C34.3365 13.8359 36.5024 13.7519 37.519 13.0965C38.1795 12.6984 38.4343 12.6721 38.2831 13.1561C37.9042 14.0213 39.6931 14.9402 40.5069 14.3335C41.42 13.6337 41.9335 14.1324 41.683 15.5353C41.4345 16.8007 42.8405 18.0342 43.3208 16.9381C43.8012 15.842 44.6461 16.8301 44.4991 18.4153C44.4018 19.6101 44.6585 19.997 45.7559 20.2704C47.108 20.5177 48.6071 19.5925 48.1205 18.7609C45.3997 14.4109 43.325 12.0611 41.5898 11.4399C40.4676 11.0865 39.4447 10.5023 39.2397 10.1377C38.6744 9.20367 34.9515 8.5382 33.9079 9.11324C33.4006 9.4408 32.4316 9.42984 31.7669 9.13973C31.1561 8.87197 30.3382 8.79024 30.0338 9.06938C29.7543 9.29079 29.22 9.40066 28.9136 9.26678C27.841 8.7981 30.361 7.90626 31.9926 8.20754C32.912 8.33376 33.7526 8.22016 33.8789 7.93171C34.0052 7.64326 34.5643 7.61345 35.1275 7.85887C35.7404 8.12683 36.3243 7.9015 36.5521 7.38233C36.8544 6.68996 37.2374 6.65085 38.0036 7.26107C38.5171 7.75975 39.8713 8.69546 40.9956 9.46191ZM88.7787 32.6149C88.4247 33.4225 87.2776 33.5398 86.8158 32.7883C86.5094 32.379 86.6875 32.1129 87.2983 31.9676C88.4951 31.7348 89.0562 31.9802 88.7787 32.6149ZM35.142 11.3015C35.1689 11.6568 34.9391 11.9005 34.6844 11.789C34.3779 11.6551 34.2495 11.2551 34.3758 10.9667C34.527 10.6205 34.7299 10.4342 34.8314 10.4789C34.9846 10.546 35.1399 10.8882 35.142 11.3015ZM93.477 40.7846C92.713 41.1385 92.3755 39.272 93.1105 38.7007C93.6447 38.3154 93.8248 38.4623 93.8786 39.3109C93.9325 40.0217 93.7317 40.621 93.477 40.7846ZM24.6896 10.8566C24.5633 11.145 24.232 11.3443 23.9255 11.2102C23.6708 11.0987 23.5425 10.6987 23.6688 10.4102C23.8199 10.0641 24.1761 9.94487 24.4308 10.0566C24.7372 10.1905 24.8408 10.5104 24.6896 10.8566ZM59.6703 26.1462C59.6972 26.5017 59.4695 26.7455 59.2148 26.6337C58.9084 26.4998 58.7779 26.0998 58.9042 25.8114C59.0553 25.4652 59.2583 25.2792 59.3618 25.3239C59.515 25.3907 59.6682 25.7332 59.6703 26.1462ZM107.946 51.37C107.82 51.6585 107.439 51.8354 107.133 51.7015C106.878 51.5898 106.901 51.2569 107.18 51.0352C107.485 50.7561 107.841 50.6369 107.994 50.7039C108.097 50.7486 108.097 51.0241 107.946 51.37ZM20.6271 14.5789C20.5008 14.8674 20.1695 15.0665 19.8631 14.9326C19.6084 14.821 19.48 14.4208 19.6063 14.1324C19.7574 13.7864 20.1136 13.6672 20.3683 13.7788C20.6747 13.9126 20.7782 14.2327 20.6271 14.5789ZM105.559 53.4881C105.18 53.9402 104.799 54.3926 104.747 54.508C104.698 54.6233 104.29 54.5825 103.882 54.404C103.217 54.1136 103.267 53.8606 104.13 53.1384C105.399 52.0442 106.6 52.362 105.559 53.4881ZM106.064 64.567C104.337 65.8738 103.341 65.7827 104.484 64.4259C105.573 63.1846 107.762 62.079 107.663 62.8605C107.638 63.1937 106.928 63.9827 106.064 64.567ZM95.0962 62.6598C94.8953 63.1215 94.5889 63.2628 94.359 62.9559C94.1789 62.6712 94.1002 62.1557 94.2513 61.8096C94.3776 61.5211 94.7338 61.4021 94.9905 61.5137C95.297 61.6475 95.324 62.1406 95.0962 62.6598ZM57.1255 51.5612C56.6182 52.1642 56.2621 52.1458 56.0798 51.5857C55.9515 51.1857 56.1524 50.4486 56.61 49.9611C57.1173 49.3581 57.4734 49.3767 57.6535 49.9367C57.784 50.3369 57.5831 51.0737 57.1255 51.5612ZM56.4733 54.3005C56.5002 54.6558 56.2725 54.8997 56.0178 54.788C55.7113 54.6541 55.5829 54.2541 55.7072 53.9657C55.8604 53.6195 56.0633 53.4335 56.1648 53.478C56.318 53.545 56.4733 53.8875 56.4733 54.3005ZM56.7652 57.1085C56.6389 57.3967 55.9785 57.5198 55.289 57.425C54.0135 57.28 54.0134 57.28 55.2868 56.8742C56.8915 56.4068 57.0696 56.4161 56.7652 57.1085ZM11.7877 40.3356C11.6365 40.6818 11.4067 40.6501 11.1769 40.3431C10.9967 40.0585 10.9429 39.4854 11.0692 39.1969C11.2204 38.8507 11.502 38.9047 11.6821 39.1895C11.9119 39.4963 11.914 40.0472 11.7877 40.3356ZM60.3309 62.1709C60.3578 62.5264 60.1279 62.7701 59.8732 62.6586C59.5668 62.5247 59.4384 62.1245 59.5648 61.8361C59.7159 61.4901 59.9188 61.3038 60.0202 61.3485C60.1735 61.4156 60.3288 61.7578 60.3309 62.1709ZM3.79931 37.7375C3.72477 37.9105 3.39351 38.1097 3.01045 38.1488C2.67915 38.2103 2.47624 37.9833 2.60047 37.6948C2.7537 37.3487 3.13465 37.1719 3.38933 37.2835C3.69578 37.4174 3.849 37.622 3.79931 37.7375ZM2.74543 41.5374C2.34166 42.4603 1.44713 42.2763 1.36638 41.2101C1.2877 40.2816 2.37893 39.4533 2.81582 40.125C2.96905 40.4674 2.94628 41.0758 2.74543 41.5374ZM53.9616 62.8233C53.9885 63.1788 53.6572 63.3778 53.2493 63.1993C52.7897 62.9983 52.5579 62.5537 52.6842 62.2652C52.8353 61.9192 53.1418 61.7777 53.3964 61.8892C53.7029 62.0233 53.9595 62.4103 53.9616 62.8233ZM10.9677 45.5441C10.7938 46.361 10.593 47.2357 10.4418 47.5817C10.0111 48.4247 9.5908 45.3545 9.96972 44.4892C10.5246 43.2201 11.2162 44.0033 10.9677 45.5441ZM83.1302 77.7715C82.596 78.0192 82.3144 77.9652 82.4656 77.619C82.8197 76.8114 83.7348 76.387 83.9171 76.9471C83.9419 77.1648 83.5878 77.5594 83.1302 77.7715ZM79.1671 80.9877C79.0905 81.1607 78.7613 81.36 78.3782 81.3991C78.0469 81.4605 77.8419 81.2335 77.9682 80.9451C78.1194 80.5989 78.5024 80.4222 78.7571 80.5337C79.0636 80.6676 79.2168 80.8722 79.1671 80.9877ZM77.7756 89.7261C77.6493 90.0146 77.4216 90.2585 77.318 90.2138C77.1648 90.1468 77.0365 89.7468 77.0095 89.3913C77.0075 88.9783 77.2104 88.7923 77.4672 88.9038C77.7736 89.0377 77.9268 89.3801 77.7756 89.7261ZM42.2877 74.9019C42.1614 75.1903 41.9315 75.4341 41.8301 75.3896C41.6768 75.3225 41.5484 74.9226 41.5215 74.5671C41.5194 74.154 41.7224 73.9678 41.9771 74.0795C42.2835 74.2134 42.4388 74.5557 42.2877 74.9019ZM68.197 90.6248C66.9753 91.1907 65.9049 91.4105 65.8013 91.0904C65.6481 90.7481 66.3086 90.212 67.2239 89.9252C68.0894 89.6162 68.9797 88.9741 69.1557 88.5702C69.7624 87.1857 70.6549 87.0945 70.5058 88.4045C70.4085 89.186 69.6464 89.9527 68.197 90.6248ZM6.83279 68.3395C6.70648 68.6279 6.37515 68.827 6.0687 68.6931C5.81402 68.5816 5.68357 68.1816 5.80988 67.8931C5.9631 67.547 6.31928 67.4278 6.57397 67.5393C6.88041 67.6734 6.98394 67.9933 6.83279 68.3395ZM63.2193 94.9091C61.4675 96.6864 60.5254 97.1685 61.0306 96.0147C61.2584 95.4956 61.7906 94.9727 62.1219 94.9112C62.505 94.8721 63.0122 94.2691 63.2897 93.6345C63.5671 92.9999 63.9482 92.6853 64.1532 93.0501C64.3851 93.357 64.0061 94.0847 63.2193 94.9091ZM58.9498 97.9913C58.8235 98.2797 58.4425 98.4566 58.136 98.3228C57.8793 98.211 57.904 97.8781 58.1836 97.6565C58.4879 97.3773 58.8441 97.2581 58.9973 97.3252C59.0988 97.3699 59.1009 97.6453 58.9498 97.9913ZM55.6491 101.36C55.0652 101.861 54.5331 102.246 54.4296 102.201C54.3281 102.157 54.556 101.637 54.9867 101.07C55.4174 100.502 55.9515 100.117 56.2579 100.251C56.5126 100.362 56.2351 100.859 55.6491 101.36ZM9.67152 83.1192C9.26362 83.0782 8.65077 82.8105 8.39402 82.5611C8.11242 82.2319 8.41885 82.228 9.13321 82.5407C9.84964 82.8531 10.0546 83.0801 9.67152 83.1192ZM54.1542 103.387C54.0031 103.733 53.6221 104.047 53.2411 104.086C52.9098 104.148 52.3508 104.729 52.0981 105.305C51.8455 105.882 51.2864 106.463 50.9572 106.524C50.1662 106.66 51.1788 104.766 52.6758 103.29C53.5393 102.43 54.558 102.464 54.1542 103.387ZM9.58457 86.5169C9.27813 86.6585 8.99653 86.3292 8.94269 85.7561C8.75841 83.9566 9.26572 83.4915 9.72953 84.9317C9.96351 85.6518 9.88895 86.3756 9.58457 86.5169ZM11.5102 90.3146C11.7442 91.1723 11.7214 91.7809 11.4667 91.6691C10.8787 91.3436 9.84962 89.2448 10.0774 88.7256C10.3797 88.0335 11.0961 88.7589 11.5102 90.3146ZM48.7996 108.674C48.5201 109.309 48.0129 109.636 47.7561 109.387C47.4248 109.173 46.8409 109.536 46.4351 110.183C46.0044 110.889 45.4453 111.332 45.1906 111.22C44.5777 110.952 44.6791 110.722 46.7352 108.803C48.6899 106.977 49.5823 106.886 48.7996 108.674ZM13.3013 98.0385C13.1502 98.3844 12.9203 98.353 12.6905 98.0459C12.5103 97.7612 12.4565 97.1882 12.5828 96.8998C12.734 96.5536 13.0156 96.6076 13.1957 96.8921C13.4256 97.1992 13.4276 97.75 13.3013 98.0385ZM42.472 113.537C41.3807 114.366 40.6932 114.684 40.8692 114.28C41.2481 113.415 44.0684 111.28 44.2237 111.76C44.2755 111.92 43.4886 112.745 42.472 113.537ZM14.4319 100.182C14.3842 100.71 14.6658 101.315 15.1255 101.516C15.5334 101.694 15.7156 102.255 15.4879 102.774C15.1338 103.581 15.0075 103.594 14.5437 102.567C13.233 99.7261 13.0756 98.5576 14.0446 98.9816C14.2993 99.0934 14.4298 99.6309 14.4319 100.182ZM16.3409 105.827C15.9869 106.222 15.9641 106.968 16.3492 107.48C16.6826 107.969 16.7613 108.484 16.4548 108.626C15.9724 108.896 14.8377 105.651 15.1897 104.843C15.2911 104.612 15.7508 104.538 16.2105 104.739C16.7199 104.962 16.7737 105.397 16.3409 105.827ZM17.2064 111.497C17.2375 112.954 17.2126 113.011 16.7757 111.927C16.4403 111.3 16.3368 110.566 16.4632 110.278C16.84 109.413 17.1733 109.902 17.2064 111.497ZM26.1515 117.331C26.0251 117.619 25.6939 117.818 25.3874 117.684C25.1327 117.573 25.0043 117.173 25.1306 116.884C25.2818 116.538 25.6379 116.419 25.8926 116.531C26.1991 116.665 26.3026 116.984 26.1515 117.331ZM19.6022 117.561C19.8134 119.578 19.538 120.625 18.7718 120.291C18.5172 120.179 18.4136 119.721 18.6144 119.26C18.8174 118.798 18.6103 118.021 18.1237 117.602C17.2541 116.809 17.25 116.121 18.1672 115.696C19.0307 115.25 19.391 115.681 19.6022 117.561ZM39.4157 126.083C38.4239 126.543 38.0119 125.676 38.9022 125.034C39.2066 124.755 39.6642 124.818 39.8961 125.125C40.1011 125.49 39.9499 125.836 39.4157 126.083ZM25.5675 136.456C25.2383 136.793 24.6006 136.996 24.0912 136.91C23.4286 136.758 23.3499 136.518 23.8324 135.972C24.6689 135.033 26.3295 135.552 25.5675 136.456Z" fill="#FF0090" fill-opacity="0.3"/>
</svg>
